<svg xmlns="http://www.w3.org/2000/svg" xmlns:svg="http://www.w3.org/2000/svg" xmlns:xlink="http://www.w3.org/1999/xlink" id="svg3119" width="48" height="48" version="1.1"><defs id="defs3121"><linearGradient id="G1-6-5-0"><stop id="s1-3-2" offset="0" style="stop-color:#59a40f;stop-opacity:1"/><stop id="s2-9-9" offset="1" style="stop-color:#306102;stop-opacity:1"/></linearGradient><radialGradient id="radialGradient3059" cx="33.921" cy="32.026" r="12.011" fx="33.921" fy="32.026" gradientTransform="matrix(1.097181,-0.06040066,0.05995679,1.0724194,-4.5150948,1.1399226)" gradientUnits="userSpaceOnUse" xlink:href="#G4-0"/><linearGradient id="G4-0"><stop id="s7-3" offset="0" style="stop-color:#d50f0f;stop-opacity:1"/><stop id="s8-9" offset="1" style="stop-color:#860000;stop-opacity:1"/></linearGradient><radialGradient id="radialGradient3061" cx="25.346" cy="30.31" r="12.011" fx="22.506" fy="25.064" gradientTransform="matrix(0.7893072,0.4930809,-0.2597058,0.4157284,13.532895,6.7682)" gradientUnits="userSpaceOnUse" xlink:href="#G2-9"/><linearGradient id="G2-9"><stop id="s3-69" offset="0" style="stop-color:#fff;stop-opacity:1"/><stop id="s4-33" offset="1" style="stop-color:#fff;stop-opacity:0"/></linearGradient><linearGradient id="linearGradient3063" x1="42.551" x2="22.734" y1="46.026" y2="23.323" gradientTransform="translate(0.28382124,1.5794635)" gradientUnits="userSpaceOnUse" xlink:href="#G4-0"/><linearGradient id="linearGradient3090"><stop id="stop3092" offset="0" style="stop-color:#d50f0f;stop-opacity:1"/><stop id="stop3094" offset="1" style="stop-color:#860000;stop-opacity:1"/></linearGradient><radialGradient id="radialGradient4124" cx="15.116" cy="63.965" r="12.289" fx="13.292" fy="60.044" gradientTransform="matrix(1.1562307,0.05007445,-0.03237903,0.73690732,5.7106611,995.05931)" gradientUnits="userSpaceOnUse" xlink:href="#G5"/><linearGradient id="G5"><stop id="s9" offset="0" style="stop-color:#000;stop-opacity:1"/><stop id="s10" offset="1" style="stop-color:#000;stop-opacity:0"/></linearGradient><radialGradient id="radialGradient4122" cx="15.116" cy="63.965" r="12.289" fx="15.116" fy="63.965" gradientTransform="matrix(1.0486065,0.04541342,-0.02992369,0.68102682,6.9899093,-6.6725099)" gradientUnits="userSpaceOnUse" xlink:href="#G5"/><linearGradient id="linearGradient3101"><stop id="stop3103" offset="0" style="stop-color:#000;stop-opacity:1"/><stop id="stop3105" offset="1" style="stop-color:#000;stop-opacity:0"/></linearGradient><radialGradient id="radialGradient3117" cx="15.116" cy="63.965" r="12.289" fx="15.116" fy="63.965" gradientTransform="matrix(1.1346481,0.04913974,-0.03237903,0.73690732,2.4057922,994.13075)" gradientUnits="userSpaceOnUse" xlink:href="#G5"/><linearGradient id="G1-6-5-8"><stop id="s1-3-5" offset="0" style="stop-color:#59a40f;stop-opacity:1"/><stop id="s2-9-8" offset="1" style="stop-color:#306102;stop-opacity:1"/></linearGradient></defs><metadata id="metadata3124"/><g id="layer1" transform="translate(0,-1004.3622)"><path style="fill:url(#radialGradient3117)" id="path30" d="m 31.429174,1042.6141 c -0.218256,5.0022 -6.639723,8.7873 -14.341717,8.4538 -7.7019939,-0.3336 -13.7670658,-4.6595 -13.5457438,-9.6616 0.218255,-5.0022 6.6397238,-8.7874 14.3417158,-8.4538 7.701994,0.3336 13.767067,4.6595 13.545745,9.6616 l 0,0 z"/><path style="fill:url(#radialGradient4124)" id="path32" d="m 35.325501,1043.5682 c -0.218227,5.0022 -6.758449,8.7822 -14.606944,8.4423 -7.848497,-0.3399 -14.032324,-4.671 -13.8109738,-9.673 0.2182275,-5.0022 6.7584498,-8.7822 14.6069458,-8.4423 7.848495,0.3399 14.032324,4.671 13.810972,9.673 l 0,0 z"/><g id="cherry2" transform="matrix(1.2846675,0.05563683,-0.05688801,1.294702,-15.32258,984.94165)"><path id="p5" d="m 42.021325,38.735182 c -2.279722,6.288872 -8.636377,11.670921 -14.976424,9.411231 -6.70613,-0.642133 -10.13411,-8.200552 -9.485159,-14.85215 0.72889,-7.470957 6.639519,-10.416091 14.793381,-8.602451 8.153861,1.813641 12.228746,6.979824 9.668202,14.04337 z" style="fill:url(#radialGradient3059);stroke:#520000;stroke-width:1"/><path id="p6" d="m 41.995025,38.724258 c -2.277279,6.295786 -8.627121,11.683751 -14.960373,9.421577 -6.698943,-0.642839 -10.123249,-8.209567 -9.474994,-14.868477 0.728109,-7.47917 6.632404,-10.427541 14.777527,-8.611908 8.145122,1.815635 12.21564,6.987497 9.65784,14.058808 z" style="opacity:.66000001;fill:url(#radialGradient3061);stroke:#520000;stroke-width:1"/><path id="p7" d="m 26.860256,25.276851 c -3.07205,0.155699 -5.787765,1.525561 -7.161646,4.252889 -2.536789,5.035851 -0.534722,11.521311 1.70598,14.298856 2.676736,3.324223 4.934282,3.044001 6.227098,3.37753 C 31.98885,48.626804 36.499841,46.13494 39.35924,41.601151 44.142636,34.01672 41.126134,28.919644 34.880189,26.51358 32.383871,25.551948 29.61338,25.137315 26.860256,25.276851 z" style="fill:none;stroke:url(#linearGradient3063);stroke-width:1"/><path id="p8" d="m 28.22429,26.01175 c -0.601384,3.336063 4.88838,5.213413 6.335518,2.000743" style="fill:none;stroke:#520000;stroke-width:1"/></g><path style="fill:#4e9a06;stroke:#275000;stroke-width:.77096552" id="stem" d="m 38.309689,1005.9357 c -0.242021,-0.016 -0.518013,-0.037 -0.794517,-0.032 -4.953086,5.8834 -10.588897,11.1259 -16.251328,16.3417 0.425785,0.9105 1.247114,1.0829 2.352255,1.1304 l 6.53591,-6.5438 c 3.162588,-2.8697 6.022094,-5.1403 7.278558,-6.921 0.673327,-0.929 1.445991,-1.9118 2.506397,-3.0289 -0.359151,-0.663 -0.902941,-0.8824 -1.627286,-0.9462 l 1.1e-5,-2e-4 z"/></g></svg>