<svg xmlns="http://www.w3.org/2000/svg" xmlns:svg="http://www.w3.org/2000/svg" xmlns:xlink="http://www.w3.org/1999/xlink" id="svg3119" width="48" height="48" version="1.1"><defs id="defs3121"><linearGradient id="G1-6-5-0"><stop id="s1-3-2" offset="0" style="stop-color:#59a40f;stop-opacity:1"/><stop id="s2-9-9" offset="1" style="stop-color:#306102;stop-opacity:1"/></linearGradient><linearGradient id="G4-0"><stop id="s7-3" offset="0" style="stop-color:#d50f0f;stop-opacity:1"/><stop id="s8-9" offset="1" style="stop-color:#860000;stop-opacity:1"/></linearGradient><linearGradient id="G2-9"><stop id="s3-69" offset="0" style="stop-color:#fff;stop-opacity:1"/><stop id="s4-33" offset="1" style="stop-color:#fff;stop-opacity:0"/></linearGradient><linearGradient id="linearGradient3090"><stop id="stop3092" offset="0" style="stop-color:#d50f0f;stop-opacity:1"/><stop id="stop3094" offset="1" style="stop-color:#860000;stop-opacity:1"/></linearGradient><radialGradient id="radialGradient4124" cx="15.116" cy="63.965" r="12.289" fx="13.292" fy="60.044" gradientTransform="matrix(1.1562307,0.05007445,-0.03237903,0.73690732,5.7106611,995.05931)" gradientUnits="userSpaceOnUse" xlink:href="#G5"/><linearGradient id="G5"><stop id="s9" offset="0" style="stop-color:#000;stop-opacity:1"/><stop id="s10" offset="1" style="stop-color:#000;stop-opacity:0"/></linearGradient><radialGradient id="radialGradient4122" cx="15.116" cy="63.965" r="12.289" fx="15.116" fy="63.965" gradientTransform="matrix(1.0486065,0.04541342,-0.02992369,0.68102682,6.9899093,-6.6725099)" gradientUnits="userSpaceOnUse" xlink:href="#G5"/><linearGradient id="linearGradient3101"><stop id="stop3103" offset="0" style="stop-color:#000;stop-opacity:1"/><stop id="stop3105" offset="1" style="stop-color:#000;stop-opacity:0"/></linearGradient><radialGradient id="radialGradient3117" cx="15.116" cy="63.965" r="12.289" fx="15.116" fy="63.965" gradientTransform="matrix(1.1346481,0.04913974,-0.03237903,0.73690732,2.4057922,994.13075)" gradientUnits="userSpaceOnUse" xlink:href="#G5"/><linearGradient id="G1-6-5-8"><stop id="s1-3-5" offset="0" style="stop-color:#59a40f;stop-opacity:1"/><stop id="s2-9-8" offset="1" style="stop-color:#306102;stop-opacity:1"/></linearGradient><radialGradient id="R1-3-3" cx="33.921" cy="32.026" r="12.011" fx="33.921" fy="32.026" gradientTransform="matrix(1.097181,-0.06040066,0.05995679,1.0724194,-10.979838,34.702065)" gradientUnits="userSpaceOnUse" xlink:href="#G1-6-0"/><linearGradient id="G1-6-0"><stop id="s1-8-0" offset="0" style="stop-color:#59a40f;stop-opacity:1"/><stop id="s2-4-4" offset="1" style="stop-color:#306102;stop-opacity:1"/></linearGradient><radialGradient id="R2-6-8" cx="25.346" cy="30.31" r="12.011" fx="22.506" fy="25.064" gradientTransform="matrix(0.7893072,0.4930809,-0.2597058,0.4157284,7.0875417,40.768202)" gradientUnits="userSpaceOnUse" xlink:href="#G2-6-2"/><linearGradient id="G2-6-2"><stop id="s3-7-2" offset="0" style="stop-color:#fff;stop-opacity:1"/><stop id="s4-2-0" offset="1" style="stop-color:#fff;stop-opacity:0"/></linearGradient><linearGradient id="G6-7-2" x1="42.551" x2="22.734" y1="46.026" y2="23.323" gradientTransform="translate(-6.1712263,35.360536)" gradientUnits="userSpaceOnUse" xlink:href="#G1-6-0"/><linearGradient id="linearGradient2954"><stop id="stop2956" offset="0" style="stop-color:#59a40f;stop-opacity:1"/><stop id="stop2958" offset="1" style="stop-color:#306102;stop-opacity:1"/></linearGradient><radialGradient id="radialGradient2893" cx="33.921" cy="32.026" r="12.011" fx="33.921" fy="32.026" gradientTransform="matrix(1.097181,-0.06040066,0.05995679,1.0724194,-10.979838,34.702065)" gradientUnits="userSpaceOnUse" xlink:href="#G1-6-0"/><radialGradient id="radialGradient2895" cx="25.346" cy="30.31" r="12.011" fx="22.506" fy="25.064" gradientTransform="matrix(0.7893072,0.4930809,-0.2597058,0.4157284,7.0875417,40.768202)" gradientUnits="userSpaceOnUse" xlink:href="#G2-6-2"/><linearGradient id="linearGradient2897" x1="42.551" x2="22.734" y1="46.026" y2="23.323" gradientTransform="translate(-6.1712263,35.360536)" gradientUnits="userSpaceOnUse" xlink:href="#G1-6-0"/><radialGradient id="radialGradient3967-64" cx="33.921" cy="32.026" r="12.011" fx="33.921" fy="32.026" gradientTransform="matrix(0.98175997,-0.01192133,0.01112892,0.96706462,27.201329,30.355415)" gradientUnits="userSpaceOnUse" xlink:href="#G1-1"/><linearGradient id="G1-1"><stop id="s1-9" offset="0" style="stop-color:#d491fa;stop-opacity:1"/><stop id="s2-8" offset="1" style="stop-color:#600261;stop-opacity:1"/></linearGradient><radialGradient id="radialGradient3969-0" cx="25.346" cy="30.31" r="12.011" fx="22.506" fy="25.064" gradientTransform="matrix(0.68506601,0.47408797,-0.24825291,0.36394886,43.232784,36.223317)" gradientUnits="userSpaceOnUse" xlink:href="#G2-4"/><linearGradient id="G2-4"><stop id="s3-9" offset="0" style="stop-color:#fff;stop-opacity:1"/><stop id="s4-0" offset="1" style="stop-color:#fff;stop-opacity:0"/></linearGradient><linearGradient id="linearGradient3971" x1="42.551" x2="22.734" y1="46.026" y2="23.323" gradientTransform="matrix(0.89262618,0.03865817,-0.03952752,0.89959842,31.467594,30.84603)" gradientUnits="userSpaceOnUse" xlink:href="#G1-1"/><linearGradient id="linearGradient2966"><stop id="stop2968" offset="0" style="stop-color:#d491fa;stop-opacity:1"/><stop id="stop2970" offset="1" style="stop-color:#600261;stop-opacity:1"/></linearGradient></defs><metadata id="metadata3124"/><g id="layer1" transform="translate(0,-1004.3622)"><path style="fill:url(#radialGradient3117)" id="path30" d="m 31.429174,1042.6141 c -0.218256,5.0022 -6.639723,8.7873 -14.341717,8.4538 -7.7019939,-0.3336 -13.7670658,-4.6595 -13.5457438,-9.6616 0.218255,-5.0022 6.6397238,-8.7874 14.3417158,-8.4538 7.701994,0.3336 13.767067,4.6595 13.545745,9.6616 l 0,0 z"/><path style="fill:url(#radialGradient4124)" id="path32" d="m 35.325501,1043.5682 c -0.218227,5.0022 -6.758449,8.7822 -14.606944,8.4423 -7.848497,-0.3399 -14.032324,-4.671 -13.8109738,-9.673 0.2182275,-5.0022 6.7584498,-8.7822 14.6069458,-8.4423 7.848495,0.3399 14.032324,4.671 13.810972,9.673 l 0,0 z"/><g id="g3884" transform="matrix(1.4931066,0,0,1.4931066,-64.174431,937.10282)"><path id="p5" d="m 67.254909,65.975064 c -2.283523,5.569329 -8.170379,10.165275 -13.740351,7.887367 -5.960685,-0.836908 -8.721824,-7.76897 -7.879632,-13.727649 0.945935,-6.692684 6.338331,-9.113628 13.544993,-7.166867 7.206661,1.946762 10.639803,6.75178 8.07499,13.007149 z" style="fill:url(#radialGradient3967-64);fill-opacity:1;stroke:#600261;stroke-width:.89695776;stroke-opacity:1"/><path id="p6" d="m 67.375684,66.07123 c -2.281616,5.575643 -8.162624,10.177175 -13.726433,7.897295 -5.954242,-0.837266 -8.711773,-7.77666 -7.869913,-13.741945 0.945562,-6.700102 6.332432,-9.124202 13.531215,-7.175986 7.198781,1.948218 10.627801,6.758175 8.065131,13.020636 z" style="opacity:.66000001;fill:url(#radialGradient3969-0);stroke:#600261;stroke-width:.89695776;stroke-opacity:1"/><g id="g3840"><path style="fill:none;stroke:url(#linearGradient3971);stroke-width:.89695776" id="p7" d="m 54.253717,53.191558 c -2.748347,0.02131 -5.226612,1.148648 -6.560779,3.549036 -2.463459,4.432176 -0.932716,10.343882 0.957604,12.929179 2.257926,3.093943 4.284148,2.929128 5.424965,3.279148 3.833161,1.44648 7.958287,-0.62081 10.689871,-4.588861 4.569578,-6.638024 2.078444,-11.339958 -3.401744,-13.745906 -2.190268,-0.961586 -4.646891,-1.441691 -7.109917,-1.422596 z"/><path style="fill:none;stroke:#600261;stroke-width:.89695776;stroke-opacity:1" id="p8" d="m 55.540716,55.816828 c -0.668677,2.977868 4.157423,4.878954 5.576165,2.044784"/></g></g><path style="fill:#4e9a06;stroke:#275000;stroke-width:.77096552" id="stem" d="m 38.309689,1005.9357 c -0.242021,-0.016 -0.518013,-0.037 -0.794517,-0.032 -4.953086,5.8834 -10.588897,11.1259 -16.251328,16.3417 0.425785,0.9105 1.247114,1.0829 2.352255,1.1304 l 6.53591,-6.5438 c 3.162588,-2.8697 6.022094,-5.1403 7.278558,-6.921 0.673327,-0.929 1.445991,-1.9118 2.506397,-3.0289 -0.359151,-0.663 -0.902941,-0.8824 -1.627286,-0.9462 l 1.1e-5,-2e-4 z"/></g></svg>