<svg xmlns="http://www.w3.org/2000/svg" xmlns:svg="http://www.w3.org/2000/svg" xmlns:xlink="http://www.w3.org/1999/xlink" id="svg7206" width="48" height="48"><defs id="defs7208"><linearGradient id="linearGradient4222"><stop style="stop-color:#fff;stop-opacity:1" id="stop4224" offset="0"/><stop style="stop-color:#fff;stop-opacity:0" id="stop4226" offset="1"/></linearGradient><linearGradient id="linearGradient2785" x1="15.26" x2="38.4" y1=".9" y2="42.306" gradientTransform="matrix(1.0724657,0,0,1.0724657,-1.2644573,-1.32954)" gradientUnits="userSpaceOnUse" xlink:href="#linearGradient4222"/><linearGradient id="linearGradient8002"><stop style="stop-color:#789e2d;stop-opacity:1" id="stop8004" offset="0"/><stop style="stop-color:#42770c;stop-opacity:1" id="stop8006" offset="1"/></linearGradient><linearGradient id="linearGradient8008" x1="22.143" x2="22" y1="5" y2="42.571" gradientUnits="userSpaceOnUse" xlink:href="#linearGradient8002"/><linearGradient id="linearGradient2264"><stop style="stop-color:#b8d67a;stop-opacity:1" id="stop2266" offset="0"/><stop id="stop7998" offset=".25" style="stop-color:#a7cc5c;stop-opacity:1"/><stop style="stop-color:#789e2d;stop-opacity:1" id="stop8000" offset=".68"/><stop style="stop-color:#42770c;stop-opacity:1" id="stop2268" offset="1"/></linearGradient><radialGradient id="radialGradient7996" cx="24" cy="5" r="19" fx="24" fy="5" gradientTransform="matrix(-1.3100728e-8,2.2593985,-4.0026986,0,44.013493,-49.225564)" gradientUnits="userSpaceOnUse" xlink:href="#linearGradient2264"/><linearGradient id="linearGradient7577"><stop style="stop-color:#000;stop-opacity:.3137255" id="stop7579" offset="0"/><stop style="stop-color:#000;stop-opacity:.31" id="stop7581" offset="1"/></linearGradient><linearGradient id="linearGradient7386" x1="23.563" x2="23.563" y1="31.488" y2="36.893" gradientTransform="matrix(1.1449541,0,0,1.8604651,-2.9788993,-40.500001)" gradientUnits="userSpaceOnUse" xlink:href="#linearGradient7577"/></defs><metadata id="metadata7211"/><g id="layer1"><path id="path7342" d="M 6,17 C 4.020574,17.022097 4.022097,17 4,19 L 4,29 C 4.066292,30.934502 4.064762,30.977903 6,31 L 17,31 L 17,42 C 16.95956,43.948298 17.051702,44 19,44 L 29,44 C 31.036686,44 31.04044,44 31,42 L 31,31 L 42,31 C 44,31 44,31.044987 44,29 L 44,19 C 44.044194,17.043401 44.045725,17.022097 42,17 L 31,17 L 31,6 C 31,4.145833 31,4 29,4 L 19,4 C 17.145833,4 17.041667,4 17,6 L 17,17 L 6,17 z" style="opacity:.3;fill:url(#linearGradient7386);fill-opacity:1;fill-rule:nonzero;stroke:none;stroke-width:1;stroke-linecap:butt;stroke-linejoin:miter;marker:none;marker-start:none;marker-mid:none;marker-end:none;stroke-miterlimit:4;stroke-dashoffset:0;stroke-opacity:1;visibility:visible;display:block;overflow:visible;enable-background:accumulate"/><path style="fill:url(#radialGradient7996);fill-opacity:1;fill-rule:evenodd;stroke:url(#linearGradient8008);stroke-width:1;stroke-linecap:butt;stroke-linejoin:round;stroke-miterlimit:4;stroke-dasharray:none;stroke-opacity:1" id="path2262" d="M 18.5,18.5 L 18.5,5.5 L 29.5,5.5 L 29.5,18.5 L 42.5,18.5 L 42.5,29.5 L 29.5,29.5 L 29.5,42.5 L 18.5,42.5 L 18.5,29.5 L 5.5,29.5 L 5.5,18.5 L 18.5,18.5 z"/><path style="opacity:.5;fill:none;fill-opacity:1;fill-rule:evenodd;stroke:url(#linearGradient2785);stroke-width:1;stroke-linecap:butt;stroke-linejoin:round;stroke-miterlimit:4;stroke-dasharray:none;stroke-opacity:1" id="path2272" d="M 19.5,19.5 L 19.5,6.5 L 28.5,6.5 L 28.5,19.5 L 41.5,19.5 L 41.5,28.5 L 28.5,28.5 L 28.5,41.5 L 19.5,41.5 L 19.5,28.5 L 6.5,28.5 L 6.5,19.5 L 19.5,19.5 z"/></g></svg>