<svg xmlns="http://www.w3.org/2000/svg" xmlns:svg="http://www.w3.org/2000/svg" xmlns:xlink="http://www.w3.org/1999/xlink" id="svg2" width="48" height="48" version="1.0"><defs id="defs4"><filter id="filter10542" width="1.259" height="1.591" x="-.129" y="-.296"><feGaussianBlur id="feGaussianBlur10544" stdDeviation=".863"/></filter><linearGradient id="linearGradient3286"><stop id="stop3288" offset="0" style="stop-color:#459000;stop-opacity:1"/><stop id="stop3290" offset="1" style="stop-color:#204300;stop-opacity:1"/></linearGradient><linearGradient id="linearGradient11259"><stop id="stop11261" offset="0" style="stop-color:#fff;stop-opacity:1"/><stop id="stop11263" offset="1" style="stop-color:#fff;stop-opacity:0"/></linearGradient><linearGradient id="linearGradient2851"><stop style="stop-color:#73d216;stop-opacity:1" id="stop2853" offset="0"/><stop style="stop-color:#5ca911;stop-opacity:1" id="stop2855" offset="1"/></linearGradient><linearGradient id="linearGradient3149"><stop style="stop-color:#eeeeec;stop-opacity:1" id="stop3151" offset="0"/><stop style="stop-color:#eeeeec;stop-opacity:0" id="stop3153" offset="1"/></linearGradient><linearGradient id="linearGradient8691" x1="6.878" x2="12.233" y1="11.789" y2="27.778" gradientTransform="matrix(1.5072322,0,0,1.5071004,-3.5269942,-3.9816887)" gradientUnits="userSpaceOnUse" xlink:href="#linearGradient2851"/><linearGradient id="linearGradient8693" x1="15.893" x2="26.534" y1="15.214" y2="28.579" gradientTransform="matrix(1.5072322,0,0,1.5071004,-3.5269942,-3.9816887)" gradientUnits="userSpaceOnUse" xlink:href="#linearGradient3286"/><linearGradient id="linearGradient8695" x1="11.128" x2="30.341" y1="10.823" y2="31.325" gradientTransform="matrix(1.4354598,0,0,1.4354605,-2.2429752,-2.7210219)" gradientUnits="userSpaceOnUse" xlink:href="#linearGradient3149"/><radialGradient id="radialGradient8697" cx="11.736" cy="7.369" r="9.975" fx="11.801" fy="1.173" gradientTransform="matrix(1.023438,0,0,0.8870879,-0.2709505,0.7064648)" gradientUnits="userSpaceOnUse" xlink:href="#linearGradient11259"/></defs><metadata id="metadata7"/><g id="layer1"><rect id="rect6284" width="48" height="48" x="-1" y="-1" style="opacity:0;fill:#babdb6;fill-opacity:1;fill-rule:nonzero;stroke:none;stroke-width:2;marker:none;marker-start:none;marker-mid:none;marker-end:none;visibility:visible;display:inline;overflow:visible;enable-background:accumulate"/><path style="opacity:.75;fill:#2e3436;fill-opacity:1;fill-rule:evenodd;stroke:none;stroke-width:.99999917;stroke-miterlimit:4;stroke-opacity:1;display:inline;filter:url(#filter10542);enable-background:new" id="path10560" d="M 52.000003,144.5 C 52.000003,146.432 48.416002,148 44.000003,148 C 39.584003,148 36.000003,146.432 36.000003,144.5 C 36.000003,142.568 39.584003,141 44.000003,141 C 48.416002,141 52.000003,142.568 52.000003,144.5 z" transform="matrix(2.1000004,0,0,2.0998147,-67.912496,-266.22267)"/><path style="fill:url(#linearGradient8691);fill-opacity:1;fill-rule:evenodd;stroke:url(#linearGradient8693);stroke-width:.99999875;stroke-miterlimit:4;stroke-opacity:1;display:inline;enable-background:new" id="path10562" d="M 44.437479,22.50184 C 44.437479,34.09285 35.029482,43.49999 23.43749,43.49999 C 11.845495,43.49999 2.4374988,34.09285 2.4374988,22.50184 C 2.4374988,10.910858 11.845495,1.5036731 23.43749,1.5036731 C 35.029482,1.5036731 44.437479,10.910858 44.437479,22.50184 z"/><path style="opacity:.6;fill:url(#linearGradient8695);fill-opacity:1;fill-rule:evenodd;stroke:#fff;stroke-width:.99999881;stroke-miterlimit:4;stroke-opacity:1;display:inline;enable-background:new" id="path10564" d="M 43.4375,22.50366 C 43.4375,33.54367 34.477504,42.50367 23.437499,42.50367 C 12.397503,42.50367 3.4374998,33.54367 3.4374998,22.50366 C 3.4374998,11.463639 12.397503,2.5036721 23.437499,2.5036721 C 34.477504,2.5036721 43.4375,11.463639 43.4375,22.50366 z"/><path id="path11257" d="M 21.781414,10.983024 A 9.975256,9.975256 0 1 1 1.8309021,10.983024 A 9.975256,9.975256 0 1 1 21.781414,10.983024 z" transform="matrix(1.6929363,-0.9774173,0.9774173,1.6929363,-7.2230182,15.445035)" style="fill:url(#radialGradient8697);fill-opacity:1;stroke:none;stroke-width:.51155168;stroke-miterlimit:4;stroke-dasharray:none;stroke-opacity:1;display:inline;enable-background:new"/></g></svg>