<svg xmlns="http://www.w3.org/2000/svg" xmlns:svg="http://www.w3.org/2000/svg" xmlns:xlink="http://www.w3.org/1999/xlink" id="svg1331" width="48" height="48" version="1.0"><defs id="defs1333"><linearGradient id="linearGradient8648"><stop id="stop8650" offset="0" style="stop-color:#f57900;stop-opacity:1"/><stop id="stop8652" offset="1" style="stop-color:#833a00;stop-opacity:1"/></linearGradient><linearGradient id="linearGradient9995" x1="6.294" x2="8.533" y1="4.769" y2="16.167" gradientUnits="userSpaceOnUse" xlink:href="#linearGradient8648"/><linearGradient id="linearGradient8634"><stop id="stop8636" offset="0" style="stop-color:#fff;stop-opacity:1"/><stop id="stop8638" offset="1" style="stop-color:#fff;stop-opacity:0"/></linearGradient><linearGradient id="linearGradient9999" x1="-.615" x2="27.721" y1="-3.835" y2="26.762" gradientUnits="userSpaceOnUse" xlink:href="#linearGradient8634"/><linearGradient id="linearGradient8658"><stop id="stop8660" offset="0" style="stop-color:#fff;stop-opacity:1"/><stop id="stop8662" offset="1" style="stop-color:#fff;stop-opacity:0"/></linearGradient><linearGradient id="linearGradient9997" x1="-.615" x2="9.871" y1="1.038" y2="8" gradientUnits="userSpaceOnUse" xlink:href="#linearGradient8658"/><linearGradient id="linearGradient11259"><stop id="stop11261" offset="0" style="stop-color:#fff;stop-opacity:1"/><stop id="stop11263" offset="1" style="stop-color:#fff;stop-opacity:0"/></linearGradient><radialGradient id="radialGradient10001" cx="11.736" cy="7.369" r="9.975" fx="11.801" fy="1.173" gradientTransform="matrix(1.023438,0,0,0.8870879,-0.2709505,0.7064648)" gradientUnits="userSpaceOnUse" xlink:href="#linearGradient11259"/><filter id="filter10542" width="1.259" height="1.591" x="-.129" y="-.296"><feGaussianBlur id="feGaussianBlur10544" stdDeviation=".863"/></filter></defs><metadata id="metadata1336"/><g id="layer1"><rect id="rect9480" width="48" height="48" x="-1" y="-1" style="opacity:0;fill:#babdb6;fill-opacity:1;fill-rule:nonzero;stroke:none;stroke-width:2;marker:none;marker-start:none;marker-mid:none;marker-end:none;visibility:visible;display:inline;overflow:visible;enable-background:accumulate"/><path style="opacity:.75;fill:#2e3436;fill-opacity:1;fill-rule:evenodd;stroke:none;stroke-width:.99999917;stroke-miterlimit:4;stroke-opacity:1;display:inline;filter:url(#filter10542);enable-background:new" id="path9494" d="M 52.000003,144.5 C 52.000003,146.432 48.416002,148 44.000003,148 C 39.584003,148 36.000003,146.432 36.000003,144.5 C 36.000003,142.568 39.584003,141 44.000003,141 C 48.416002,141 52.000003,142.568 52.000003,144.5 z" transform="matrix(2.1000004,0,0,2.0998147,-67.912502,-266.22267)"/><path style="fill:#edd400;fill-opacity:1;fill-rule:nonzero;stroke:url(#linearGradient9995);stroke-width:.38095239;stroke-linecap:square;stroke-linejoin:miter;marker:none;marker-start:none;marker-mid:none;marker-end:none;stroke-miterlimit:4;stroke-dasharray:none;stroke-dashoffset:0;stroke-opacity:1;visibility:visible;display:inline;overflow:visible;enable-background:accumulate" id="path9978" d="M 16,8 A 8,8 0 1 1 0,8 A 8,8 0 1 1 16,8 z" transform="matrix(2.625,0,0,2.625,2.5099784,1.5000005)"/><path style="fill:url(#linearGradient9997);fill-opacity:1;fill-rule:nonzero;stroke:url(#linearGradient9999);stroke-width:.40002236;stroke-linecap:square;stroke-linejoin:miter;marker:none;marker-start:none;marker-mid:none;marker-end:none;stroke-miterlimit:4;stroke-dasharray:none;stroke-dashoffset:0;stroke-opacity:1;visibility:visible;display:inline;overflow:visible;enable-background:accumulate" id="path9980" d="M 16,8 A 8,8 0 1 1 0,8 A 8,8 0 1 1 16,8 z" transform="matrix(2.5,0,0,2.499721,3.5099784,2.5044645)"/><path id="path9982" d="M 21.781414,10.983024 A 9.975256,9.975256 0 1 1 1.8309021,10.983024 A 9.975256,9.975256 0 1 1 21.781414,10.983024 z" transform="matrix(1.6928542,-0.97737,0.9773697,1.6928539,-7.2106016,15.44633)" style="fill:url(#radialGradient10001);fill-opacity:1;stroke:none;stroke-width:.51155168;stroke-miterlimit:4;stroke-dasharray:none;stroke-opacity:1;display:inline;enable-background:new"/></g></svg>