<svg xmlns="http://www.w3.org/2000/svg" xmlns:svg="http://www.w3.org/2000/svg" xmlns:xlink="http://www.w3.org/1999/xlink" id="svg1331" width="48" height="48" version="1.0"><defs id="defs1333"><filter id="filter10542" width="1.259" height="1.591" x="-.129" y="-.296"><feGaussianBlur id="feGaussianBlur10544" stdDeviation=".863"/></filter><linearGradient id="linearGradient11892"><stop style="stop-color:#c00;stop-opacity:1" id="stop11894" offset="0"/><stop style="stop-color:#7b0000;stop-opacity:1" id="stop11896" offset="1"/></linearGradient><linearGradient id="linearGradient11995" x1="6.545" x2="21.422" y1="5.836" y2="26.886" gradientUnits="userSpaceOnUse" xlink:href="#linearGradient11892"/><linearGradient id="linearGradient12007" x1="-1.542" x2="63.127" y1="-6.283" y2="59.184" gradientTransform="matrix(0,1.4828351,-1.4770883,0,47.11416,-1.277843)" gradientUnits="userSpaceOnUse" xlink:href="#linearGradient2239"/><linearGradient id="linearGradient11907"><stop style="stop-color:#fff;stop-opacity:1" id="stop11909" offset="0"/><stop style="stop-color:#fff;stop-opacity:0" id="stop11911" offset="1"/></linearGradient><linearGradient id="linearGradient12005" x1="166.974" x2="181" y1="203.038" y2="203.038" gradientTransform="matrix(0,3.0708021,-3.0589515,0,644.58401,-511.77979)" gradientUnits="userSpaceOnUse" xlink:href="#linearGradient11907"/><linearGradient id="linearGradient11259"><stop id="stop11261" offset="0" style="stop-color:#fff;stop-opacity:1"/><stop id="stop11263" offset="1" style="stop-color:#fff;stop-opacity:0"/></linearGradient><radialGradient id="radialGradient9821" cx="11.736" cy="7.369" r="9.975" fx="11.801" fy="1.173" gradientTransform="matrix(1.023438,0,0,0.8870879,-0.2709505,0.7064648)" gradientUnits="userSpaceOnUse" xlink:href="#linearGradient11259"/><linearGradient id="linearGradient2239"><stop style="stop-color:#fff;stop-opacity:1" id="stop2241" offset="0"/><stop style="stop-color:#fff;stop-opacity:0" id="stop2243" offset="1"/></linearGradient></defs><metadata id="metadata1336"/><g id="layer1"><rect id="rect11163" width="48" height="48" x="-1" y="-1" style="opacity:0;fill:#babdb6;fill-opacity:1;fill-rule:nonzero;stroke:none;stroke-width:2;marker:none;marker-start:none;marker-mid:none;marker-end:none;visibility:visible;display:inline;overflow:visible;enable-background:accumulate"/><path style="opacity:.75;fill:#2e3436;fill-opacity:1;fill-rule:evenodd;stroke:none;stroke-width:.99999917;stroke-miterlimit:4;stroke-opacity:1;display:inline;filter:url(#filter10542);enable-background:new" id="path11195" d="M 52.000003,144.5 C 52.000003,146.432 48.416002,148 44.000003,148 C 39.584003,148 36.000003,146.432 36.000003,144.5 C 36.000003,142.568 39.584003,141 44.000003,141 C 48.416002,141 52.000003,142.568 52.000003,144.5 z" transform="matrix(2.1000004,0,0,2.0998147,-67.912496,-266.22267)"/><path style="fill:#f13d3d;fill-opacity:1;fill-rule:evenodd;stroke:url(#linearGradient11995);stroke-width:.68314916px;stroke-linecap:butt;stroke-linejoin:miter;marker:none;marker-start:none;marker-mid:none;marker-end:none;stroke-miterlimit:4;stroke-dasharray:none;stroke-dashoffset:0;stroke-opacity:1;visibility:visible;display:inline;overflow:visible;enable-background:new" id="path11989" d="M 29.935402,16.57217 A 14.345175,14.345175 0 1 1 1.2450523,16.57217 A 14.345175,14.345175 0 1 1 29.935402,16.57217 z" transform="matrix(1.4637107,0,0,1.4639069,0.6803502,-1.760114)"/><path style="opacity:.75;fill:url(#linearGradient12005);fill-opacity:1;fill-rule:evenodd;stroke:url(#linearGradient12007);stroke-width:1.00000012px;stroke-linecap:butt;stroke-linejoin:miter;marker:none;marker-start:none;marker-mid:none;marker-end:none;stroke-miterlimit:4;stroke-dashoffset:0;stroke-opacity:1;visibility:visible;display:inline;overflow:visible;enable-background:new" id="path11991" d="M 23.50004,42.5 C 12.46002,42.5 3.5000002,33.54002 3.5000002,22.5 C 3.5000002,11.459973 12.46002,2.5000029 23.50004,2.5000029 C 34.54002,2.5000029 43.49999,11.459973 43.49999,22.5 C 43.49999,33.54002 34.54002,42.5 23.50004,42.5 L 23.50004,42.5 z"/><path id="path9813" d="M 21.781414,10.983024 A 9.975256,9.975256 0 1 1 1.8309021,10.983024 A 9.975256,9.975256 0 1 1 21.781414,10.983024 z" transform="matrix(1.6929363,-0.9774173,0.9774173,1.6929363,-7.2230198,15.445035)" style="fill:url(#radialGradient9821);fill-opacity:1;stroke:none;stroke-width:.51155168;stroke-miterlimit:4;stroke-dasharray:none;stroke-opacity:1;display:inline;enable-background:new"/></g></svg>