<svg xmlns="http://www.w3.org/2000/svg" xmlns:svg="http://www.w3.org/2000/svg" xmlns:xlink="http://www.w3.org/1999/xlink" id="svg1" x="0" y="0" version="1.0" viewBox="0 0 60 60"><defs id="defs12"><linearGradient id="linearGradient2378"><stop style="stop-color:#fff;stop-opacity:1" id="stop2380" offset="0"/><stop id="stop4146" offset=".25" style="stop-color:#fefede;stop-opacity:.91836733"/><stop id="stop2386" offset=".5" style="stop-color:#f5f328;stop-opacity:1"/><stop style="stop-color:#f5f32d;stop-opacity:.12234043" id="stop2382" offset="1"/></linearGradient><linearGradient id="linearGradient3559" x1="35.198" x2="33.666" y1="46.094" y2="50.416" gradientUnits="userSpaceOnUse" xlink:href="#linearGradient3331"/><linearGradient id="linearGradient3331"><stop id="stop3333" offset="0" style="stop-color:#d3d7cf;stop-opacity:1"/><stop id="stop3335" offset="1" style="stop-color:#d3d7cf;stop-opacity:0"/></linearGradient><linearGradient id="linearGradient3561" x1="38.046" x2="33.233" y1="44.886" y2="51.47" gradientUnits="userSpaceOnUse" xlink:href="#linearGradient3355"/><linearGradient id="linearGradient3355"><stop style="stop-color:#6f716c;stop-opacity:1" id="stop3357" offset="0"/><stop style="stop-color:#888a85;stop-opacity:0" id="stop3359" offset="1"/></linearGradient><linearGradient id="linearGradient3563" x1="33.358" x2="33.358" y1="37.386" y2="52.806" gradientUnits="userSpaceOnUse" xlink:href="#linearGradient3315"/><linearGradient id="linearGradient3315"><stop id="stop3317" offset="0" style="stop-color:white;stop-opacity:1"/><stop id="stop3319" offset="1" style="stop-color:white;stop-opacity:0"/></linearGradient><linearGradient id="linearGradient3565" x1="36.202" x2="30.035" y1="37.667" y2="41.842" gradientUnits="userSpaceOnUse" xlink:href="#linearGradient3307"/><linearGradient id="linearGradient3307"><stop id="stop3309" offset="0" style="stop-color:#888a85;stop-opacity:1"/><stop id="stop3311" offset="1" style="stop-color:#888a85;stop-opacity:0"/></linearGradient></defs><rect style="fill:#ccc;fill-rule:evenodd" id="rect831" width="45.717" height="36.157" x="7.264" y="12.016" rx="2.376"/><rect style="fill:none;stroke:#333;stroke-width:3.28466082;stroke-linecap:round;stroke-linejoin:round" id="rect837" width="45.717" height="36.157" x="7.264" y="12.016" rx="2.495"/><metadata id="metadata10"/><g style="fill:#d45500" id="g3341" transform="matrix(0.40257973,0,0,0.58152125,9.7420264,17.426237)"><path style="fill:#d45500" id="path3051" d="M 2.343,25.944 C 0.938,25.006 0,23.133 0,21.492 0,19.852 0.703,18.33 2.46,17.51 l -0.117,0 C 10.66,12.59 22.258,6.03 29.99,1.461 l 0,10.895 c -3.046,1.757 -7.146,3.749 -17.455,9.255 l 0.117,0.116 c 5.506,2.461 11.832,6.209 17.338,9.489 l 0,11.012 L 2.343,25.944 Z"/><path style="fill:#d45500" id="path3053" d="m 97.657,17.744 c 1.404,0.938 2.343,2.812 2.343,4.452 0,1.64 -0.703,3.162 -2.461,3.982 l 0.118,0 C 89.34,31.098 77.741,37.658 70.01,42.227 l 0,-10.895 c 3.046,-1.756 7.146,-3.748 17.455,-9.254 L 87.348,21.962 C 81.843,19.501 75.516,15.753 70.01,12.473 l 0,-11.012 27.647,16.283 z"/><path style="fill:#d45500" id="path3055" d="m 46.401,43.688 -7.011,0 L 53.48,0 60.61,0 46.401,43.688 Z"/></g><g id="g3199" transform="matrix(1.4717598,0,0,1.3968762,-94.322345,-35.175694)"><path style="color:#000;display:inline;overflow:visible;visibility:visible;fill:url(#linearGradient3559);fill-opacity:1;fill-rule:nonzero;stroke:url(#linearGradient3561);stroke-width:1;stroke-linecap:round;stroke-linejoin:round;stroke-miterlimit:4;stroke-dasharray:none;stroke-dashoffset:1.39999998;stroke-opacity:1;marker:none" id="path3193" d="m 32.5,24.1875 c -2.36285,1.124659 -4,3.522947 -4,6.3125 0,2.789555 1.637147,5.187838 4,6.3125 l 0,18.537596 6.03125,0 0,-18.537596 C 40.880361,35.682677 42.5,33.279516 42.5,30.5 c 0,-2.779514 -1.619643,-5.18268 -3.96875,-6.3125 l 0,6.3125 -3.015625,1 -3.015625,-1 0,-6.3125 z" transform="matrix(0.707107,-0.707107,0.707107,0.707107,44.01958,36.46818)"/><path style="color:#000;display:inline;overflow:visible;visibility:visible;fill:none;stroke:url(#linearGradient3563);stroke-width:1;stroke-linecap:round;stroke-linejoin:miter;stroke-miterlimit:4;stroke-dashoffset:1.39999998;stroke-opacity:1;marker:none" id="path3195" d="m 31.5,26.34375 c -1.140863,1.088316 -2,2.448306 -2,4.15625 0,2.400502 1.409032,4.440748 3.4375,5.40625 0.347345,0.167478 0.566561,0.520659 0.5625,0.90625 l 0,18.929712 4.03125,0 0,-18.929712 c -0.0041,-0.385591 0.215155,-0.738772 0.5625,-0.90625 C 40.107408,34.937766 41.5,32.893233 41.5,30.5 c 0,-1.697797 -0.84276,-3.066152 -1.96875,-4.15625 l 0,4.15625 c -0.0036,0.42786 -0.280514,0.805441 -0.6875,0.9375 l -3.03125,1 c -0.20292,0.06717 -0.42208,0.06717 -0.625,0 l -3,-1 C 31.780514,31.305441 31.503622,30.92786 31.5,30.5 l 0,-4.15625 z" transform="matrix(0.707107,-0.707107,0.707107,0.707107,44.01958,36.46818)"/><rect style="color:#000;display:inline;overflow:visible;visibility:visible;opacity:.4;fill:none;stroke:url(#linearGradient3565);stroke-width:.99999976;stroke-linecap:round;stroke-linejoin:miter;stroke-miterlimit:4;stroke-dasharray:none;stroke-dashoffset:1.39999998;stroke-opacity:1;marker:none" id="rect3197" width="2" height="15" x="34.5" y="37.5" rx="1" ry="1" transform="matrix(0.707107,-0.707107,0.707107,0.707107,44.01958,36.46818)"/></g></svg>