<svg xmlns="http://www.w3.org/2000/svg" xmlns:svg="http://www.w3.org/2000/svg" xmlns:xlink="http://www.w3.org/1999/xlink" id="svg1" x="0" y="0" version="1.0" viewBox="0 0 60 60"><defs id="defs12"><linearGradient id="linearGradient2378"><stop style="stop-color:#fff;stop-opacity:1" id="stop2380" offset="0"/><stop id="stop4146" offset=".25" style="stop-color:#fefede;stop-opacity:.91836733"/><stop id="stop2386" offset=".5" style="stop-color:#f5f328;stop-opacity:1"/><stop style="stop-color:#f5f32d;stop-opacity:.12234043" id="stop2382" offset="1"/></linearGradient><radialGradient id="radialGradient3722" cx="38.659" cy="9.341" r="8.342" fx="38.659" fy="9.341" gradientUnits="userSpaceOnUse" xlink:href="#linearGradient2378"/></defs><rect style="fill:#ccc;fill-rule:evenodd" id="rect831" width="45.717" height="36.157" x="7.264" y="12.016" rx="2.376"/><rect style="fill:none;stroke:#333;stroke-width:3.28466082;stroke-linecap:round;stroke-linejoin:round" id="rect837" width="45.717" height="36.157" x="7.264" y="12.016" rx="2.495"/><metadata id="metadata10"/><g style="fill:#d45500" id="g3341" transform="matrix(0.40257973,0,0,0.58152125,9.7420264,17.426237)"><path style="fill:#d45500" id="path3051" d="M 2.343,25.944 C 0.938,25.006 0,23.133 0,21.492 0,19.852 0.703,18.33 2.46,17.51 l -0.117,0 C 10.66,12.59 22.258,6.03 29.99,1.461 l 0,10.895 c -3.046,1.757 -7.146,3.749 -17.455,9.255 l 0.117,0.116 c 5.506,2.461 11.832,6.209 17.338,9.489 l 0,11.012 L 2.343,25.944 Z"/><path style="fill:#d45500" id="path3053" d="m 97.657,17.744 c 1.404,0.938 2.343,2.812 2.343,4.452 0,1.64 -0.703,3.162 -2.461,3.982 l 0.118,0 C 89.34,31.098 77.741,37.658 70.01,42.227 l 0,-10.895 c 3.046,-1.756 7.146,-3.748 17.455,-9.254 L 87.348,21.962 C 81.843,19.501 75.516,15.753 70.01,12.473 l 0,-11.012 27.647,16.283 z"/><path style="fill:#d45500" id="path3055" d="m 46.401,43.688 -7.011,0 L 53.48,0 60.61,0 46.401,43.688 Z"/></g><g id="g14103" transform="matrix(1.4499463,0,0,1.4487606,-10.253021,-4.3537384)"><circle id="path2388" cx="38.659" cy="9.341" r="8.342" transform="matrix(1.14985,0,0,1.14985,-7.595328,0.490895)" style="fill:url(#radialGradient3722);fill-opacity:1;fill-rule:evenodd;stroke:none"/><path id="path1345" d="m 44.520054,15.50279 c -0.507171,0.878446 -4.594703,-0.160823 -5.521351,0.251748 -0.926648,0.41257 -2.889414,4.145604 -3.88159,3.934711 -0.992177,-0.210894 -1.266891,-4.419519 -1.945618,-5.173323 -0.678728,-0.753803 -4.835582,-1.466933 -4.94161,-2.475719 -0.106028,-1.008786 3.811722,-2.5705906 4.318893,-3.4490369 0.507171,-0.8784463 -0.09914,-5.0522193 0.827507,-5.4647895 0.926648,-0.4125703 3.622664,2.8308064 4.614841,3.0417001 0.992176,0.2108936 4.77431,-1.6555099 5.453037,-0.9017066 0.678728,0.7538034 -1.572792,4.3201254 -1.466764,5.3289109 0.106027,1.008786 3.049826,4.029058 2.542655,4.907505 z" transform="matrix(0.674116,0.299577,-0.299577,0.674116,15.46413,-7.192469)" style="color:#000;display:inline;overflow:visible;visibility:visible;fill:#fff;fill-opacity:1;fill-rule:evenodd;stroke:none;stroke-width:.5;marker:none"/></g></svg>