<svg xmlns="http://www.w3.org/2000/svg" xmlns:svg="http://www.w3.org/2000/svg" id="svg2" width="74.9" height="74.9" version="1.1"><metadata id="metadata12"/><g id="g3452" transform="matrix(0.78373295,0,0,0.82492948,7.904133,4.377478)"><path style="fill:#dbe2e3" id="path6" d="m 52.771904,29.883194 c -0.837045,-2.568427 -2.44138,-7.406625 -11.09084,-7.406625 -5.022267,0 -12.416161,2.867082 -12.416161,14.992443 0,7.705281 3.557441,14.63406 12.416161,14.63406 5.789558,0 9.835272,-2.807351 11.09084,-8.062173 l 10.463055,0 c -2.09261,9.318014 -9.20749,15.828678 -21.763157,15.828678 -13.322958,0 -22.879216,-7.705281 -22.879216,-22.518532 0,-14.992445 10.114287,-22.637995 23.018724,-22.637995 14.997047,0 21.065618,8.840167 21.623649,15.171637 l -10.463055,0 0,-0.0014 z"/><path style="fill:#00112b" id="path6-1" d="m 49.116607,29.814763 c -0.837045,-2.568427 -2.44138,-7.406625 -11.09084,-7.406625 -5.022267,0 -12.416161,2.867082 -12.416161,14.992443 0,7.705281 3.557441,14.63406 12.416161,14.63406 5.789558,0 9.835272,-2.807351 11.09084,-8.062173 l 10.463055,0 c -2.09261,9.318014 -9.20749,15.828678 -21.763157,15.828678 -13.322958,0 -22.879217,-7.705281 -22.879217,-22.518532 0,-14.992445 10.114288,-22.637995 23.018725,-22.637995 14.997047,0 21.065618,8.840167 21.623649,15.171637 l -10.463055,0 0,-0.0014 z"/><path style="fill:#06f" id="path6-1-3" d="m 43.116608,29.719 c -0.837045,-2.568427 -2.44138,-7.406625 -11.09084,-7.406625 -5.022267,0 -12.416161,2.867082 -12.416161,14.992443 0,7.705281 3.557441,14.63406 12.416161,14.63406 5.789558,0 9.835272,-2.807351 11.09084,-8.062173 l 10.463055,0 c -2.09261,9.318014 -9.20749,15.828678 -21.763157,15.828678 -13.322958,0 -22.8792172,-7.705281 -22.8792172,-22.518532 0,-14.992445 10.1142882,-22.637995 23.0187252,-22.637995 14.997047,0 21.065618,8.840167 21.623649,15.171637 l -10.463055,0 0,-0.0014 z"/></g></svg>