<svg xmlns="http://www.w3.org/2000/svg" xmlns:svg="http://www.w3.org/2000/svg" id="svg79606" width="100%" height="100%" version="1.0" viewBox="0 0 48 48"><defs id="defs79608"><radialGradient id="radialGradient3564" cx="21.762" cy="23.071" r="15.571" gradientTransform="matrix(0.97728,3.5549e-8,0,0.65138,-0.79443,15.829)" gradientUnits="userSpaceOnUse"><stop id="stop3560" offset="0"/><stop id="stop3562" offset="1" stop-opacity="0"/></radialGradient><linearGradient id="linearGradient5789" x1="23.506" x2="20.605" y1="5.775" y2="29.859" gradientUnits="userSpaceOnUse"><stop id="stop5785" offset="0" stop-color="#d3d7cf"/><stop id="stop5791" offset=".5" stop-color="#f5f5f5"/><stop id="stop5787" offset="1" stop-color="#bebebe"/></linearGradient></defs><g id="layer1" transform="matrix(1.2827631,0,0,1.2244685,-7.4708391,-6.0121517)"><g id="g3902" style="fill:none;stroke-linecap:round;stroke-linejoin:round"><path id="path7057" d="m 21.326,9.3279 -10.877,18.614 c -1.9223,3.292 -0.7714,7.539 2.559,9.44 l 2.094,1.197 c 3.332,1.901 7.63,0.763 9.554,-2.529 l 11.756,-20.121 c 1.923,-3.293 1.213,-7.2884 -1.577,-8.8813 -2.79,-1.5928 -6.647,-0.2024 -8.57,3.0903 l -8.155,13.962 c -1.924,3.291 -2.131,6.771 -0.462,7.737 1.669,0.962 4.609,-0.943 6.532,-4.234 l 3.962,-6.783" transform="translate(0.49405,1.0562)" style="stroke:#888a85;stroke-width:3"/><path id="path7053" d="m 21.326,9.2155 -10.877,18.614 c -1.9223,3.291 -0.7714,7.539 2.559,9.44 l 2.094,1.197 c 3.332,1.901 7.63,0.762 9.554,-2.529 l 11.756,-20.122 c 1.923,-3.292 1.213,-7.2878 -1.577,-8.8806 -2.79,-1.5928 -6.647,-0.2025 -8.57,3.0896 l -8.155,13.962 c -1.924,3.292 -2.131,6.772 -0.462,7.737 1.669,0.963 4.609,-0.942 6.532,-4.234 l 3.962,-6.783" transform="translate(0.49405,1.1685)" style="stroke:url(#linearGradient5789)"/></g><path id="path3556" d="m 38.143,30.857 a 15.5715,10.143326 0 1 1 -31.143,0 15.5715,10.143326 0 1 1 31.143,0 z" transform="matrix(1.3165,0,0,0.24648,-2.2156,33.894)" style="opacity:.25;color:#000;fill:url(#radialGradient3564)"/></g><metadata id="metadata16"/></svg>