<svg xmlns="http://www.w3.org/2000/svg" xmlns:svg="http://www.w3.org/2000/svg" id="Layer_1" width="489.309" height="494.244" x="0" y="0" enable-background="new 0 0 489.309 494.244" version="1.1" viewBox="0 0 489.309 494.244" xml:space="preserve"><metadata id="metadata43"/><rect id="rect5" width="98.485" height="36.507" x="14.571" y="183.514"/><rect id="rect7" width="98.485" height="36.507" x="14.571" y="280.211"/><rect id="rect9" width="98.485" height="36.507" x="136.251" y="183.514"/><rect id="rect11" width="98.485" height="36.507" x="136.251" y="280.211"/><path id="path13" d="m 125.35931,183.5144 c 0,-3.05643 -0.25756,-5.97996 -0.70612,-8.7088 -0.45,2.72884 -0.70612,5.65237 -0.70612,8.7088 v 36.50715 c 0,3.05642 0.25756,5.97996 0.70612,8.70883 0.45,-2.72887 0.70612,-5.65241 0.70612,-8.70883 V 183.5144 z" style="fill:#b3b3b3"/><rect id="rect15" width="98.485" height="36.507" x="257.932" y="280.211"/><rect id="rect17" width="98.485" height="36.507" x="257.932" y="183.514"/><path id="path19" d="m 247.04038,183.5144 c 0,-3.05643 -0.25756,-5.97996 -0.70612,-8.7088 -0.45,2.72884 -0.70612,5.65237 -0.70612,8.7088 v 36.50715 c 0,3.05642 0.25756,5.97996 0.70612,8.70883 0.45,-2.72887 0.70612,-5.65241 0.70612,-8.70883 V 183.5144 z" style="fill:#b3b3b3"/><rect id="rect21" width="98.485" height="36.507" x="379.613" y="280.211"/><rect id="rect23" width="98.485" height="36.507" x="379.613" y="183.514"/><path id="path25" d="m 368.72145,183.5144 c 0,-3.05643 -0.25756,-5.97996 -0.70612,-8.7088 -0.45,2.72884 -0.70612,5.65237 -0.70612,8.7088 v 36.50715 c 0,3.05642 0.25756,5.97996 0.70612,8.70883 0.45,-2.72887 0.70612,-5.65241 0.70612,-8.70883 V 183.5144 z" style="fill:#b3b3b3"/><path id="path27" d="m 478.09753,253.92966 h -98.48478 c -5.3639,0 -9.9146,7.34285 -11.59887,17.57214 -1.68427,-10.22621 -6.23497,-17.57214 -11.59887,-17.57214 h -98.48477 c -5.36535,0 -9.91461,7.34285 -11.59887,17.57214 -1.68427,-10.22621 -6.23353,-17.57214 -11.59888,-17.57214 h -98.48188 c -5.36534,0 -9.9146,7.34285 -11.59887,17.57214 -1.68427,-10.22621 -6.23352,-17.57214 -11.59886,-17.57214 H 14.57099 C 7.774595,253.92966 2.266,265.6949 2.266,280.2106 v 36.50715 c 0,14.51263 5.508595,26.28097 12.30499,26.28097 h 98.48477 c 5.36535,0 9.91461,-7.34595 11.59887,-17.57215 1.68428,10.2262 6.23353,17.57215 11.59888,17.57215 h 98.48477 c 5.36534,0 9.9146,-7.34595 11.59887,-17.57215 1.68427,10.2262 6.23353,17.57215 11.59888,17.57215 h 98.48477 c 5.3639,0 9.9146,-7.34595 11.59887,-17.57215 1.68427,10.2262 6.23497,17.57215 11.59887,17.57215 h 98.48477 c 6.79495,0 12.305,-11.76834 12.305,-26.28097 V 280.2106 c -0.006,-14.5157 -5.51583,-26.28094 -12.31078,-26.28094 z M 14.57099,280.2106 h 98.48477 v 36.50715 H 14.57099 V 280.2106 z m 121.67962,0 h 98.48478 v 36.50715 H 136.25061 V 280.2106 z m 121.68107,0 h 98.48478 v 36.50715 H 257.93168 V 280.2106 z m 121.68107,0 h 98.48478 v 36.50715 H 379.61275 V 280.2106 z" style="fill:#b3b3b3"/><g id="g29" transform="matrix(1.446965,0,0,3.0904217,-6.8006824,-479.93733)"><path id="path31" d="m 90.359,214.68 c 0,-0.989 0.178,-1.935 0.488,-2.818 -1.164,-3.309 -4.308,-5.686 -8.016,-5.686 H 14.77 c -4.697,0 -8.504,3.807 -8.504,8.504 v 11.813 c 0,4.697 3.807,8.504 8.504,8.504 h 68.063 c 3.708,0 6.852,-2.376 8.016,-5.686 -0.311,-0.883 -0.488,-1.829 -0.488,-2.818 V 214.68 z m -75.589,0 h 68.063 v 11.813 H 14.77 V 214.68 z" style="fill:#b3b3b3"/><path id="path33" d="m 174.453,214.68 c 0,-0.989 0.178,-1.935 0.488,-2.818 -1.164,-3.309 -4.308,-5.686 -8.016,-5.686 H 98.863 c -3.708,0 -6.852,2.376 -8.016,5.686 0.311,0.883 0.488,1.829 0.488,2.818 v 11.813 c 0,0.989 -0.178,1.935 -0.488,2.818 1.164,3.309 4.308,5.686 8.016,5.686 h 68.063 c 3.708,0 6.852,-2.376 8.016,-5.686 -0.311,-0.883 -0.488,-1.829 -0.488,-2.818 V 214.68 z m -75.59,0 h 68.063 v 11.813 H 98.863 V 214.68 z" style="fill:#b3b3b3"/><path id="path35" d="m 258.547,214.68 c 0,-0.989 0.178,-1.935 0.488,-2.818 -1.164,-3.309 -4.309,-5.686 -8.016,-5.686 h -68.063 c -3.708,0 -6.852,2.376 -8.016,5.686 0.311,0.883 0.488,1.829 0.488,2.818 v 11.813 c 0,0.989 -0.178,1.935 -0.488,2.818 1.164,3.309 4.308,5.686 8.016,5.686 h 68.063 c 3.707,0 6.852,-2.376 8.016,-5.686 -0.311,-0.883 -0.488,-1.829 -0.488,-2.818 V 214.68 z m -75.59,0 h 68.063 v 11.813 H 182.957 V 214.68 z" style="fill:#b3b3b3"/><path id="path37" d="m 335.114,206.176 h -68.063 c -3.707,0 -6.852,2.376 -8.016,5.686 0.311,0.883 0.488,1.829 0.488,2.818 v 11.813 c 0,0.989 -0.178,1.935 -0.488,2.818 1.164,3.309 4.309,5.686 8.016,5.686 h 68.063 c 4.696,0 8.504,-3.807 8.504,-8.504 V 214.68 c 0,-4.697 -3.808,-8.504 -8.504,-8.504 z m -68.063,8.504 h 68.063 v 11.813 H 267.051 V 214.68 z" style="fill:#b3b3b3"/></g></svg>