<svg xmlns="http://www.w3.org/2000/svg" xmlns:svg="http://www.w3.org/2000/svg" xmlns:xlink="http://www.w3.org/1999/xlink" id="svg2839" width="48" height="48" version="1.0"><metadata id="metadata92"/><defs id="defs2841"><linearGradient id="linearGradient4168"><stop id="stop4170" offset="0" style="stop-color:#f8cd70;stop-opacity:1"/><stop id="stop4172" offset="1" style="stop-color:#cc9110;stop-opacity:1"/></linearGradient><linearGradient id="linearGradient4222"><stop id="stop4224" offset="0" style="stop-color:white;stop-opacity:1"/><stop id="stop4226" offset="1" style="stop-color:white;stop-opacity:0"/></linearGradient><linearGradient id="linearGradient2867" x1="8.527" x2="57.411" y1="33.332" y2="33.332" gradientTransform="matrix(0,0.798445,-0.7913078,0,44.889795,-0.6111931)" gradientUnits="userSpaceOnUse" xlink:href="#linearGradient4222"/><linearGradient id="linearGradient2870" x1="28.671" x2="1.31" y1="23.891" y2="23.891" gradientTransform="matrix(0,-0.6884294,-0.6854408,0,40.375844,40.770525)" gradientUnits="userSpaceOnUse" xlink:href="#linearGradient4168"/><linearGradient id="linearGradient6310-8"><stop id="stop6312-6" offset="0" style="stop-color:white;stop-opacity:1"/><stop id="stop6314-6" offset="1" style="stop-color:white;stop-opacity:0"/></linearGradient><linearGradient id="linearGradient3484-3"><stop id="stop3486-3" offset="0" style="stop-color:#969696;stop-opacity:1"/><stop id="stop3488-7" offset="1" style="stop-color:#b4b4b4;stop-opacity:1"/></linearGradient><linearGradient id="linearGradient7056-9"><stop id="stop7064-0" offset="0" style="stop-color:#e6e6e6;stop-opacity:1"/><stop id="stop7060-3" offset="1" style="stop-color:#c8c8c8;stop-opacity:1"/></linearGradient><linearGradient id="linearGradient4236"><stop id="stop4238" offset="0" style="stop-color:#eee;stop-opacity:1"/><stop id="stop4240" offset="1" style="stop-color:#eee;stop-opacity:0"/></linearGradient><linearGradient id="linearGradient7609"><stop id="stop7611" offset="0" style="stop-color:white;stop-opacity:1"/><stop id="stop7677" offset=".47" style="stop-color:#e7e7e7;stop-opacity:1"/><stop id="stop7613" offset=".672" style="stop-color:#8c8c8c;stop-opacity:1"/><stop id="stop7617" offset=".835" style="stop-color:#ddd;stop-opacity:1"/><stop id="stop7615" offset="1" style="stop-color:#a8a8a8;stop-opacity:1"/></linearGradient><linearGradient id="linearGradient2215-6"><stop id="stop2223-8" offset="0" style="stop-color:#7a7a7a;stop-opacity:1"/><stop id="stop2219-7" offset="1" style="stop-color:#474747;stop-opacity:1"/></linearGradient><linearGradient id="linearGradient5048-6"><stop id="stop5050-8" offset="0" style="stop-color:black;stop-opacity:0"/><stop id="stop5056-9" offset=".5" style="stop-color:black;stop-opacity:1"/><stop id="stop5052-0" offset="1" style="stop-color:black;stop-opacity:0"/></linearGradient><linearGradient id="linearGradient5060-0"><stop id="stop5062-4" offset="0" style="stop-color:black;stop-opacity:1"/><stop id="stop5064-7" offset="1" style="stop-color:black;stop-opacity:0"/></linearGradient><linearGradient id="linearGradient4035"><stop id="stop4037" offset="0" style="stop-color:#f5f5f5;stop-opacity:1"/><stop id="stop4039" offset=".47" style="stop-color:#e7e7e7;stop-opacity:1"/><stop id="stop4041" offset=".693" style="stop-color:#8c8c8c;stop-opacity:1"/><stop id="stop4043" offset=".835" style="stop-color:#ddd;stop-opacity:1"/><stop id="stop4045" offset="1" style="stop-color:#a8a8a8;stop-opacity:1"/></linearGradient><radialGradient id="radialGradient4241" cx="113.065" cy="97.588" r="2.563" fx="113.667" fy="98" gradientUnits="userSpaceOnUse"><stop id="stop4243" offset="0" style="stop-color:#eee;stop-opacity:1"/><stop id="stop4245" offset=".16" style="stop-color:#cecece;stop-opacity:1"/><stop id="stop4247" offset=".468" style="stop-color:#888;stop-opacity:1"/><stop id="stop4249" offset="1" style="stop-color:#555;stop-opacity:1"/></radialGradient><radialGradient id="radialGradient3256" cx="24" cy="42" r="21" fx="24" fy="42" gradientTransform="matrix(0.99999995,-1.0652117e-8,2.7812622e-8,0.35714279,1.0762331e-6,28.500003)" gradientUnits="userSpaceOnUse" xlink:href="#linearGradient6310-8"/><radialGradient id="radialGradient3259" cx="113.065" cy="97.588" r="2.563" fx="113.667" fy="98" gradientTransform="matrix(0.32948872,0,0,0.34974643,6.0549235,4.4938257)" gradientUnits="userSpaceOnUse" xlink:href="#radialGradient4241"/><radialGradient id="radialGradient3263" cx="127.317" cy="143.828" r="78.728" fx="127.317" fy="143.828" gradientTransform="matrix(0.19054222,-0.02505584,0.00619351,0.10073457,-7.4371744,8.4286866)" gradientUnits="userSpaceOnUse" xlink:href="#linearGradient4035"/><linearGradient id="linearGradient3266" x1="12.277" x2="12.222" y1="37.206" y2="33.759" gradientTransform="matrix(1.0212766,0,0,0.89887639,-0.02517836,12.978263)" gradientUnits="userSpaceOnUse" xlink:href="#linearGradient4236"/><linearGradient id="linearGradient3269" x1="7.063" x2="24.688" y1="35.281" y2="35.281" gradientTransform="matrix(1.0212766,0,0,0.89887639,0.78723995,11.786514)" gradientUnits="userSpaceOnUse" xlink:href="#linearGradient5060-0"/><radialGradient id="radialGradient3272" cx="113.065" cy="97.588" r="2.563" fx="113.667" fy="98" gradientTransform="matrix(0.22333209,0.03439303,-0.02300572,0.14938839,14.791441,-3.6318403)" gradientUnits="userSpaceOnUse" xlink:href="#radialGradient4241"/><radialGradient id="radialGradient3276" cx="113.065" cy="97.588" r="2.563" fx="113.667" fy="98" gradientTransform="matrix(0.22282769,-0.03752228,0.02509892,0.149051,-18.145918,4.5322804)" gradientUnits="userSpaceOnUse" xlink:href="#radialGradient4241"/><radialGradient id="radialGradient3280" cx="113.065" cy="97.588" r="2.563" fx="113.667" fy="98" gradientTransform="matrix(-0.32948872,0,0,0.34974643,41.963041,4.4938257)" gradientUnits="userSpaceOnUse" xlink:href="#radialGradient4241"/><radialGradient id="radialGradient3284" cx="142.622" cy="191.854" r="78.728" fx="142.622" fy="191.854" gradientTransform="matrix(0.18495239,0,0,-0.13074306,-3.1111723,50.048436)" gradientUnits="userSpaceOnUse" xlink:href="#linearGradient7609"/><radialGradient id="radialGradient3287" cx="141.747" cy="206.426" r="78.728" fx="141.747" fy="206.426" gradientTransform="matrix(0.35160878,-0.0050244,0.00260227,0.28909275,-27.02434,-21.217538)" gradientUnits="userSpaceOnUse" xlink:href="#linearGradient4035"/><radialGradient id="radialGradient3291" cx="11.734" cy="8.49" r="23.048" fx="11.734" fy="8.49" gradientTransform="matrix(1.3767077,0.69719425,-0.46810846,0.92434578,-0.0491565,1.0613726)" gradientUnits="userSpaceOnUse" xlink:href="#linearGradient7056-9"/><linearGradient id="linearGradient3293" x1="17.814" x2="18.073" y1="29.797" y2="10" gradientTransform="translate(0,2.9998535)" gradientUnits="userSpaceOnUse" xlink:href="#linearGradient3484-3"/><linearGradient id="linearGradient3297" x1="29.938" x2="30" y1="41" y2="50" gradientTransform="matrix(1.0017502,0,0,0.7596403,-5.0508975,8.9363745)" gradientUnits="userSpaceOnUse" xlink:href="#linearGradient2215-6"/><radialGradient id="radialGradient3300" cx="605.714" cy="486.648" r="117.143" fx="605.714" fy="486.648" gradientTransform="matrix(-0.04484747,0,0,0.02058824,32.61113,36.451372)" gradientUnits="userSpaceOnUse" xlink:href="#linearGradient5060-0"/><radialGradient id="radialGradient3303" cx="605.714" cy="486.648" r="117.143" fx="605.714" fy="486.648" gradientTransform="matrix(0.04484747,0,0,0.02058824,15.38888,36.451372)" gradientUnits="userSpaceOnUse" xlink:href="#linearGradient5060-0"/><linearGradient id="linearGradient3306" x1="302.857" x2="302.857" y1="366.648" y2="609.505" gradientTransform="matrix(0.07635654,0,0,0.02058824,-3.5974283,36.451372)" gradientUnits="userSpaceOnUse" xlink:href="#linearGradient5048-6"/><linearGradient id="linearGradient4928"><stop style="stop-color:#fce94f;stop-opacity:1" id="stop4930" offset="0"/><stop style="stop-color:#fce94f;stop-opacity:0" id="stop4932" offset="1"/></linearGradient><linearGradient id="linearGradient3269-1"><stop style="stop-color:#fecb81;stop-opacity:1" id="stop3271" offset="0"/><stop style="stop-color:#fcaf3e;stop-opacity:1" id="stop3273" offset="1"/></linearGradient><linearGradient id="linearGradient3306-8" x1="302.857" x2="302.857" y1="366.648" y2="609.505" gradientTransform="matrix(0.07635654,0,0,0.02058824,-3.5974283,34.451372)" gradientUnits="userSpaceOnUse" xlink:href="#linearGradient5048-6-4"/><radialGradient id="radialGradient3303-8" cx="605.714" cy="486.648" r="117.143" fx="605.714" fy="486.648" gradientTransform="matrix(0.04484747,0,0,0.02058824,15.38888,34.451372)" gradientUnits="userSpaceOnUse" xlink:href="#linearGradient5060-0-9"/><radialGradient id="radialGradient3300-7" cx="605.714" cy="486.648" r="117.143" fx="605.714" fy="486.648" gradientTransform="matrix(-0.04484747,0,0,0.02058824,32.61113,34.451372)" gradientUnits="userSpaceOnUse" xlink:href="#linearGradient5060-0-9"/><linearGradient id="linearGradient3297-3" x1="29.938" x2="30" y1="41" y2="50" gradientTransform="matrix(1.0017502,0,0,0.7596403,-5.0508975,6.9363745)" gradientUnits="userSpaceOnUse" xlink:href="#linearGradient2215-6-0"/><linearGradient id="linearGradient3293-0" x1="17.814" x2="18.073" y1="29.797" y2="10" gradientTransform="translate(0,0.9998535)" gradientUnits="userSpaceOnUse" xlink:href="#linearGradient3484-3-5"/><radialGradient id="radialGradient3291-1" cx="11.734" cy="8.49" r="23.048" fx="11.734" fy="8.49" gradientTransform="matrix(1.3767077,0.69719425,-0.46810846,0.92434578,-0.04915651,-0.9386274)" gradientUnits="userSpaceOnUse" xlink:href="#linearGradient7056-9-7"/><radialGradient id="radialGradient3287-5" cx="141.747" cy="206.426" r="78.728" fx="141.747" fy="206.426" gradientTransform="matrix(0.35160878,-0.0050244,0.00260227,0.28909275,-27.02434,-23.217538)" gradientUnits="userSpaceOnUse" xlink:href="#linearGradient4035-7"/><radialGradient id="radialGradient3284-4" cx="142.622" cy="191.854" r="78.728" fx="142.622" fy="191.854" gradientTransform="matrix(0.18495239,0,0,-0.13074306,-3.1111723,48.048436)" gradientUnits="userSpaceOnUse" xlink:href="#linearGradient7609-4"/><radialGradient id="radialGradient3280-9" cx="113.065" cy="97.588" r="2.563" fx="113.667" fy="98" gradientTransform="matrix(-0.32948872,0,0,0.34974643,41.963041,2.4938257)" gradientUnits="userSpaceOnUse" xlink:href="#radialGradient4241-7"/><radialGradient id="radialGradient3276-9" cx="113.065" cy="97.588" r="2.563" fx="113.667" fy="98" gradientTransform="matrix(0.22282769,-0.03752228,0.02509892,0.149051,-18.145918,2.5322804)" gradientUnits="userSpaceOnUse" xlink:href="#radialGradient4241-7"/><radialGradient id="radialGradient3272-0" cx="113.065" cy="97.588" r="2.563" fx="113.667" fy="98" gradientTransform="matrix(0.22333209,0.03439303,-0.02300572,0.14938839,14.791441,-5.6318403)" gradientUnits="userSpaceOnUse" xlink:href="#radialGradient4241-7"/><linearGradient id="linearGradient3269-9" x1="7.063" x2="24.688" y1="35.281" y2="35.281" gradientTransform="matrix(1.0212766,0,0,0.89887639,0.78723995,9.7865138)" gradientUnits="userSpaceOnUse" xlink:href="#linearGradient5060-0-9"/><linearGradient id="linearGradient3266-2" x1="12.277" x2="12.222" y1="37.206" y2="33.759" gradientTransform="matrix(1.0212766,0,0,0.89887639,-0.02517836,10.978263)" gradientUnits="userSpaceOnUse" xlink:href="#linearGradient4236-6"/><radialGradient id="radialGradient3263-0" cx="127.317" cy="143.828" r="78.728" fx="127.317" fy="143.828" gradientTransform="matrix(0.19054222,-0.02505584,0.00619351,0.10073457,-7.4371744,6.4286866)" gradientUnits="userSpaceOnUse" xlink:href="#linearGradient4035-7"/><radialGradient id="radialGradient3259-2" cx="113.065" cy="97.588" r="2.563" fx="113.667" fy="98" gradientTransform="matrix(0.32948872,0,0,0.34974643,6.0549235,2.4938257)" gradientUnits="userSpaceOnUse" xlink:href="#radialGradient4241-7"/><radialGradient id="radialGradient3256-5" cx="24" cy="42" r="21" fx="24" fy="42" gradientTransform="matrix(0.99999995,-1.0652117e-8,2.7812622e-8,0.35714279,1.0762331e-6,26.500003)" gradientUnits="userSpaceOnUse" xlink:href="#linearGradient6310-8-1"/><radialGradient id="radialGradient4241-7" cx="113.065" cy="97.588" r="2.563" fx="113.667" fy="98" gradientUnits="userSpaceOnUse"><stop style="stop-color:#eee;stop-opacity:1" id="stop4243-7" offset="0"/><stop style="stop-color:#cecece;stop-opacity:1" id="stop4245-2" offset=".16"/><stop style="stop-color:#888;stop-opacity:1" id="stop4247-6" offset=".468"/><stop style="stop-color:#555;stop-opacity:1" id="stop4249-4" offset="1"/></radialGradient><linearGradient id="linearGradient4035-7"><stop style="stop-color:#f5f5f5;stop-opacity:1" id="stop4037-0" offset="0"/><stop style="stop-color:#e7e7e7;stop-opacity:1" id="stop4039-1" offset=".47"/><stop style="stop-color:#8c8c8c;stop-opacity:1" id="stop4041-0" offset=".693"/><stop style="stop-color:#ddd;stop-opacity:1" id="stop4043-1" offset=".835"/><stop style="stop-color:#a8a8a8;stop-opacity:1" id="stop4045-3" offset="1"/></linearGradient><linearGradient id="linearGradient5060-0-9"><stop style="stop-color:black;stop-opacity:1" id="stop5062-4-6" offset="0"/><stop style="stop-color:black;stop-opacity:0" id="stop5064-7-0" offset="1"/></linearGradient><linearGradient id="linearGradient5048-6-4"><stop style="stop-color:black;stop-opacity:0" id="stop5050-8-6" offset="0"/><stop style="stop-color:black;stop-opacity:1" id="stop5056-9-2" offset=".5"/><stop style="stop-color:black;stop-opacity:0" id="stop5052-0-8" offset="1"/></linearGradient><linearGradient id="linearGradient2215-6-0"><stop style="stop-color:#7a7a7a;stop-opacity:1" id="stop2223-8-6" offset="0"/><stop style="stop-color:#474747;stop-opacity:1" id="stop2219-7-6" offset="1"/></linearGradient><linearGradient id="linearGradient7609-4"><stop style="stop-color:white;stop-opacity:1" id="stop7611-8" offset="0"/><stop style="stop-color:#e7e7e7;stop-opacity:1" id="stop7677-5" offset=".47"/><stop style="stop-color:#8c8c8c;stop-opacity:1" id="stop7613-8" offset=".672"/><stop style="stop-color:#ddd;stop-opacity:1" id="stop7617-2" offset=".835"/><stop style="stop-color:#a8a8a8;stop-opacity:1" id="stop7615-6" offset="1"/></linearGradient><linearGradient id="linearGradient4236-6"><stop style="stop-color:#eee;stop-opacity:1" id="stop4238-4" offset="0"/><stop style="stop-color:#eee;stop-opacity:0" id="stop4240-7" offset="1"/></linearGradient><linearGradient id="linearGradient7056-9-7"><stop style="stop-color:#e6e6e6;stop-opacity:1" id="stop7064-0-4" offset="0"/><stop style="stop-color:#c8c8c8;stop-opacity:1" id="stop7060-3-0" offset="1"/></linearGradient><linearGradient id="linearGradient3484-3-5"><stop style="stop-color:#969696;stop-opacity:1" id="stop3486-3-6" offset="0"/><stop style="stop-color:#b4b4b4;stop-opacity:1" id="stop3488-7-7" offset="1"/></linearGradient><linearGradient id="linearGradient6310-8-1"><stop style="stop-color:white;stop-opacity:1" id="stop6312-6-9" offset="0"/><stop style="stop-color:white;stop-opacity:0" id="stop6314-6-0" offset="1"/></linearGradient><linearGradient id="linearGradient2870-1" x1="28.671" x2="1.31" y1="23.891" y2="23.891" gradientTransform="matrix(0,-0.44836545,-0.37049712,0,106.44475,58.360756)" gradientUnits="userSpaceOnUse" xlink:href="#linearGradient4168-6"/><linearGradient id="linearGradient2867-3" x1="8.527" x2="57.411" y1="33.332" y2="33.332" gradientTransform="matrix(0,0.50057854,-0.36512519,0,107.29033,35.815137)" gradientUnits="userSpaceOnUse" xlink:href="#linearGradient4222-2"/><linearGradient id="linearGradient4222-2"><stop style="stop-color:white;stop-opacity:1" id="stop4224-0" offset="0"/><stop style="stop-color:white;stop-opacity:0" id="stop4226-7" offset="1"/></linearGradient><linearGradient id="linearGradient4168-6"><stop style="stop-color:#f8cd70;stop-opacity:1" id="stop4170-2" offset="0"/><stop style="stop-color:#cc9110;stop-opacity:1" id="stop4172-1" offset="1"/></linearGradient><linearGradient id="linearGradient3308-0" x1="-11.986" x2="-11.986" y1="13.123" y2="29.727" gradientTransform="translate(-14,-5)" gradientUnits="userSpaceOnUse" xlink:href="#linearGradient2065-5"/><radialGradient id="radialGradient3305-9" cx="-6.007" cy="32.837" r="9.906" fx="-6.007" fy="32.837" gradientTransform="matrix(1,-1.487184e-8,1.425535e-8,0.958546,-27.2842,-3.424027)" gradientUnits="userSpaceOnUse" xlink:href="#linearGradient4928-0"/><linearGradient id="linearGradient3302-9" x1="25.355" x2="25.355" y1="34.007" y2="32.409" gradientTransform="translate(-50,-5)" gradientUnits="userSpaceOnUse" xlink:href="#linearGradient4616-4"/><linearGradient id="linearGradient2065-5"><stop id="stop2067-6" offset="0" style="stop-color:#555753"/><stop id="stop2069-5" offset="1" style="stop-color:#fcaf3e"/></linearGradient><linearGradient id="linearGradient4928-0"><stop style="stop-color:#fce94f;stop-opacity:1" id="stop4930-8" offset="0"/><stop style="stop-color:#fce94f;stop-opacity:0" id="stop4932-3" offset="1"/></linearGradient><linearGradient id="linearGradient4616-4"><stop id="stop4618-1" offset="0" style="stop-color:#2e3436;stop-opacity:1"/><stop id="stop4620-5" offset="1" style="stop-color:#2e3436;stop-opacity:0"/></linearGradient><linearGradient id="linearGradient3269-5"><stop style="stop-color:#fecb81;stop-opacity:1" id="stop3271-9" offset="0"/><stop style="stop-color:#fcaf3e;stop-opacity:1" id="stop3273-3" offset="1"/></linearGradient></defs><rect id="rect2723" width="36.869" height="5" x="5.565" y="44" style="opacity:.3;fill:url(#linearGradient3306);fill-opacity:1;fill-rule:nonzero;stroke:none;stroke-width:.5;marker:none;visibility:visible;display:inline;overflow:visible"/><path id="path2725" d="m 42.41667,44.000174 c 0,0 0,4.999723 0,4.999723 C 44.7262,49.009311 48,47.879712 48,46.499715 48,45.119718 45.42274,44.000174 42.41667,44.000174 z" style="opacity:.3;fill:url(#radialGradient3303);fill-opacity:1;fill-rule:nonzero;stroke:none;stroke-width:.5;marker:none;visibility:visible;display:inline;overflow:visible"/><path id="path2727" d="m 5.58333,44.000174 c 0,0 0,4.999723 0,4.999723 C 3.2737899,49.009311 0,47.879712 0,46.499715 0,45.119718 2.5772699,44.000174 5.58333,44.000174 z" style="opacity:.3;fill:url(#radialGradient3300);fill-opacity:1;fill-rule:nonzero;stroke:none;stroke-width:1;marker:none;visibility:visible;display:inline;overflow:visible"/><path id="rect6431" d="m 1.4638537,40.464001 45.0720003,0 -0.901202,6.072 -43.1694186,0 -1.0013797,-6.072 z" style="fill:url(#linearGradient3297);fill-opacity:1;fill-rule:evenodd;stroke:#353537;stroke-width:.9279989;stroke-linecap:round;stroke-linejoin:round;stroke-miterlimit:4;stroke-opacity:1;stroke-dasharray:none;stroke-dashoffset:0;display:inline;enable-background:new"/><rect id="rect6381" width="45" height="1" x="1.5" y="40" style="fill:#d2d2d3;fill-opacity:1;fill-rule:evenodd;stroke:none;display:inline;enable-background:new"/><path id="path6345" d="M 46.55,40.601962 39.740367,14.827625 c -0.192553,-0.733973 -1.2012,-1.329879 -2.049166,-1.329879 l -27.617218,0 c -1.30274,0 -2.049257,0.198573 -2.323959,1.329879 L 1.45,40.576866" style="fill:url(#radialGradient3291);fill-opacity:1;fill-rule:nonzero;stroke:url(#linearGradient3293);stroke-width:.99578345;stroke-linecap:round;stroke-linejoin:round;stroke-miterlimit:4;stroke-opacity:1;stroke-dasharray:none;stroke-dashoffset:0;marker:none;visibility:visible;display:inline;overflow:visible;enable-background:accumulate"/><path id="path7046" d="M 45.500002,40.499854 2.5000001,40.475803" style="opacity:.4;fill:none;stroke:#fff;stroke-width:1;stroke-linecap:round;stroke-linejoin:miter;stroke-miterlimit:4;stroke-opacity:1;stroke-dasharray:none;stroke-dashoffset:0;marker:none;visibility:visible;display:inline;overflow:visible;enable-background:accumulate"/><path id="path9001" d="m 40.971397,29.373814 c -0.21768,-1.997975 -1.676509,-3.903122 -4.1004,-5.406472 C 36.822237,23.38948 36.200942,15.997153 36.200942,15.997153 36.153322,15.428888 35.429193,15 34.515926,15 l -5.731268,0 c -0.919834,0 -1.630882,0.434524 -1.654073,1.010704 -0.10517,2.603206 -3.312025,3.962376 -8.095624,5.198802 -1.67612,0.29034 -6.046005,1.655156 -7.048964,2.254183 -2.9524377,1.573605 -4.7132263,3.67147 -4.9572037,5.910125 -0.2219397,2.036069 0.8448261,4.073551 3.0038657,5.737168 C 13.192718,37.546027 18.414005,39 23.999896,39 29.585796,39 34.807072,37.546027 37.967531,35.110982 39.939434,33.591833 41,31.760327 41,29.903156 c 0,-0.17636 -0.01031,-0.352992 -0.02866,-0.529342 l 5.7e-5,0 z M 23.999896,37.99015 c -9.303498,0 -16.427483,-4.080325 -15.9120785,-8.810179 0.222328,-2.039173 1.8543618,-4.216036 4.5570215,-5.650539 0.506122,-0.381482 5.077073,-1.865367 6.716838,-2.126086 4.544655,-1.17209 8.700731,-2.693216 8.831026,-5.89884 0.0057,-0.153501 0.267557,-0.275107 0.591955,-0.275107 l 5.730502,0 c 0.33174,0 0.611698,0.127531 0.62484,0.284984 l 0.695941,8.281974 c 2.408816,1.395843 3.86841,3.479309 4.075655,5.383614 0.515781,4.729854 -6.608191,8.810179 -15.9117,8.810179 l 0,0 z" style="fill:url(#radialGradient3287);fill-opacity:1"/><path id="path9003" d="M 23.999769,33 C 20.634805,33 18.055218,31.732885 18.000846,30.052175 18.000418,30.034 18,30.016137 18,29.998273 18,29.390098 18.338098,28.811689 18.980563,28.321951 20.067367,27.494127 21.943772,27 24.000185,27 c 2.055997,0 3.932391,0.494127 5.019195,1.321951 0.661441,0.503521 1.000395,1.101987 0.979728,1.729907 -0.05524,1.68071 -2.634804,2.948137 -5.999339,2.948137 l 0,3e-6 z m 0,-5.059679 c -3.161777,0 -4.77259,1.255831 -4.734647,2.402312 0.03667,1.128624 2.156333,2.030394 4.734647,2.030394 2.578314,0 4.697955,-0.902088 4.734637,-2.030394 0.03749,-1.146798 -1.572872,-2.402312 -4.734637,-2.402312 l 0,0 z" style="fill:url(#radialGradient3284);fill-opacity:1;fill-rule:nonzero;stroke-width:1;stroke-linecap:butt;stroke-linejoin:miter;stroke-miterlimit:4;stroke-opacity:1;stroke-dasharray:none;stroke-dashoffset:0;marker:none;visibility:visible;display:inline;overflow:visible;enable-background:accumulate"/><path id="path9007" d="M 6.0158229,38.619284 C 5.9743063,39.214553 5.3525618,39.7 4.6276859,39.7 c -0.7245458,0 -1.2731445,-0.485447 -1.2247097,-1.080716 0.048106,-0.592121 0.6695217,-1.070225 1.3871481,-1.070225 0.7179564,2.81e-4 1.2665551,0.478104 1.2256986,1.070225 z" style="fill:#e1e1e1;fill-opacity:1"/><path id="path9009" d="m 5.5469595,38.200637 c 0.066228,0.07554 0.1420102,0.196558 0.1420102,0.357441 0,0.01155 -6.602e-4,0.02308 -0.00132,0.03533 -0.028667,0.410252 -0.5140028,0.756851 -1.0596361,0.756851 -0.3107079,0 -0.5947269,-0.113668 -0.7594717,-0.304629 -0.070839,-0.08149 -0.1515649,-0.216493 -0.1370672,-0.396263 0.033278,-0.406755 0.5179556,-0.750556 1.0589773,-0.750556 0.3084014,2.8e-4 0.5914315,0.112968 0.7565052,0.301831 l 2.6e-6,0 z" style="fill:url(#radialGradient3280);fill-opacity:1"/><path id="path9019" d="m 8.6135352,14.981804 c 0.070795,0.248957 0.526108,0.385035 1.0163294,0.302486 0.4899984,-0.08251 0.8261694,-0.351869 0.7506954,-0.600038 -0.07503,-0.246865 -0.5295895,-0.379851 -1.0149081,-0.298127 -0.4855218,0.08188 -0.8222397,0.347988 -0.7521167,0.595679 z" style="fill:#f0f0f0;fill-opacity:1"/><path id="path9021" d="m 8.9005762,14.749996 c -0.039367,0.03974 -0.081933,0.09994 -0.070388,0.168502 8.287e-4,0.0049 0.0021,0.0098 0.00343,0.0149 0.048828,0.171572 0.4019255,0.264011 0.7709282,0.201874 0.2101265,-0.03538 0.3940466,-0.116169 0.4917566,-0.216312 0.04206,-0.0428 0.08696,-0.109523 0.06426,-0.184484 -0.0517,-0.169557 -0.4041467,-0.260879 -0.7700306,-0.199267 -0.2085465,0.03524 -0.3918682,0.115496 -0.4899513,0.214782 l -1.8e-6,1e-6 z" style="fill:url(#radialGradient3276);fill-opacity:1"/><path id="path9025" d="m 36.912257,14.696563 c -0.01101,0.258593 0.37848,0.530843 0.869811,0.606508 0.491108,0.07563 0.894887,-0.07446 0.901213,-0.333771 0.0063,-0.257936 -0.383413,-0.527015 -0.869831,-0.601923 -0.486659,-0.07482 -0.889937,0.07201 -0.901193,0.329186 z" style="fill:#e1e1e1;fill-opacity:1"/><path id="path9027" d="m 37.257597,14.566686 c -0.04986,0.02535 -0.109185,0.06913 -0.119768,0.137852 -7.6e-4,0.0049 -0.0011,0.0099 -0.0014,0.01523 -0.0076,0.178225 0.298614,0.37693 0.668452,0.433884 0.210602,0.03243 0.410591,0.01353 0.534819,-0.05084 0.05338,-0.02741 0.116973,-0.07665 0.118971,-0.15495 0.0042,-0.177212 -0.301707,-0.374653 -0.668419,-0.431126 -0.209057,-0.03207 -0.408312,-0.01348 -0.532624,0.04996 l -2e-6,-1e-6 z" style="fill:url(#radialGradient3272);fill-opacity:1"/><path id="rect8993" d="m 7.5000002,40.999999 18.5000088,0 0,5.000001 -17.9999999,0 -0.5000089,-5.000001 z" style="fill:url(#linearGradient3269);fill-opacity:1;fill-rule:evenodd;stroke:none;stroke-width:2.40899992;marker:none;visibility:visible;display:inline;overflow:visible"/><path id="path8995" d="m 8.0000077,45.999996 c 0,0 -0.4000075,-3.605827 -0.4000075,-3.605827 1.8745811,2.857731 8.8730188,3.605827 13.6127708,3.605827 0,0 -13.2127633,0 -13.2127633,0 z" style="opacity:.81142853;fill:url(#linearGradient3266);fill-opacity:1;fill-rule:evenodd;stroke:none"/><path id="path9039" d="M 10.906579,15 10.803305,15.381009 9.2615551,21.051898 9,22 9.7639975,21.796205 22.758771,18.2519 l 0.04127,-0.01771 0.03442,-0.01771 c 0.688135,-0.354354 1.05583,-1.07045 1.142548,-1.727849 0.0434,-0.328702 0.03039,-0.650575 -0.08254,-0.948099 -0.106642,-0.280876 -0.384276,-0.530777 -0.674516,-0.522787 l 0,-0.01771 -0.04821,0 -11.955461,0 -0.30973,0 3.3e-5,10e-7 z m 0.439836,0.350376 11.976544,0 c 0.0056,0.04787 0.01906,0.07443 0.0067,0.165 -0.03757,0.285021 -0.199195,1.304699 -0.605242,1.527141 l -12.596058,3.437485 1.217592,-5.129624 3.91e-4,0 z" style="fill:url(#radialGradient3263);fill-opacity:1;fill-rule:nonzero;stroke:none;stroke-width:1;marker:none;visibility:visible;display:inline;overflow:visible;enable-background:accumulate"/><path id="path9091" d="M 42.002142,38.619284 C 42.043659,39.214553 42.665403,39.7 43.390279,39.7 c 0.724546,0 1.273145,-0.485447 1.22471,-1.080716 -0.04811,-0.592121 -0.669522,-1.070225 -1.387148,-1.070225 -0.717957,2.81e-4 -1.266555,0.478104 -1.225699,1.070225 z" style="fill:#e1e1e1;fill-opacity:1"/><path id="path9093" d="m 42.471006,38.200637 c -0.06623,0.07554 -0.142011,0.196558 -0.142011,0.357441 0,0.01155 6.6e-4,0.02308 0.0013,0.03533 0.02867,0.410252 0.514002,0.756851 1.059636,0.756851 0.310708,0 0.594727,-0.113668 0.759471,-0.304629 0.07084,-0.08149 0.151565,-0.216493 0.137068,-0.396263 -0.03328,-0.406755 -0.517956,-0.750556 -1.058978,-0.750556 -0.308401,2.8e-4 -0.591431,0.112968 -0.756505,0.301831 l -2e-6,0 z" style="fill:url(#radialGradient3259);fill-opacity:1"/><rect id="rect6300-3" width="42" height="5" x="3" y="41" style="opacity:.3;fill:url(#radialGradient3256);fill-opacity:1;stroke:none"/><g id="g3149" transform="matrix(1.512909,0,0,0.68325295,-132.36152,-0.96969602)"><path style="fill:url(#linearGradient2870-1);fill-opacity:1;fill-rule:nonzero;stroke:#bf8407;stroke-width:.58173108;stroke-linecap:round;stroke-linejoin:round;stroke-miterlimit:4;stroke-opacity:1;stroke-dasharray:none;stroke-dashoffset:0;marker:none;visibility:visible;display:inline;overflow:visible" id="path4348" d="m 104.89557,47.763967 -7.320697,9.775676 -7.284008,-9.775676 3.248425,0 0,-8.473102 8.10786,0 0,8.473102 3.24842,0 z"/><path style="opacity:.35400008;fill:none;stroke:url(#linearGradient2867-3);stroke-width:.52733946;stroke-linecap:butt;stroke-linejoin:miter;stroke-miterlimit:4;stroke-opacity:1;stroke-dasharray:none;stroke-dashoffset:0;marker:none;visibility:visible;display:inline;overflow:visible" id="path4360" d="m 102.82173,48.423685 -5.170368,7.836772 -5.244995,-7.836772 2.245765,0 0,-8.150244 5.998468,0 0,8.150244 2.17113,0 z"/></g><g id="layer1" transform="matrix(0.93059962,0,0,1.0011847,-63.142029,-14.107704)"><g id="g3311" transform="matrix(0.77709629,0,0,0.74412264,105.52955,12.767633)"><rect style="fill:#eeeeec;fill-opacity:1;stroke:#888a85;stroke-width:.99999988;stroke-linecap:round;stroke-linejoin:round;stroke-miterlimit:4;stroke-dasharray:none;stroke-dashoffset:0;stroke-opacity:1" id="rect2227" width="40.973" height="30" x="-46.473" y="3.5" rx="2.376" ry="2.422"/><rect style="fill:url(#linearGradient3308-0);fill-opacity:1;stroke:#888a85;stroke-width:.99999994;stroke-linecap:round;stroke-linejoin:round;stroke-miterlimit:4;stroke-dasharray:none;stroke-dashoffset:0;stroke-opacity:1" id="rect2229" width="35.027" height="24" x="-43.5" y="6.5" rx=".438" ry=".438"/><path style="color:#000;display:inline;overflow:visible;visibility:visible;fill:url(#radialGradient3305-9);fill-opacity:1;fill-rule:evenodd;stroke:none;stroke-width:1;marker:none" id="path2231" d="m -33.916211,17.551777 c -5.168779,0.327955 -9.281251,4.655188 -9.281251,9.90625 0,0.202785 0.01921,0.393975 0.03125,0.59375 l 19.750001,0 c 0.01204,-0.199775 0.03125,-0.390965 0.03125,-0.59375 0,-5.464521 -4.441729,-9.90625 -9.90625,-9.90625 -0.213458,0 -0.414887,-0.01333 -0.625,0 z"/><rect style="fill:url(#linearGradient3302-9);fill-opacity:1;stroke:none" id="rect2233" width="34" height="2" x="-43" y="28" rx="0" ry="0"/><path style="fill:#000;fill-opacity:1;fill-rule:evenodd;stroke:none" id="path2235" d="m -20.444416,28.972272 c 0,0 -0.555584,-3.083355 -0.555584,-4.972272 0.01541,-0.861699 7.786707,-7.574609 7.806757,-8.574524 L -15,17 -16.265165,13.558058 -12,14 l 2,-2 -2.265165,1.662913 -0.779029,-0.176777 L -14,10 l 0.486136,3.397748 -3.53033,-0.176777 1.104854,2.811961 L -19,13 l 3.237437,4.221464 c 8.5e-5,0.941528 -6.380874,6.689202 -6.37002,5.698133 L -24.779029,19.370019 -25,14.571429 -23,14 l 1.752155,-4.320621 -2.30972,3.993315 -1.803168,-0.0817 -4.036388,-3.409009 -5.542219,-2.121321 4.734835,2.602253 L -34,11 l 5,0 3,3 0.353553,5.181981 L -31,14 -28.748699,16.707107 -32,19 l 3.571429,-2 5.649542,7.116117 L -23,28.972272 l 2.555584,0 z"/><path id="path2237" d="m -33.632266,22.233668 c -2.820539,0.178961 -5.064664,2.540279 -5.064664,5.405719 0,0.110657 0.01048,0.214987 0.01705,0.324002 l 10.777333,0 c 0.0066,-0.109015 0.01705,-0.213345 0.01705,-0.324002 0,-2.981922 -2.423797,-5.405719 -5.405719,-5.405719 -0.116482,0 -0.226399,-0.0073 -0.341055,0 z" style="color:#000;display:inline;overflow:visible;visibility:visible;fill:#fef39e;fill-opacity:1;fill-rule:evenodd;stroke:none;stroke-width:1;marker:none"/><path style="color:#000;display:inline;overflow:visible;visibility:visible;fill:#fffbd7;fill-opacity:.55681817;fill-rule:evenodd;stroke:none;stroke-width:1;marker:none" id="path2239" d="m -33.551318,23.531973 c -2.151088,0.136486 -3.862573,1.937349 -3.862573,4.122681 0,0.08439 0.008,0.16396 0.013,0.2471 l 8.219349,0 c 0.005,-0.08314 0.01301,-0.162708 0.01301,-0.2471 0,-2.274167 -1.848512,-4.122681 -4.12268,-4.122681 -0.08884,0 -0.172663,-0.0055 -0.260107,0 z"/><rect style="fill:none;stroke:#fff;stroke-width:.99999994;stroke-linecap:round;stroke-linejoin:round;stroke-miterlimit:4;stroke-dasharray:none;stroke-dashoffset:0;stroke-opacity:1" id="rect2241" width="38.973" height="28" x="-45.473" y="4.5" rx="1.385" ry="1.385"/></g></g></svg>