<svg xmlns="http://www.w3.org/2000/svg" xmlns:svg="http://www.w3.org/2000/svg" xmlns:xlink="http://www.w3.org/1999/xlink" id="svg7373" width="48" height="48" version="1.1"><defs id="defs7375"><filter id="filter6328" width="1.17" height="1.827" x="-.085" y="-.414"><feGaussianBlur id="feGaussianBlur6330" stdDeviation=".425"/></filter><linearGradient id="linearGradient6057"><stop style="stop-color:#fff;stop-opacity:1" id="stop6059" offset="0"/><stop style="stop-color:#fff;stop-opacity:0" id="stop6061" offset="1"/></linearGradient><radialGradient id="radialGradient6071" cx="18.031" cy="6.281" r="3.182" fx="18.031" fy="6.281" gradientUnits="userSpaceOnUse" xlink:href="#linearGradient6057"/><filter id="filter5957" width="1.988" height="1.165" x="-.494" y="-.082"><feGaussianBlur id="feGaussianBlur5959" stdDeviation=".699"/></filter><linearGradient id="linearGradient12071"><stop id="stop12073" offset="0" style="stop-color:#fff;stop-opacity:1"/><stop id="stop12075" offset="1" style="stop-color:#fff;stop-opacity:0"/></linearGradient><linearGradient id="linearGradient1387" x1="21.942" x2="21.942" y1="21.551" y2="18.038" gradientTransform="matrix(0.9697914,0,0,0.951923,2.2265649,4.0339473)" gradientUnits="userSpaceOnUse" xlink:href="#linearGradient12071"/><filter id="filter5745"><feGaussianBlur id="feGaussianBlur5747" stdDeviation=".836"/></filter><linearGradient id="linearGradient6334" x1="32.128" x2="35.021" y1="13.789" y2="13.789" gradientTransform="translate(-19.532826,1.7437184)" gradientUnits="userSpaceOnUse" xlink:href="#linearGradient6227"/><filter id="filter6251" width="1.485" height="1.095" x="-.242" y="-.048"><feGaussianBlur id="feGaussianBlur6253" stdDeviation=".244"/></filter><linearGradient id="linearGradient6227"><stop style="stop-color:#000;stop-opacity:1" id="stop6229" offset="0"/><stop style="stop-color:#000;stop-opacity:0" id="stop6231" offset="1"/></linearGradient><linearGradient id="linearGradient6233" x1="35.005" x2="33.004" y1="14.85" y2="14.85" gradientTransform="translate(1.6824037,1.125)" gradientUnits="userSpaceOnUse" xlink:href="#linearGradient6227"/><linearGradient id="linearGradient10591"><stop id="stop10593" offset="0" style="stop-color:#cad0c6;stop-opacity:1"/><stop style="stop-color:#eaece9;stop-opacity:1" id="stop10599" offset=".5"/><stop id="stop10595" offset="1" style="stop-color:#c5cbc0;stop-opacity:1"/></linearGradient><linearGradient id="linearGradient1392" x1="10.651" x2="27.192" y1="2.914" y2="17.47" gradientTransform="translate(0,-1.926279)" gradientUnits="userSpaceOnUse" xlink:href="#linearGradient10591"/><filter id="filter6171" width="1.283" height="4.044" x="-.141" y="-1.522"><feGaussianBlur id="feGaussianBlur6173" stdDeviation="1.189"/></filter><linearGradient id="linearGradient6089"><stop style="stop-color:#000;stop-opacity:1" id="stop6091" offset="0"/><stop id="stop6097" offset=".5" style="stop-color:#000;stop-opacity:.17171717"/><stop style="stop-color:#000;stop-opacity:1" id="stop6093" offset="1"/></linearGradient><linearGradient id="linearGradient6095" x1="17.188" x2="34" y1="20.094" y2="20.094" gradientTransform="translate(-1.25e-7,-0.4998777)" gradientUnits="userSpaceOnUse" xlink:href="#linearGradient6089"/><radialGradient id="radialGradient6085" cx="15.938" cy="20.313" r="3.313" fx="15.938" fy="20.313" gradientTransform="matrix(1,0,0,0.5849057,0,8.4316038)" gradientUnits="userSpaceOnUse" xlink:href="#linearGradient6075"/><linearGradient id="linearGradient6075"><stop style="stop-color:#000;stop-opacity:1" id="stop6077" offset="0"/><stop style="stop-color:#000;stop-opacity:0" id="stop6079" offset="1"/></linearGradient><radialGradient id="radialGradient6081" cx="15.938" cy="20.313" r="3.313" fx="15.938" fy="20.313" gradientTransform="matrix(1,0,0,0.5849057,0,8.4316038)" gradientUnits="userSpaceOnUse" xlink:href="#linearGradient6075"/><linearGradient id="linearGradient5881"><stop id="stop5883" offset="0" style="stop-color:#fffac7;stop-opacity:1"/><stop style="stop-color:#fff8b2;stop-opacity:1" id="stop5885" offset="1"/></linearGradient><linearGradient id="linearGradient1591" x1="24.875" x2="24.75" y1="21" y2="17" gradientTransform="matrix(0.9706798,0,0,1.5,2.2052409,-7.4998763)" gradientUnits="userSpaceOnUse" xlink:href="#linearGradient5881"/><linearGradient id="linearGradient9845"><stop id="stop9847" offset="0" style="stop-color:#fff;stop-opacity:1"/><stop id="stop9849" offset="1" style="stop-color:#fff;stop-opacity:.49484536"/></linearGradient><linearGradient id="linearGradient1575" x1="10.907" x2="30.875" y1="25.002" y2="36.127" gradientTransform="matrix(0.968931,0,0,1.1176137,2.2618789,-4.094888)" gradientUnits="userSpaceOnUse" xlink:href="#linearGradient9845"/><linearGradient id="linearGradient6215"><stop id="stop6217" offset="0" style="stop-color:#ead200;stop-opacity:1"/><stop style="stop-color:#fff16a;stop-opacity:1" id="stop6219" offset=".21"/><stop id="stop6221" offset=".84" style="stop-color:#b5a300;stop-opacity:1"/><stop id="stop6223" offset="1" style="stop-color:#e8d000;stop-opacity:1"/></linearGradient><linearGradient id="linearGradient6225" x1="6.727" x2="40.938" y1="32.162" y2="32.162" gradientTransform="matrix(0.9715125,0,0,1.1298556,2.1851679,-5.9390134)" gradientUnits="userSpaceOnUse" xlink:href="#linearGradient6215"/><filter id="filter6051" width="1.15" height="1.944" x="-.075" y="-.472"><feGaussianBlur id="feGaussianBlur6053" stdDeviation="1.415"/></filter><linearGradient id="linearGradient10152" x1="99.665" x2="154.35" y1="706.65" y2="706.65" gradientTransform="matrix(-0.22977,-0.13266,-0.075064,0.13002,618.26,595.97)" gradientUnits="userSpaceOnUse" xlink:href="#linearGradient4139-0-7"/><linearGradient id="linearGradient4139-0-7"><stop style="stop-color:#c3c6ce" id="stop4141-2-9" offset="0"/><stop style="stop-color:#8b8e99" id="stop4143-0-08" offset=".361"/><stop style="stop-color:#d7d9e0" id="stop4145-8-1" offset=".421"/><stop style="stop-color:#d6d9e1" id="stop4149-9-4" offset=".628"/><stop style="stop-color:#cbcdcf" id="stop4147-28-0" offset="1"/></linearGradient><linearGradient id="linearGradient10154" x1="482.59" x2="339.36" y1="1059.2" y2="893.75" gradientTransform="matrix(0.44619,0.25761,-0.25761,0.44619,672.66,72.584)" gradientUnits="userSpaceOnUse" xlink:href="#linearGradient3757-9-324-908"/><linearGradient id="linearGradient3757-9-324-908"><stop style="stop-color:#0097f8" id="stop5371" offset="0"/><stop style="stop-color:#1974ff" id="stop5373" offset="1"/></linearGradient><radialGradient id="radialGradient10156" cx="310.59" cy="872" r="113.66" gradientTransform="matrix(0.45009,0.26523,-0.2476,0.42022,655.66,97.271)" gradientUnits="userSpaceOnUse" xlink:href="#linearGradient3757-7-2-417-500"/><linearGradient id="linearGradient3757-7-2-417-500"><stop style="stop-color:#039dff" id="stop5365" offset="0"/><stop style="stop-color:#196dff" id="stop5367" offset="1"/></linearGradient><linearGradient id="linearGradient10158" x1="311.06" x2="408.42" y1="787.84" y2="787.84" gradientTransform="matrix(0.44619,0.25761,-0.25761,0.44619,667.51,81.508)" gradientUnits="userSpaceOnUse" spreadMethod="reflect" xlink:href="#linearGradient3757-7-2-417-500"/><linearGradient id="linearGradient10160" x1="308.84" x2="403.74" y1="757.8" y2="750.8" gradientTransform="matrix(0.44619,0.25761,-0.25761,0.44619,662.36,90.432)" gradientUnits="userSpaceOnUse" spreadMethod="reflect" xlink:href="#linearGradient3757-7-2-417-500"/><linearGradient id="linearGradient10162" x1="307.31" x2="415.03" y1="723.22" y2="723.22" gradientTransform="matrix(0.44619,0.25761,-0.25761,0.44619,662.36,90.432)" gradientUnits="userSpaceOnUse" spreadMethod="reflect" xlink:href="#linearGradient3757-7-2-417-500"/><radialGradient id="radialGradient10164" cx="335.75" cy="687.35" r="85.938" gradientTransform="matrix(0.70826,0.3989,-0.195,0.34622,521.41,111.05)" gradientUnits="userSpaceOnUse" spreadMethod="reflect" xlink:href="#linearGradient3757-7-2-417-500"/><radialGradient id="radialGradient10166" cx="604.59" cy="2149.5" r="411.43" gradientTransform="matrix(1.1861,0,0,0.33333,-106.75,1433)" gradientUnits="userSpaceOnUse" xlink:href="#linearGradient4259"/><linearGradient id="linearGradient4259"><stop style="stop-color:#2d2a2a;stop-opacity:.17647" id="stop4261" offset="0"/><stop style="stop-color:#2d2a2a;stop-opacity:0" id="stop4263" offset="1"/></linearGradient><filter style="color-interpolation-filters:sRGB" id="filter4269-0-5-1"><feGaussianBlur id="feGaussianBlur4271-7-5-8" stdDeviation="6.321"/></filter><linearGradient id="linearGradient10168" x1="99.665" x2="154.35" y1="706.65" y2="706.65" gradientTransform="matrix(-0.22977,-0.13266,-0.075064,0.13002,420.9,595.97)" gradientUnits="userSpaceOnUse" xlink:href="#linearGradient4139-0-1"/><linearGradient id="linearGradient4139-0-1"><stop style="stop-color:#c5cec3" id="stop4141-2-6" offset="0"/><stop style="stop-color:#8e998b" id="stop4143-0-0" offset=".361"/><stop style="stop-color:#d7d9e0" id="stop4145-8-9" offset=".421"/><stop style="stop-color:#d6d9e1" id="stop4149-9-5" offset=".628"/><stop style="stop-color:#cbcdcf" id="stop4147-28-8" offset="1"/></linearGradient><linearGradient id="linearGradient10170" x1="482.59" x2="339.36" y1="1059.2" y2="893.75" gradientTransform="matrix(0.44619,0.25761,-0.25761,0.44619,475.3,72.584)" gradientUnits="userSpaceOnUse" xlink:href="#linearGradient3757-6"/><linearGradient id="linearGradient3757-6"><stop style="stop-color:#8dd858" id="stop3759-78" offset="0"/><stop style="stop-color:#3fc739" id="stop3767-7" offset="1"/></linearGradient><radialGradient id="radialGradient10172" cx="310.59" cy="872" r="113.66" gradientTransform="matrix(0.45009,0.26523,-0.2476,0.42022,458.3,97.271)" gradientUnits="userSpaceOnUse" xlink:href="#linearGradient3757-7-5"/><linearGradient id="linearGradient3757-7-5"><stop style="stop-color:#8efc55" id="stop3759-7-5" offset="0"/><stop style="stop-color:#3fc739" id="stop3767-1-2" offset="1"/></linearGradient><linearGradient id="linearGradient10174" x1="311.06" x2="408.42" y1="787.84" y2="787.84" gradientTransform="matrix(0.44619,0.25761,-0.25761,0.44619,470.15,81.508)" gradientUnits="userSpaceOnUse" spreadMethod="reflect" xlink:href="#linearGradient3757-6"/><linearGradient id="linearGradient10176" x1="308.84" x2="403.74" y1="757.8" y2="750.8" gradientTransform="matrix(0.44619,0.25761,-0.25761,0.44619,465,90.432)" gradientUnits="userSpaceOnUse" spreadMethod="reflect" xlink:href="#linearGradient3757-6"/><linearGradient id="linearGradient10178" x1="307.31" x2="415.03" y1="723.22" y2="723.22" gradientTransform="matrix(0.44619,0.25761,-0.25761,0.44619,465,90.432)" gradientUnits="userSpaceOnUse" spreadMethod="reflect" xlink:href="#linearGradient3757-6"/><radialGradient id="radialGradient10180" cx="335.75" cy="687.35" r="85.938" gradientTransform="matrix(0.70826,0.3989,-0.195,0.34622,324.05,111.05)" gradientUnits="userSpaceOnUse" spreadMethod="reflect" xlink:href="#linearGradient3757-6"/><filter style="color-interpolation-filters:sRGB" id="filter4269-0-5"><feGaussianBlur id="feGaussianBlur4271-7-5" stdDeviation="6.321"/></filter><linearGradient id="linearGradient10184" x1="99.665" x2="154.35" y1="706.65" y2="706.65" gradientTransform="matrix(-0.22977,-0.13266,-0.075064,0.13002,223.56,595.97)" gradientUnits="userSpaceOnUse"><stop style="stop-color:#cec3c3" id="stop4141-2-2" offset="0"/><stop style="stop-color:#998b8e" id="stop4143-0-9" offset=".361"/><stop style="stop-color:#d7d9e0" id="stop4145-8-7" offset=".421"/><stop style="stop-color:#d6d9e1" id="stop4149-9-6" offset=".628"/><stop style="stop-color:#cbcdcf" id="stop4147-28-88" offset="1"/></linearGradient><linearGradient id="linearGradient10186" x1="482.59" x2="339.36" y1="1059.2" y2="893.75" gradientTransform="matrix(0.44619,0.25761,-0.25761,0.44619,277.97,72.584)" gradientUnits="userSpaceOnUse" xlink:href="#linearGradient3757-823"/><linearGradient id="linearGradient3757-823"><stop style="stop-color:#e88686" id="stop6471" offset="0"/><stop style="stop-color:#f52c34" id="stop6473" offset="1"/></linearGradient><radialGradient id="radialGradient10188" cx="310.59" cy="872" r="113.66" gradientTransform="matrix(0.45009,0.26523,-0.2476,0.42022,260.97,97.271)" gradientUnits="userSpaceOnUse" xlink:href="#linearGradient3757-7-359"/><linearGradient id="linearGradient3757-7-359"><stop style="stop-color:#f17c6d" id="stop6477" offset="0"/><stop style="stop-color:#f52c34" id="stop6479" offset="1"/></linearGradient><linearGradient id="linearGradient10190" x1="311.06" x2="408.42" y1="787.84" y2="787.84" gradientTransform="matrix(0.44619,0.25761,-0.25761,0.44619,272.81,81.508)" gradientUnits="userSpaceOnUse" spreadMethod="reflect" xlink:href="#linearGradient3757-7-359"/><linearGradient id="linearGradient10192" x1="308.84" x2="403.74" y1="757.8" y2="750.8" gradientTransform="matrix(0.44619,0.25761,-0.25761,0.44619,267.66,90.432)" gradientUnits="userSpaceOnUse" spreadMethod="reflect" xlink:href="#linearGradient3757-7-359"/><linearGradient id="linearGradient10194" x1="307.31" x2="415.03" y1="723.22" y2="723.22" gradientTransform="matrix(0.44619,0.25761,-0.25761,0.44619,267.66,90.432)" gradientUnits="userSpaceOnUse" spreadMethod="reflect" xlink:href="#linearGradient3757-7-359"/><radialGradient id="radialGradient10196" cx="335.75" cy="687.35" r="85.938" gradientTransform="matrix(0.70826,0.3989,-0.195,0.34622,126.71,111.05)" gradientUnits="userSpaceOnUse" spreadMethod="reflect" xlink:href="#linearGradient3757-7-359"/><filter style="color-interpolation-filters:sRGB" id="filter4269-0"><feGaussianBlur id="feGaussianBlur4271-7" stdDeviation="6.321"/></filter><filter style="color-interpolation-filters:sRGB" id="filter4269-2"><feGaussianBlur id="feGaussianBlur4271-8" stdDeviation="6.321"/></filter><linearGradient id="linearGradient8147" x1="99.665" x2="154.35" y1="706.65" y2="706.65" gradientTransform="matrix(-0.22977,-0.13266,-0.13266,0.22977,679.85,203.98)" gradientUnits="userSpaceOnUse" xlink:href="#linearGradient4139-0-7"/><radialGradient id="radialGradient4416-7-855-427" cx="631.04" cy="403.33" r="158.57" gradientTransform="matrix(2,-3.2353e-8,3.2353e-8,2,-619.23,-402.87)" gradientUnits="userSpaceOnUse" xlink:href="#linearGradient3757-9-324-908"/><radialGradient id="radialGradient8142" cx="461.43" cy="190.93" r="158.57" gradientTransform="matrix(0.25859,0,0,0.25859,510.42,143.63)" gradientUnits="userSpaceOnUse" xlink:href="#linearGradient3757-7-2-417-500"/><filter style="color-interpolation-filters:sRGB" id="filter4269-8"><feGaussianBlur id="feGaussianBlur4271-6" stdDeviation="6.321"/></filter><linearGradient id="linearGradient8156" x1="99.665" x2="154.35" y1="706.65" y2="706.65" gradientTransform="matrix(-0.22977,-0.13266,-0.13266,0.22977,482.49,203.98)" gradientUnits="userSpaceOnUse" xlink:href="#linearGradient4139-0-1"/><radialGradient id="radialGradient4426" cx="631.04" cy="403.33" r="158.57" gradientTransform="matrix(2,-3.2353e-8,3.2353e-8,2,-619.23,-402.87)" gradientUnits="userSpaceOnUse" xlink:href="#linearGradient3757-6"/><radialGradient id="radialGradient8151" cx="461.43" cy="190.93" r="158.57" gradientTransform="matrix(0.25859,0,0,0.25859,313.06,143.63)" gradientUnits="userSpaceOnUse" xlink:href="#linearGradient3757-7-5"/><filter style="color-interpolation-filters:sRGB" id="filter4269"><feGaussianBlur id="feGaussianBlur4271" stdDeviation="6.321"/></filter><linearGradient id="linearGradient8165" x1="99.665" x2="154.35" y1="706.65" y2="706.65" gradientTransform="matrix(-0.22977,-0.13266,-0.13266,0.22977,285.15,203.98)" gradientUnits="userSpaceOnUse"><stop style="stop-color:#cec3c3" id="stop4141-2" offset="0"/><stop style="stop-color:#998b8e" id="stop4143-0" offset=".361"/><stop style="stop-color:#d7d9e0" id="stop4145-8" offset=".421"/><stop style="stop-color:#d6d9e1" id="stop4149-9" offset=".628"/><stop style="stop-color:#cbcdcf" id="stop4147-28" offset="1"/></linearGradient><radialGradient id="radialGradient4416-605" cx="631.04" cy="403.33" r="158.57" gradientTransform="matrix(2,-3.2353e-8,3.2353e-8,2,-619.23,-402.87)" gradientUnits="userSpaceOnUse" xlink:href="#linearGradient3757-823"/><radialGradient id="radialGradient10562" cx="461.43" cy="190.93" r="158.57" gradientTransform="matrix(0.25859,0,0,0.25859,115.73,143.63)" gradientUnits="userSpaceOnUse" xlink:href="#linearGradient3757-7-359"/><radialGradient id="radialGradient3487" cx="604.59" cy="2149.5" r="411.43" gradientTransform="matrix(1.1861,0,0,0.33333,-106.75,1433)" gradientUnits="userSpaceOnUse" xlink:href="#linearGradient4259"/></defs><metadata id="metadata7378"/><g id="layer1"><g id="g3621" transform="matrix(0.82602797,0,0,0.77411,-5.4705379,4.3518832)"><rect id="rect5961" width="37.75" height="6" x="6.25" y="39.75" rx="3.171" ry="1.975" transform="matrix(1.0264901,0,0,1,-0.1655631,1.2231888e-4)" style="display:inline;overflow:visible;visibility:visible;opacity:.45882353;fill:#000;fill-opacity:1;fill-rule:evenodd;stroke:none;stroke-width:1;stroke-linecap:round;stroke-linejoin:miter;stroke-miterlimit:4;stroke-dasharray:none;stroke-dashoffset:0;stroke-opacity:1;marker:none;marker-start:none;marker-mid:none;marker-end:none;filter:url(#filter6051);enable-background:accumulate"/><path id="rect1314" d="m 10.671306,17.500122 c 9.794546,-1.443399 19.693308,-1.219316 29.654274,0 1.202904,0 2.171306,1.04357 2.171306,2.339844 l 0,23.320312 c 0,1.296274 -1.030902,2.152344 -2.171306,2.339844 -10.327183,1.208603 -19.182049,1.199062 -29.654274,0 -1.3904041,-0.4375 -2.1713061,-1.04357 -2.1713061,-2.339844 l 0,-23.320312 c 0,-1.296274 0.968402,-2.339844 2.1713061,-2.339844 z" style="fill:url(#linearGradient6225);fill-opacity:1;fill-rule:evenodd;stroke:#7d6400;stroke-width:.99999952;stroke-linecap:round;stroke-linejoin:round;stroke-miterlimit:4;stroke-dashoffset:0;stroke-opacity:1"/><g id="g4695" transform="translate(-1.25e-7,1.2231888e-4)"><path style="display:inline;overflow:visible;visibility:visible;opacity:.14117647;fill:#000;fill-opacity:1;fill-rule:evenodd;stroke:none;stroke-width:1;stroke-linecap:round;stroke-linejoin:miter;stroke-miterlimit:4;stroke-dasharray:none;stroke-dashoffset:0;stroke-opacity:1;marker:none;marker-start:none;marker-mid:none;marker-end:none;enable-background:accumulate" id="path6193" d="m 41.940271,24.444505 c -0.398206,1.330312 -4.534152,1.670412 -5.302076,1.773431 0,0 -16.308875,0.480472 -16.308875,0.480472 0,0 16.26324,0.159134 16.26324,0.159134 0.825913,-0.09712 5.218651,0.103389 5.4361,-1.70593 l -0.08839,-0.707107 z"/><path id="path4678" d="m 41.940271,26.444505 c -0.398206,1.330312 -4.534152,1.670412 -5.302076,1.773431 0,0 -19.058875,0.480472 -19.058875,0.480472 0,0 19.01324,0.159134 19.01324,0.159134 0.825913,-0.09712 5.218651,0.103389 5.4361,-1.70593 l -0.08839,-0.707107 z" style="display:inline;overflow:visible;visibility:visible;opacity:.14117647;fill:#000;fill-opacity:1;fill-rule:evenodd;stroke:none;stroke-width:1;stroke-linecap:round;stroke-linejoin:miter;stroke-miterlimit:4;stroke-dasharray:none;stroke-dashoffset:0;stroke-opacity:1;marker:none;marker-start:none;marker-mid:none;marker-end:none;enable-background:accumulate"/><path style="display:inline;overflow:visible;visibility:visible;opacity:.14117647;fill:#000;fill-opacity:1;fill-rule:evenodd;stroke:none;stroke-width:1;stroke-linecap:round;stroke-linejoin:miter;stroke-miterlimit:4;stroke-dasharray:none;stroke-dashoffset:0;stroke-opacity:1;marker:none;marker-start:none;marker-mid:none;marker-end:none;enable-background:accumulate" id="path4680" d="m 41.940271,28.444505 c -0.398206,1.330312 -4.534152,1.670412 -5.302076,1.773431 0,0 -16.308875,0.480472 -16.308875,0.480472 0,0 16.26324,0.159134 16.26324,0.159134 0.825913,-0.09712 5.218651,0.103389 5.4361,-1.70593 l -0.08839,-0.707107 z"/><path id="path4682" d="m 41.940271,30.444505 c -0.398206,1.330312 -4.534152,1.670412 -5.302076,1.773431 0,0 -11.058875,0.480472 -11.058875,0.480472 0,0 11.01324,0.159134 11.01324,0.159134 0.825913,-0.09712 5.218651,0.103389 5.4361,-1.70593 l -0.08839,-0.707107 z" style="display:inline;overflow:visible;visibility:visible;opacity:.14117647;fill:#000;fill-opacity:1;fill-rule:evenodd;stroke:none;stroke-width:1;stroke-linecap:round;stroke-linejoin:miter;stroke-miterlimit:4;stroke-dasharray:none;stroke-dashoffset:0;stroke-opacity:1;marker:none;marker-start:none;marker-mid:none;marker-end:none;enable-background:accumulate"/><path style="display:inline;overflow:visible;visibility:visible;opacity:.14117647;fill:#000;fill-opacity:1;fill-rule:evenodd;stroke:none;stroke-width:1;stroke-linecap:round;stroke-linejoin:miter;stroke-miterlimit:4;stroke-dasharray:none;stroke-dashoffset:0;stroke-opacity:1;marker:none;marker-start:none;marker-mid:none;marker-end:none;enable-background:accumulate" id="path4684" d="m 41.940271,32.444505 c -0.398206,1.330312 -4.534152,1.670412 -5.302076,1.773431 0,0 -16.308875,0.480472 -16.308875,0.480472 0,0 16.26324,0.159134 16.26324,0.159134 0.825913,-0.09712 5.218651,0.103389 5.4361,-1.70593 l -0.08839,-0.707107 z"/><path id="path4686" d="m 41.940271,34.444505 c -0.398206,1.330312 -4.534152,1.670412 -5.302076,1.773431 0,0 -18.746375,0.480472 -18.746375,0.480472 0,0 18.70074,0.159134 18.70074,0.159134 0.825913,-0.09712 5.218651,0.103389 5.4361,-1.70593 l -0.08839,-0.707107 z" style="display:inline;overflow:visible;visibility:visible;opacity:.14117647;fill:#000;fill-opacity:1;fill-rule:evenodd;stroke:none;stroke-width:1;stroke-linecap:round;stroke-linejoin:miter;stroke-miterlimit:4;stroke-dasharray:none;stroke-dashoffset:0;stroke-opacity:1;marker:none;marker-start:none;marker-mid:none;marker-end:none;enable-background:accumulate"/><path style="display:inline;overflow:visible;visibility:visible;opacity:.14117647;fill:#000;fill-opacity:1;fill-rule:evenodd;stroke:none;stroke-width:1;stroke-linecap:round;stroke-linejoin:miter;stroke-miterlimit:4;stroke-dasharray:none;stroke-dashoffset:0;stroke-opacity:1;marker:none;marker-start:none;marker-mid:none;marker-end:none;enable-background:accumulate" id="path4688" d="m 41.940271,36.444505 c -0.398206,1.330312 -4.534152,1.670412 -5.302076,1.773431 0,0 -13.996375,0.480472 -13.996375,0.480472 0,0 13.95074,0.159134 13.95074,0.159134 0.825913,-0.09712 5.218651,0.103389 5.4361,-1.70593 l -0.08839,-0.707107 z"/><path id="path4690" d="m 41.940271,38.444505 c -0.398206,1.330312 -4.534152,1.670412 -5.302076,1.773431 0,0 -8.433875,0.480472 -8.433875,0.480472 0,0 8.38824,0.159134 8.38824,0.159134 0.825913,-0.09712 5.218651,0.103389 5.4361,-1.70593 l -0.08839,-0.707107 z" style="display:inline;overflow:visible;visibility:visible;opacity:.14117647;fill:#000;fill-opacity:1;fill-rule:evenodd;stroke:none;stroke-width:1;stroke-linecap:round;stroke-linejoin:miter;stroke-miterlimit:4;stroke-dasharray:none;stroke-dashoffset:0;stroke-opacity:1;marker:none;marker-start:none;marker-mid:none;marker-end:none;enable-background:accumulate"/><path style="display:inline;overflow:visible;visibility:visible;opacity:.14117647;fill:#000;fill-opacity:1;fill-rule:evenodd;stroke:none;stroke-width:1;stroke-linecap:round;stroke-linejoin:miter;stroke-miterlimit:4;stroke-dasharray:none;stroke-dashoffset:0;stroke-opacity:1;marker:none;marker-start:none;marker-mid:none;marker-end:none;enable-background:accumulate" id="path4692" d="m 41.940271,40.444505 c -0.398206,1.330312 -4.534152,1.670412 -5.302076,1.773431 0,0 -16.308875,0.480472 -16.308875,0.480472 0,0 16.26324,0.159134 16.26324,0.159134 0.825913,-0.09712 5.218651,0.103389 5.4361,-1.70593 l -0.08839,-0.707107 z"/></g><path id="rect6903" d="m 10.749588,18.995483 29.504844,0 c 0.692271,0 1.249588,0.586115 1.249588,1.314159 l 0,22.876321 c 0,0.728044 -0.494817,1.064159 -1.249588,1.314159 -9.647448,1.203613 -19.169896,1.200821 -29.504844,0 -0.692272,-0.25 -1.2495881,-0.586115 -1.2495881,-1.314159 l 0,-22.876321 c 0,-0.728044 0.5573161,-1.314159 1.2495881,-1.314159 z" style="fill:none;fill-opacity:1;fill-rule:evenodd;stroke:url(#linearGradient1575);stroke-width:1.00000024;stroke-linecap:round;stroke-linejoin:round;stroke-miterlimit:4;stroke-dashoffset:0;stroke-opacity:.60109289"/><path id="rect1460" d="m 10.607725,18.000122 c 9.929221,-1.460747 19.85844,-1.200569 29.787661,0 0.89068,0 1.607726,0.717046 1.607726,1.607725 l 0,2.78455 c 0,0.890679 -0.717046,1.607725 -1.607726,1.607725 -10.361729,0.6901 -19.895424,0.44381 -29.787661,0 -0.8906801,0 -1.6077251,-0.717046 -1.6077251,-1.607725 l 0,-2.78455 c 0,-0.890679 0.717045,-1.607725 1.6077251,-1.607725 z" style="display:inline;overflow:visible;visibility:visible;fill:url(#linearGradient1591);fill-opacity:1;fill-rule:evenodd;stroke:none;stroke-width:2;stroke-linecap:round;stroke-linejoin:round;stroke-miterlimit:4;stroke-dashoffset:0;stroke-opacity:1;marker:none;marker-start:none;marker-mid:none;marker-end:none"/><ellipse id="path6073" cx="15.938" cy="20.313" rx="3.313" ry="1.938" transform="matrix(1.3870968,0,0,1.3870968,-6.1693551,-7.8627805)" style="display:inline;overflow:visible;visibility:visible;opacity:.36470588;fill:url(#radialGradient6081);fill-opacity:1;fill-rule:evenodd;stroke:none;stroke-width:1;stroke-linecap:round;stroke-linejoin:miter;stroke-miterlimit:4;stroke-dasharray:none;stroke-dashoffset:0;stroke-opacity:1;marker:none;marker-start:none;marker-mid:none;marker-end:none;enable-background:accumulate"/><ellipse style="display:inline;overflow:visible;visibility:visible;opacity:.34705882;fill:url(#radialGradient6085);fill-opacity:1;fill-rule:evenodd;stroke:none;stroke-width:1;stroke-linecap:round;stroke-linejoin:miter;stroke-miterlimit:4;stroke-dasharray:none;stroke-dashoffset:0;stroke-opacity:1;marker:none;marker-start:none;marker-mid:none;marker-end:none;enable-background:accumulate" id="path6083" cx="15.938" cy="20.313" rx="3.313" ry="1.938" transform="matrix(1.3870968,0,0,1.3870968,12.955645,-7.8627805)"/><rect id="rect6087" width="16.813" height="1.563" x="17.187" y="18.813" rx=".781" ry=".781" style="display:inline;overflow:visible;visibility:visible;opacity:.48235294;fill:url(#linearGradient6095);fill-opacity:1;fill-rule:evenodd;stroke:none;stroke-width:1;stroke-linecap:round;stroke-linejoin:miter;stroke-miterlimit:4;stroke-dasharray:none;stroke-dashoffset:0;stroke-opacity:1;marker:none;marker-start:none;marker-mid:none;marker-end:none;filter:url(#filter6171);enable-background:accumulate"/><g id="g1387" transform="matrix(0.8915815,0,0,1,4.0426599,-0.4919207)"><path style="fill:url(#linearGradient1392);fill-opacity:1;fill-rule:evenodd;stroke:#888a85;stroke-width:1.05905688;stroke-linecap:butt;stroke-linejoin:miter;stroke-miterlimit:4;stroke-dasharray:none;stroke-opacity:1" id="path2086" d="m 10.6402,20.234846 0,-5.734846 C 10.6402,6.6298666 15.897609,2.8910066 24.020027,2.9892921 32.18664,3.0875777 37.5,6.5372782 37.5,14.5 l 0,5.984846 c 0,1.954229 -5.490701,2.202951 -5.490701,0 l 0,-3.984846 c 0,-2 0.568453,-8.471853 -7.932058,-8.471853 -8.430413,0 -7.81615,6.511738 -7.783459,8.463879 l 0,3.776498 c 0,2.35462 -5.653582,2.344609 -5.653582,-0.03368 z"/><path id="rect1345" d="m 34.687087,10.837069 1.263948,0.125 c 0.927239,2.822733 0.736052,9.510413 0.736052,9.510413 -0.0625,1.125 -2.03125,0.53125 -2,0 l 0,-9.635413 z" style="opacity:.18235294;fill:url(#linearGradient6233);fill-opacity:1;fill-rule:evenodd;stroke:none;stroke-width:1;stroke-linecap:round;stroke-linejoin:round;stroke-miterlimit:4;stroke-dashoffset:0;stroke-opacity:1;filter:url(#filter6251)"/><path style="opacity:.14117647;fill:url(#linearGradient6334);fill-opacity:1;fill-rule:evenodd;stroke:none;stroke-width:1;stroke-linecap:round;stroke-linejoin:round;stroke-miterlimit:4;stroke-dashoffset:0;stroke-opacity:1;filter:url(#filter6251)" id="path6332" d="m 12.926606,11.544175 0.371719,0.169195 c 1.720331,1.054966 2.173532,9.37783 2.173532,9.37783 -0.0625,1.125 -2.03125,0.53125 -2,0 0,0 0.37822,-6.87064 -0.545251,-9.547025 z" transform="matrix(-1,0,0,1,29.05878,-0.6187184)"/></g><path id="path5675" d="m 15.375,19.625122 0.125,-7.5 c 0,-9.8763727 18.687499,-10.6763997 18.687499,0.875 l 0,6.875" style="display:inline;overflow:visible;visibility:visible;opacity:.62352941;fill:none;fill-opacity:1;fill-rule:evenodd;stroke:#fff;stroke-width:2;stroke-linecap:round;stroke-linejoin:miter;stroke-miterlimit:4;stroke-dasharray:none;stroke-dashoffset:0;stroke-opacity:1;marker:none;marker-start:none;marker-mid:none;marker-end:none;filter:url(#filter5745);enable-background:accumulate"/><path id="rect1593" d="m 10.663938,20.692602 29.67524,0 c 0.644821,0 1.163938,0.489194 1.163938,1.096848 l 0,0.662074 c 0,0.607654 -0.519117,1.096848 -1.163938,1.096848 -9.799434,1.200072 -19.709569,1.273512 -29.67524,0 -0.644822,0 -1.1639381,-0.489194 -1.1639381,-1.096848 l 0,-0.662074 c 0,-0.607654 0.5191161,-1.096848 1.1639381,-1.096848 z" style="display:inline;overflow:visible;visibility:visible;fill:none;fill-opacity:1;fill-rule:evenodd;stroke:url(#linearGradient1387);stroke-width:1;stroke-linecap:round;stroke-linejoin:round;stroke-miterlimit:4;stroke-dashoffset:0;stroke-opacity:1;marker:none;marker-start:none;marker-mid:none;marker-end:none"/><rect id="rect5887" width="2.828" height="16.971" x="14.594" y="23.226" rx="1.608" ry="1.608" transform="matrix(1.9722718,0,0,1.2283366,-15.56437,-5.3032539)" style="display:inline;overflow:visible;visibility:visible;opacity:.29411765;fill:#fff;fill-opacity:1;fill-rule:evenodd;stroke:none;stroke-width:1;stroke-linecap:round;stroke-linejoin:miter;stroke-miterlimit:4;stroke-dasharray:none;stroke-dashoffset:0;stroke-opacity:1;marker:none;marker-start:none;marker-mid:none;marker-end:none;filter:url(#filter5957);enable-background:accumulate"/><g id="g6067" transform="translate(0.8838829,-0.5302077)"><circle style="display:inline;overflow:visible;visibility:visible;opacity:1;fill:url(#radialGradient6071);fill-opacity:1;fill-rule:evenodd;stroke:none;stroke-width:1;stroke-linecap:round;stroke-linejoin:miter;stroke-miterlimit:4;stroke-dasharray:none;stroke-dashoffset:0;stroke-opacity:1;marker:none;marker-start:none;marker-mid:none;marker-end:none;enable-background:accumulate" id="path6055" cx="18.031" cy="6.281" r="3.182"/><circle id="path6065" cx="18.031" cy="6.281" r="3.182" transform="matrix(0.4343344,0,0,0.4343344,10.199642,3.5527756)" style="display:inline;overflow:visible;visibility:visible;opacity:1;fill:#fff;fill-opacity:1;fill-rule:evenodd;stroke:none;stroke-width:1;stroke-linecap:round;stroke-linejoin:miter;stroke-miterlimit:4;stroke-dasharray:none;stroke-dashoffset:0;stroke-opacity:1;marker:none;marker-start:none;marker-mid:none;marker-end:none;enable-background:accumulate"/></g><path id="rect6257" d="m 21.715689,3.9563403 c 2.452745,-0.590294 5.053114,-0.628226 7.612891,0 1.687749,0.414212 1.233389,1.889138 0,1.543498 -2.532582,-0.709719 -5.096483,-0.519949 -7.612891,0 -1.77916,0.367617 -1.639492,-1.148927 0,-1.543498 z" style="display:inline;overflow:visible;visibility:visible;opacity:1;fill:#fff;fill-opacity:1;fill-rule:evenodd;stroke:none;stroke-width:1;stroke-linecap:round;stroke-linejoin:miter;stroke-miterlimit:4;stroke-dashoffset:0;stroke-opacity:1;marker:none;marker-start:none;marker-mid:none;marker-end:none;filter:url(#filter6328);enable-background:accumulate"/></g><g id="g10137" transform="matrix(0.17318161,0,0,0.14716697,-3.6216384,-59.919309)"><path id="path3884-4-2-2-78" d="m 183.21,618.69 -15.319,-8.8444 c 0,0 -41.712,79.758 -37.305,82.303 4.4073,2.5445 52.624,-73.458 52.624,-73.458 z" style="fill:url(#linearGradient10184)"/><path id="path8732" d="m 199.42,507.39 c -1.0028,-0.58012 -2.3047,-0.60469 -3.3286,-0.0627 0,0 -41.922,16.635 -60.742,49.212 -0.01,0.0154 -0.016,0.0284 -0.024,0.0418 l -3.6064,6.2466 c -2.1421,3.7102 -1.8363,8.1947 -0.18973,12.532 9.0007,18.613 26.137,33.277 43.2,43.127 17.062,9.8508 39.192,18.856 58.949,15.848 4.5798,-0.74292 8.6165,-2.7202 10.759,-6.4304 l 3.6066,-6.2466 0.0239,-0.0418 c 18.802,-32.587 12.248,-77.21 12.248,-77.21 -0.0425,-1.1577 -0.71472,-2.2731 -1.7186,-2.8514 l -59.17,-34.17 z" style="fill:#b42323"/><path id="path8178-5-2-6-9" d="m 197.71,510.36 c 0,0 -40.936,15.957 -59.386,47.894 -0.009,0.0149 -0.016,0.0278 -0.0239,0.0418 l -3.6066,6.2466 c -5.8814,10.187 16.271,36.262 41.755,50.975 25.483,14.713 59.142,20.86 65.023,10.673 l 3.6064,-6.2466 c 0.009,-0.0149 0.0161,-0.0278 0.024,-0.0418 18.433,-31.947 11.784,-75.377 11.784,-75.377 l -59.18,-34.17 z" style="fill:url(#linearGradient10186)"/><path id="path8178-5-2-6-9-3" d="m 197.71,510.36 c 0,0 -40.936,15.957 -59.386,47.894 -0.009,0.0148 -0.016,0.0278 -0.0239,0.0418 l -2.6968,4.671 c -0.64466,1.1164 -0.96791,2.3783 -1.0194,3.7618 2.6339,11.105 18.157,29.283 41.177,42.573 34.066,19.668 57.503,20.189 63.238,10.256 l 3.518,-6.0932 0.024,-0.0418 c 17.426,-30.203 11.459,-70.564 11.459,-70.564 z" style="fill:url(#radialGradient10188)"/><path id="path8734" d="m 197.35,475.87 c -0.90669,-0.52117 -2.0894,-0.52349 -2.9978,-0.005 -0.9084,0.51821 -1.5086,1.5375 -1.5214,2.5831 l 7.3119,20.759 -6.0734,10.519 -0.024,0.0418 c -0.0119,0.0213 -0.035,0.0602 -0.032,0.0558 -1.4152,2.4512 -1.1685,5.3501 -0.17515,7.9674 0.99314,2.6172 2.7377,5.2263 5.0652,7.9068 4.6545,5.3609 11.695,10.973 20.217,15.892 8.5214,4.9199 16.902,8.2116 23.872,9.5622 3.485,0.67525 6.6169,0.88164 9.3801,0.4332 2.7632,-0.44847 5.3971,-1.6843 6.8123,-4.1354 -0.001,0.003 0.02,-0.0346 0.032,-0.0558 0.01,-0.0158 0.007,-0.0124 0.024,-0.0418 l 6.0734,-10.519 21.634,-4.0473 c 0.89934,-0.53371 1.482,-1.5631 1.4763,-2.6091 -0.005,-1.0458 -0.59876,-2.0691 -1.5036,-2.5935 l -89.572,-51.714 z" style="fill:#b42323"/><path id="path8178-5-2" d="m 204.39,497.88 -7.7316,13.392 c -0.0111,0.018 -0.0221,0.0376 -0.0321,0.0557 -3.302,5.7195 7.4486,18.095 24.005,27.654 16.556,9.5589 32.649,12.681 35.951,6.9619 0.011,-0.0183 0.022,-0.0374 0.032,-0.0558 l 7.7317,-13.392 z" style="fill:url(#linearGradient10190)"/><path id="path8850" d="m 197.06,475.8 c -0.88792,-0.40468 -1.9787,-0.32755 -2.8008,0.19817 -0.8221,0.52572 -1.3498,1.4835 -1.3551,2.4592 0.83558,8.2225 7.3588,22.385 7.3588,22.385 -0.006,0.0403 -0.0109,0.0809 -0.0148,0.1217 -0.20019,4.7872 2.8961,9.2904 7.486,14.082 4.59,4.7919 11.006,9.7192 18.579,14.092 7.5736,4.3727 15.049,7.4653 21.494,9.0444 6.4448,1.579 11.893,2.0088 15.939,-0.5581 0.0333,-0.0237 0.066,-0.0483 0.0979,-0.0736 0,0 16.444,-1.024 23.066,-4.8197 0.87826,-0.51939 1.4476,-1.5237 1.4422,-2.544 -0.005,-1.0203 -0.58546,-2.0186 -1.4692,-2.5285 l -89.572,-51.714 c -0.0806,-0.0523 -0.16482,-0.10093 -0.25087,-0.14488 z" style="fill:#b42323"/><path id="path8178-5-2-1" d="m 195.84,478.48 c -0.078,7.6088 7.348,22.602 7.348,22.602 -0.26315,6.2932 9.8614,17.015 24.588,25.518 14.726,8.5021 29.074,11.909 34.393,8.5346 0,0 16.698,-1.0652 23.248,-4.9375 z" style="fill:url(#linearGradient10192)"/><path id="path8736" d="m 255.4,478.76 c -12.773,-7.3747 -25.192,-12.565 -35.228,-15.041 -5.0178,-1.238 -9.434,-1.8145 -13.187,-1.5345 -3.7535,0.27999 -7.2368,1.4922 -9.0587,4.5488 -0.041,0.0696 -0.06,0.10458 -0.056,0.0976 l -4.1297,7.1529 c -1.787,3.0951 -1.1361,6.7698 0.48591,10.171 1.62201,3.4012 4.3302,6.9376 7.9146,10.667 7.169,7.4596 17.9,15.615 30.704,23.007 12.804,7.3923 25.239,12.597 35.284,15.073 5.0227,1.238 9.4404,1.8154 13.195,1.5206 3.7551,-0.29484 7.2571,-1.5571 9.0432,-4.6507 l 4.1298,-7.1529 c -0.002,0.004 0.0159,-0.0275 0.056,-0.0976 1.7358,-3.1064 1.0442,-6.729 -0.58999,-10.12 -1.6341,-3.3905 -4.3414,-6.9268 -7.9225,-10.653 -7.1623,-7.4533 -17.866,-15.614 -30.64,-22.988 z" style="fill:#b42323"/><path id="path8178-5-2-5" d="m 200.61,468.35 -4.1618,7.2087 c -4.2524,7.3653 12.776,25.019 37.961,39.56 25.185,14.54 48.999,20.442 53.24,13.095 l 4.162,-7.2087 z" style="fill:url(#linearGradient10194)"/><path id="path9385" d="m 206.91,462.72 c -3.6689,0.28748 -6.9123,1.5168 -8.5625,4.375 -1.6614,2.8777 -1.082,6.3403 0.5,9.6562 1.582,3.316 4.2574,6.8237 7.8125,10.531 7.1102,7.4151 17.793,15.565 30.562,22.938 12.769,7.3723 25.206,12.576 35.188,15.031 4.9905,1.2276 9.3669,1.7858 13.031,1.5 3.6643,-0.28579 6.9316,-1.4961 8.5938,-4.375 1.6625,-2.8796 1.0848,-6.3379 -0.5,-9.6562 -1.5848,-3.3184 -4.2537,-6.8512 -7.8125,-10.562 -7.1177,-7.4226 -17.824,-15.565 -30.594,-22.938 -19.155,-11.059 -37.229,-17.361 -48.219,-16.5 z" style="fill:#b42323"/><path id="path8178-2" d="m 253.83,481.48 c -25.184,-14.54 -49.024,-20.397 -53.248,-13.081 -4.2237,7.3156 12.768,25.033 37.953,39.574 25.185,14.54 49.025,20.397 53.248,13.081 4.2236,-7.3156 -12.768,-25.033 -37.953,-39.574 z" style="fill:url(#radialGradient10196)"/><path id="path4257-8" d="m 1165.7,2149.5 a 411.43,137.14 0 1 1 -822.86,0 411.43,137.14 0 1 1 822.86,0 z" transform="matrix(0.23132,0,0,0.13897,25.025,393.65)" style="fill:url(#radialGradient3487);filter:url(#filter4269-0)"/></g></g></svg>