<svg xmlns="http://www.w3.org/2000/svg" xmlns:svg="http://www.w3.org/2000/svg" id="Layer_1" width="489.309" height="494.244" x="0" y="0" enable-background="new 0 0 489.309 494.244" version="1.1" viewBox="0 0 489.309 494.244" xml:space="preserve"><metadata id="metadata76"/><rect id="rect36" width="295.289" height="37.697" x="168.315" y="85.676"/><path id="path38" fill="#B3B3B3" d="M463.604,77.172H168.315c-4.697,0-8.504,3.807-8.504,8.504v37.697c0,4.697,3.807,8.504,8.504,8.504h295.289 c4.696,0,8.504-3.807,8.504-8.504V85.676C472.108,80.979,468.3,77.172,463.604,77.172z M168.315,85.676h295.289v37.697H168.315 V85.676z"/><rect id="rect40" width="295.29" height="37.696" x="170.246" y="228.356"/><path id="path42" fill="#B3B3B3" d="M465.536,219.853h-295.29c-4.697,0-8.504,3.808-8.504,8.504v37.696c0,4.696,3.807,8.504,8.504,8.504h295.29 c4.696,0,8.504-3.808,8.504-8.504v-37.696C474.04,223.66,470.232,219.853,465.536,219.853z M170.246,228.356h295.29v37.696h-295.29 V228.356z"/><rect id="rect44" width="295.29" height="37.697" x="171.839" y="374.138"/><path id="path46" fill="#B3B3B3" d="M467.129,365.634h-295.29c-4.697,0-8.504,3.808-8.504,8.504v37.697c0,4.696,3.807,8.504,8.504,8.504h295.29 c4.696,0,8.504-3.808,8.504-8.504v-37.697C475.633,369.441,471.826,365.634,467.129,365.634z M171.839,374.138h295.29v37.697 h-295.29V374.138z"/><polygon id="polygon48" points="52.021 54.405 52.021 40.21 26.718 40.21 26.718 160.894 52.021 160.894 52.021 146.7 40.284 146.7 40.284 54.405" transform="translate(-10,-12)"/><path id="path50" d="m 42.021,50.909 c 4.697,0 8.504,-3.807 8.504,-8.504 V 28.21 c 0,-4.697 -3.807,-8.504 -8.504,-8.504 H 16.718 c -4.697,0 -8.504,3.807 -8.504,8.504 v 120.684 c 0,4.697 3.807,8.504 8.504,8.504 h 25.303 c 4.697,0 8.504,-3.807 8.504,-8.504 V 134.7 c 0,-4.697 -3.807,-8.504 -8.504,-8.504 H 38.788 V 50.909 h 3.233 z m 0,97.985 H 16.718 V 28.21 H 42.021 V 42.404 H 30.284 V 134.7 h 11.737 v 14.194 z" style="fill:#b3b3b3"/><polygon id="polygon52" points="84.792 160.894 110.095 160.894 110.095 40.21 84.792 40.21 84.792 54.276 96.529 54.276 96.529 146.7 84.792 146.7" transform="translate(16,-12)"/><path id="path54" d="m 126.095,19.707 h -25.303 c -4.697,0 -8.504,3.807 -8.504,8.504 v 14.066 c 0,4.697 3.807,8.504 8.504,8.504 h 3.233 v 75.416 h -3.233 c -4.697,0 -8.504,3.807 -8.504,8.504 v 14.194 c 0,4.697 3.807,8.504 8.504,8.504 h 25.303 c 4.697,0 8.504,-3.807 8.504,-8.504 V 28.21 c 0,-4.696 -3.807,-8.503 -8.504,-8.503 z M 100.792,134.7 h 11.737 V 42.276 H 100.792 V 28.21 h 25.303 V 148.894 H 100.792 V 134.7 z" style="fill:#b3b3b3"/><rect style="fill:#b3b3b3;stroke-width:.60000002;stroke-miterlimit:4;stroke-dasharray:none" id="rect3053" width="77.972" height="8.392" x="35.413" y="19.796"/><rect style="fill:#ccc;stroke-width:.60000002;stroke-miterlimit:4;stroke-dasharray:none" id="rect3055" width="2.797" height="3.147" x="72.028" y="30.146"/><rect style="fill:#b3b3b3;stroke-width:.60000002;stroke-miterlimit:4;stroke-dasharray:none" id="rect3053-8" width="69.93" height="8.392" x="38.713" y="42.482"/><rect style="fill:#b3b3b3;stroke-width:.60000002;stroke-miterlimit:4;stroke-dasharray:none" id="rect3053-6" width="76.923" height="8.392" x="35.343" y="126.118"/><rect style="fill:#b3b3b3;stroke-width:.60000002;stroke-miterlimit:4;stroke-dasharray:none" id="rect3053-6-9" width="76.923" height="8.392" x="38.21" y="148.999"/><rect style="fill:#000;stroke-width:.60000002;stroke-miterlimit:4;stroke-dasharray:none" id="rect3100" width="108.674" height="14.336" x="16.965" y="28.146"/><rect style="fill:#000;stroke-width:.60000002;stroke-miterlimit:4;stroke-dasharray:none" id="rect3100-9" width="108.15" height="14.336" x="17.098" y="134.671"/><polygon id="polygon48-0" points="40.284 146.7 40.284 54.405 52.021 54.405 52.021 40.21 26.718 40.21 26.718 160.894 52.021 160.894 52.021 146.7" transform="translate(-7.552694,145.53649)"/><path id="path50-6" d="m 44.468308,208.44549 c 4.697,0 8.504,-3.807 8.504,-8.504 v -14.195 c 0,-4.697 -3.807,-8.504 -8.504,-8.504 h -25.303 c -4.697001,0 -8.504001,3.807 -8.504001,8.504 v 120.684 c 0,4.697 3.807,8.504 8.504001,8.504 h 25.303 c 4.697,0 8.504,-3.807 8.504,-8.504 v -14.194 c 0,-4.697 -3.807,-8.504 -8.504,-8.504 h -3.233 v -75.287 h 3.233 z m 0,97.985 h -25.303 v -120.684 h 25.303 v 14.194 H 32.731307 v 92.296 h 11.737001 v 14.194 z" style="fill:#b3b3b3"/><polygon id="polygon52-4" points="96.529 146.7 84.792 146.7 84.792 160.894 110.095 160.894 110.095 40.21 84.792 40.21 84.792 54.276 96.529 54.276" transform="translate(18.447307,145.53649)"/><path id="path54-6" d="m 128.54231,177.24349 h -25.303 c -4.697001,0 -8.504001,3.807 -8.504001,8.504 v 14.066 c 0,4.697 3.807,8.504 8.504001,8.504 h 3.233 v 75.416 h -3.233 c -4.697001,0 -8.504001,3.807 -8.504001,8.504 v 14.194 c 0,4.697 3.807,8.504 8.504001,8.504 h 25.303 c 4.697,0 8.504,-3.807 8.504,-8.504 v -120.685 c 0,-4.696 -3.807,-8.503 -8.504,-8.503 z m -25.303,114.993 h 11.737 v -92.424 h -11.737 v -14.066 h 25.303 v 120.684 h -25.303 v -14.194 z" style="fill:#b3b3b3"/><rect style="fill:#b3b3b3;stroke-width:.60000002;stroke-miterlimit:4;stroke-dasharray:none" id="rect3053-3" width="77.972" height="8.392" x="37.86" y="177.333"/><rect style="fill:#ccc;stroke-width:.60000002;stroke-miterlimit:4;stroke-dasharray:none" id="rect3055-6" width="2.797" height="3.147" x="74.475" y="187.683"/><rect style="fill:#b3b3b3;stroke-width:.60000002;stroke-miterlimit:4;stroke-dasharray:none" id="rect3053-8-3" width="69.93" height="8.392" x="41.161" y="200.018"/><rect style="fill:#b3b3b3;stroke-width:.60000002;stroke-miterlimit:4;stroke-dasharray:none" id="rect3053-6-2" width="76.923" height="8.392" x="37.79" y="283.655"/><rect style="fill:#b3b3b3;stroke-width:.60000002;stroke-miterlimit:4;stroke-dasharray:none" id="rect3053-6-9-1" width="76.923" height="8.392" x="40.657" y="306.536"/><rect style="fill:#000;stroke-width:.60000002;stroke-miterlimit:4;stroke-dasharray:none" id="rect3100-3" width="108.674" height="14.336" x="19.412" y="185.683"/><rect style="fill:#000;stroke-width:.60000002;stroke-miterlimit:4;stroke-dasharray:none" id="rect3100-9-8" width="108.15" height="14.336" x="19.545" y="292.207"/><polygon id="polygon48-3" points="40.284 146.7 40.284 54.405 52.021 54.405 52.021 40.21 26.718 40.21 26.718 160.894 52.021 160.894 52.021 146.7" transform="translate(-7.3480091,301.38738)"/><path id="path50-4" d="m 44.672993,364.29639 c 4.697,0 8.504,-3.807 8.504,-8.504 v -14.195 c 0,-4.69701 -3.807,-8.50401 -8.504,-8.50401 H 19.369992 c -4.697,0 -8.504,3.807 -8.504,8.50401 v 120.68399 c 0,4.697 3.807,8.504 8.504,8.504 h 25.303001 c 4.697,0 8.504,-3.807 8.504,-8.504 v -14.194 c 0,-4.697 -3.807,-8.504 -8.504,-8.504 h -3.233 v -75.28699 h 3.233 z m 0,97.98499 H 19.369992 V 341.59739 h 25.303001 v 14.194 H 32.935992 v 92.29599 h 11.737001 v 14.194 z" style="fill:#b3b3b3"/><polygon id="polygon52-1" points="96.529 146.7 84.792 146.7 84.792 160.894 110.095 160.894 110.095 40.21 84.792 40.21 84.792 54.276 96.529 54.276" transform="translate(18.651992,301.38738)"/><path id="path54-8" d="m 128.74699,333.09438 h -25.303 c -4.697,0 -8.504,3.807 -8.504,8.50401 v 14.066 c 0,4.697 3.807,8.504 8.504,8.504 h 3.233 v 75.41599 h -3.233 c -4.697,0 -8.504,3.807 -8.504,8.504 v 14.194 c 0,4.697 3.807,8.504 8.504,8.504 h 25.303 c 4.697,0 8.504,-3.807 8.504,-8.504 V 341.59739 c 0,-4.69601 -3.807,-8.50301 -8.504,-8.50301 z m -25.303,114.993 h 11.737 v -92.42399 h -11.737 v -14.066 h 25.303 v 120.68399 h -25.303 v -14.194 z" style="fill:#b3b3b3"/><rect style="fill:#b3b3b3;stroke-width:.60000002;stroke-miterlimit:4;stroke-dasharray:none" id="rect3053-87" width="77.972" height="8.392" x="38.065" y="333.184"/><rect style="fill:#ccc;stroke-width:.60000002;stroke-miterlimit:4;stroke-dasharray:none" id="rect3055-7" width="2.797" height="3.147" x="74.68" y="343.533"/><rect style="fill:#b3b3b3;stroke-width:.60000002;stroke-miterlimit:4;stroke-dasharray:none" id="rect3053-8-4" width="69.93" height="8.392" x="41.365" y="355.869"/><rect style="fill:#b3b3b3;stroke-width:.60000002;stroke-miterlimit:4;stroke-dasharray:none" id="rect3053-6-0" width="76.923" height="8.392" x="37.995" y="439.505"/><rect style="fill:#b3b3b3;stroke-width:.60000002;stroke-miterlimit:4;stroke-dasharray:none" id="rect3053-6-9-17" width="76.923" height="8.392" x="40.862" y="462.387"/><rect style="fill:#000;stroke-width:.60000002;stroke-miterlimit:4;stroke-dasharray:none" id="rect3100-1" width="108.674" height="14.336" x="19.617" y="341.533"/><rect style="fill:#000;stroke-width:.60000002;stroke-miterlimit:4;stroke-dasharray:none" id="rect3100-9-6" width="108.15" height="14.336" x="19.75" y="448.058"/></svg>