<svg xmlns="http://www.w3.org/2000/svg" xmlns:svg="http://www.w3.org/2000/svg" xmlns:xlink="http://www.w3.org/1999/xlink" id="svg2" width="177" height="177" version="1.0" viewBox="0 0 177 177"><defs id="defs4"><linearGradient id="linearGradient3263"><stop id="stop3265" offset="0" style="stop-color:#224500"/><stop id="stop3267" offset="1" style="stop-color:#224500;stop-opacity:0"/></linearGradient><linearGradient id="linearGradient3551" x1="1590.3" x2="1748.1" y1="318.69" y2="170.12" gradientUnits="userSpaceOnUse" spreadMethod="reflect"><stop id="stop3199" offset="0" style="stop-color:#54a706"/><stop id="stop3201" offset="1" style="stop-color:#3d7a04"/></linearGradient><linearGradient id="linearGradient3553" x1="1730.5" x2="1199" y1="153.77" y2="350.92" gradientUnits="userSpaceOnUse" xlink:href="#linearGradient3263"/><linearGradient id="linearGradient3555" x1="1798.5" x2="1483.7" y1="250.61" y2="422.04" gradientUnits="userSpaceOnUse" xlink:href="#linearGradient3263"/><linearGradient id="linearGradient3557" x1="1924.2" x2="1551.6" y1="365.47" y2="551.18" gradientUnits="userSpaceOnUse" xlink:href="#linearGradient3263"/><linearGradient id="linearGradient3559" x1="1722.7" x2="1857.3" y1="145.07" y2="-68.031" gradientUnits="userSpaceOnUse" xlink:href="#linearGradient3263"/><linearGradient id="linearGradient3561" x1="1826.6" x2="2005.3" y1="241.03" y2="-15.856" gradientUnits="userSpaceOnUse" xlink:href="#linearGradient3263"/><linearGradient id="linearGradient3563" x1="1916.9" x2="2122.7" y1="346.47" y2="62.191" gradientUnits="userSpaceOnUse" xlink:href="#linearGradient3263"/><linearGradient id="linearGradient3565" x1="1635.8" x2="1690.8" y1="60.628" y2="-88.688" gradientUnits="userSpaceOnUse" xlink:href="#linearGradient3263"/><linearGradient id="linearGradient3567" x1="1490.3" x2="2153.8" y1="-55.598" y2="324.4" gradientUnits="userSpaceOnUse"><stop id="stop3209" offset="0" style="stop-color:#fff"/><stop id="stop3211" offset="1" style="stop-color:#eeeeec;stop-opacity:0"/></linearGradient></defs><g id="layer1" transform="translate(-48.825,-21.517998)"><g id="g3509" transform="matrix(0.02245712,-0.22154389,-0.22739742,-0.02187904,169.33378,511.39093)"><path id="path3511" d="m 1944.4,374.74 c 4.3,15.76 8.1,18.59 11.4,32.33 25,104.32 21.3,169.95 14.6,293.96 -11.5,22.61 -0.8,6.23 -16.9,-1.59 26.5,-120.52 -1.2,-231.24 -9.1,-324.7 z" style="fill:#224500"/><path id="path3513" d="m 1495.3,-68.562 c 643.5,0 678.1,379.6 453.8,475.97 -96.1,194.46 -453.8,184.52 -453.8,-475.97 z" style="fill:url(#linearGradient3551);stroke:#224500;stroke-width:10;stroke-linecap:round;stroke-linejoin:round"/><path id="path3515" d="m 1495.3,-68.562 c 130.2,108.32 255.8,205.77 453.8,475.97" style="opacity:.38666998;fill:none;stroke:#224500;stroke-width:10"/><path id="path3517" d="m 1725.5,137.77 c -27.6,34.48 -126.6,84.28 -202.1,77.01" style="opacity:.27556003;fill:none;stroke:url(#linearGradient3553);stroke-width:10"/><path id="path3519" d="M 1810.1,230.96 C 1774.4,292.85 1625,343.33 1560.6,331.35" style="opacity:.27556003;fill:none;stroke:url(#linearGradient3555);stroke-width:10"/><path id="path3521" d="m 1898.1,339.44 c -68,109.72 -160.3,129.33 -254.7,117.68" style="opacity:.27556003;fill:none;stroke:url(#linearGradient3557);stroke-width:10"/><path id="path3523" d="M 1639.1,54.017 C 1617.9,80.812 1546.4,99.301 1503,88.976" style="opacity:.27556003;fill:none;stroke:#224500;stroke-width:10"/><path id="path3525" d="m 1727.7,140.07 c 36.8,-24.4 91,-88.943 90.4,-164.78" style="opacity:.27556003;fill:none;stroke:url(#linearGradient3559);stroke-width:10"/><path id="path3527" d="m 1814.5,236.03 c 64.7,-30.19 143.2,-135.76 136.9,-200.92" style="opacity:.27556003;fill:none;stroke:url(#linearGradient3561);stroke-width:10"/><path id="path3529" d="m 1904.8,341.47 c 115.3,-58.1 141.7,-119.24 138.4,-214.28" style="opacity:.27556003;fill:none;stroke:url(#linearGradient3563);stroke-width:10"/><path id="path3531" d="m 1640.8,55.628 c 28.6,-18.697 50.3,-67.3 43.9,-111.49" style="opacity:.27556003;fill:none;stroke:url(#linearGradient3565);stroke-width:10"/><path id="path3533" d="m 1495.3,-68.562 c 643.5,0 678.1,379.6 453.8,475.97 -96.1,194.46 -453.8,184.52 -453.8,-475.97 z" style="opacity:.17778003;fill:url(#linearGradient3567)"/></g></g><metadata id="metadata35"/></svg>