<svg xmlns="http://www.w3.org/2000/svg" xmlns:svg="http://www.w3.org/2000/svg" xmlns:xlink="http://www.w3.org/1999/xlink" id="svg3314" width="48" height="48" version="1.0"><defs id="defs3316"><linearGradient id="linearGradient5048"><stop id="stop5050" offset="0" style="stop-color:#000;stop-opacity:0"/><stop id="stop5056" offset=".5" style="stop-color:#000;stop-opacity:1"/><stop id="stop5052" offset="1" style="stop-color:#000;stop-opacity:0"/></linearGradient><linearGradient id="linearGradient3333" x1="302.857" x2="302.857" y1="366.648" y2="609.505" gradientTransform="matrix(6.7324884e-2,0,0,1.4700216e-2,-0.3411391,37.040146)" gradientUnits="userSpaceOnUse" xlink:href="#linearGradient5048"/><radialGradient id="radialGradient3330" cx="605.714" cy="486.648" r="117.143" fx="605.714" fy="486.648" gradientTransform="matrix(-2.3039943e-2,0,0,1.4700216e-2,21.62311,37.040176)" gradientUnits="userSpaceOnUse" xlink:href="#linearGradient5060"/><linearGradient id="linearGradient5060"><stop id="stop5062" offset="0" style="stop-color:#000;stop-opacity:1"/><stop id="stop5064" offset="1" style="stop-color:#000;stop-opacity:0"/></linearGradient><radialGradient id="radialGradient3327" cx="605.714" cy="486.648" r="117.143" fx="605.714" fy="486.648" gradientTransform="matrix(2.3039948e-2,0,0,1.4700216e-2,26.698332,38.040176)" gradientUnits="userSpaceOnUse" xlink:href="#linearGradient5060"/><linearGradient id="linearGradient3104"><stop id="stop3106" offset="0" style="stop-color:#aaa;stop-opacity:1"/><stop id="stop3108" offset="1" style="stop-color:#c8c8c8;stop-opacity:1"/></linearGradient><linearGradient id="linearGradient3324" x1="-51.786" x2="-51.786" y1="50.786" y2="2.906" gradientTransform="matrix(0.8074968,0,0,0.8948322,59.410232,-2.9805533)" gradientUnits="userSpaceOnUse" xlink:href="#linearGradient3104"/><linearGradient id="linearGradient3600"><stop id="stop3602" offset="0" style="stop-color:#f4f4f4;stop-opacity:1"/><stop id="stop3604" offset="1" style="stop-color:#dbdbdb;stop-opacity:1"/></linearGradient><linearGradient id="linearGradient3322" x1="25.132" x2="25.132" y1=".985" y2="47.013" gradientTransform="matrix(1,0,0,0.9561695,-1.0064697e-7,-1.914922)" gradientUnits="userSpaceOnUse" xlink:href="#linearGradient3600"/><radialGradient id="XMLID_8_" cx="102" cy="112.305" r="139.559" gradientUnits="userSpaceOnUse"><stop id="stop41" offset="0" style="stop-color:#b7b8b9;stop-opacity:1"/><stop id="stop47" offset=".189" style="stop-color:#ececec;stop-opacity:1"/><stop id="stop49" offset=".257" style="stop-color:#fafafa;stop-opacity:0"/><stop id="stop51" offset=".301" style="stop-color:#fff;stop-opacity:0"/><stop id="stop53" offset=".531" style="stop-color:#fafafa;stop-opacity:0"/><stop id="stop55" offset=".845" style="stop-color:#ebecec;stop-opacity:0"/><stop id="stop57" offset="1" style="stop-color:#e1e2e3;stop-opacity:0"/></radialGradient><radialGradient id="radialGradient3319" cx="102" cy="112.305" r="139.559" gradientTransform="matrix(0.3617022,0,0,-0.3907784,0.8510637,47.517004)" gradientUnits="userSpaceOnUse" xlink:href="#XMLID_8_"/><linearGradient id="linearGradient3211"><stop id="stop3213" offset="0" style="stop-color:#fff;stop-opacity:1"/><stop id="stop3215" offset="1" style="stop-color:#fff;stop-opacity:0"/></linearGradient><linearGradient id="linearGradient3316" x1="24" x2="24" y1="2" y2="46.017" gradientTransform="matrix(1,0,0,0.9777778,0,-0.9666693)" gradientUnits="userSpaceOnUse" xlink:href="#linearGradient3211"/><filter id="filter3212" width="1.297" height="1.329" x="-.148" y="-.164"><feGaussianBlur id="feGaussianBlur3214" stdDeviation=".774"/></filter><linearGradient id="linearGradient8589"><stop id="stop8591" offset="0" style="stop-color:#fefefe;stop-opacity:1"/><stop id="stop8593" offset="1" style="stop-color:#cbcbcb;stop-opacity:1"/></linearGradient><linearGradient id="linearGradient3312" x1="32.892" x2="36.358" y1="8.059" y2="5.457" gradientTransform="matrix(0.9976985,0,0,1.0406866,0.1638029,-1.1057939)" gradientUnits="userSpaceOnUse" xlink:href="#linearGradient8589"/><linearGradient id="linearGradient2264"><stop id="stop2266" offset="0" style="stop-color:#d7e866;stop-opacity:1"/><stop id="stop2268" offset="1" style="stop-color:#8cab2a;stop-opacity:1"/></linearGradient><linearGradient id="linearGradient2537" x1="24.104" x2="24.104" y1="15.181" y2="34.225" gradientTransform="matrix(0.8988874,0,0,0.8934652,16.536296,16.434028)" gradientUnits="userSpaceOnUse" xlink:href="#linearGradient2264"/><linearGradient id="linearGradient4222"><stop id="stop4224" offset="0" style="stop-color:#fff;stop-opacity:1"/><stop id="stop4226" offset="1" style="stop-color:#fff;stop-opacity:0"/></linearGradient><linearGradient id="linearGradient2534" x1="24.139" x2="24.139" y1="6.532" y2="45.69" gradientTransform="matrix(0.5399382,0,0,0.5366811,25.151077,24.493802)" gradientUnits="userSpaceOnUse" xlink:href="#linearGradient4222"/></defs><g id="layer1"><rect id="rect2879" width="32.508" height="3.57" x="7.738" y="42.43" style="opacity:.3;fill:url(#linearGradient3333);fill-opacity:1;fill-rule:nonzero;stroke:none;stroke-width:1;stroke-linecap:round;stroke-linejoin:miter;marker:none;marker-start:none;marker-mid:none;marker-end:none;stroke-miterlimit:4;stroke-dasharray:none;stroke-dashoffset:0;stroke-opacity:1;visibility:visible;display:inline;overflow:visible"/><path id="path2881" d="M 7.7378475,42.430102 C 7.7378475,42.430102 7.7378475,45.999958 7.7378475,45.999958 C 6.5513473,46.006679 4.869468,45.200135 4.869468,44.2148 C 4.869468,43.229467 6.1935126,42.430103 7.7378475,42.430102 z" style="opacity:.3;fill:url(#radialGradient3330);fill-opacity:1;fill-rule:nonzero;stroke:none;stroke-width:1;stroke-linecap:round;stroke-linejoin:miter;marker:none;marker-start:none;marker-mid:none;marker-end:none;stroke-miterlimit:4;stroke-dasharray:none;stroke-dashoffset:0;stroke-opacity:1;visibility:visible;display:inline;overflow:visible"/><path id="path2883" d="M 40.583598,43.430102 C 40.583598,43.430102 40.583598,46.999958 40.583598,46.999958 C 41.770098,47.006679 43.451978,46.200135 43.451978,45.2148 C 43.451978,44.229467 42.127933,43.430103 40.583598,43.430102 z" style="opacity:.3;fill:url(#radialGradient3327);fill-opacity:1;fill-rule:nonzero;stroke:none;stroke-width:1;stroke-linecap:round;stroke-linejoin:miter;marker:none;marker-start:none;marker-mid:none;marker-end:none;stroke-miterlimit:4;stroke-dasharray:none;stroke-dashoffset:0;stroke-opacity:1;visibility:visible;display:inline;overflow:visible"/><path id="path4160" d="M 6.4999609,0.49719878 C 14.520256,0.49719878 22.540551,0.49719878 30.560847,0.49719878 C 31.96778,0.97185188 39.526301,6.3794034 41.500042,10.123605 C 41.500042,21.583338 41.500042,33.04307 41.500042,44.502803 C 29.833348,44.502803 18.166655,44.502803 6.4999609,44.502803 C 6.4999609,29.834268 6.4999609,15.165733 6.4999609,0.49719878 z" style="fill:url(#linearGradient3322);fill-opacity:1;stroke:url(#linearGradient3324);stroke-width:.99992186;stroke-linecap:butt;stroke-linejoin:round;stroke-miterlimit:4;stroke-dasharray:none;stroke-dashoffset:0;stroke-opacity:1;display:inline"/><path id="path4191" d="M 7.3617017,44 C 7.1624047,44 6.9999997,43.824541 6.9999997,43.60922 L 6.9999997,1.4051701 C 6.9999997,1.1894613 7.1624047,1.0143926 7.3617017,1.0143926 C 14.844793,1.1224073 23.137385,0.85281757 30.611384,1.0412872 L 40.894021,9.9073127 L 41,43.60922 C 41,43.824541 40.837957,44 40.638297,44 L 7.3617017,44 z" style="fill:url(#radialGradient3319);fill-opacity:1"/><path id="path2435" d="M 40.500039,10.258811 C 40.500039,21.207848 40.500039,32.573221 40.500039,43.522258 C 29.500013,43.522258 18.499987,43.522258 7.4999609,43.522258 C 7.4999609,29.507417 7.4999609,15.492577 7.4999609,1.4777367 C 15.061954,1.4777367 22.804295,1.4777367 30.366289,1.4777367" style="opacity:.6;fill:none;fill-opacity:1;stroke:url(#linearGradient3316);stroke-width:.9999218;stroke-linecap:butt;stroke-linejoin:round;stroke-miterlimit:4;stroke-dasharray:none;stroke-dashoffset:0;stroke-opacity:1;display:inline"/><path id="path12038" d="M 28.617256,0.92125832 C 32.899778,0.92125832 30.770506,9.4044296 30.770506,9.4044296 C 30.770506,9.4044296 41.128148,7.6020829 41.128148,12.223174 C 41.128148,9.6134507 29.825844,1.4945784 28.617256,0.92125832 z" style="opacity:.4;fill:#000;fill-opacity:1;fill-rule:evenodd;stroke:none;stroke-width:1px;stroke-linecap:butt;stroke-linejoin:miter;stroke-opacity:1;display:inline;filter:url(#filter3212)"/><path id="path4474" d="M 28.617256,0.92125832 C 31.803749,0.92125832 30.953016,8.5831368 30.953016,8.5831368 C 30.953016,8.5831368 41.128148,7.6020829 41.128148,12.223174 C 41.128148,11.097235 41.214061,10.290929 40.994371,9.9395812 C 39.416058,7.4154025 32.598855,1.7511811 30.137071,1.008793 C 29.952849,0.95323837 29.544367,0.92125832 28.617256,0.92125832 z" style="fill:url(#linearGradient3312);fill-opacity:1;fill-rule:evenodd;stroke:none;stroke-width:1px;stroke-linecap:butt;stroke-linejoin:miter;stroke-opacity:1;display:inline"/><path id="path2262" d="M 34.56638,33.494819 L 34.56638,27.5 L 41.5,27.5 L 41.5,33.494819 L 47.5,33.494819 L 47.5,40.5 L 41.5,40.5 L 41.5,46.5 L 34.560272,46.5 L 34.532403,40.5 L 28.5,40.5 L 28.5,33.494819 L 34.56638,33.494819 z" style="fill:url(#linearGradient2537);fill-opacity:1;fill-rule:evenodd;stroke:#699536;stroke-width:1;stroke-linecap:butt;stroke-linejoin:round;stroke-miterlimit:4;stroke-dasharray:none;stroke-opacity:1;display:inline"/><path id="path2272" d="M 35.5,34.494819 L 35.5,28.5 L 40.5,28.5 L 40.5,34.494819 L 46.5,34.494819 L 46.5,39.5 L 40.5,39.5 L 40.5,45.5 L 35.5,45.5 L 35.5,39.5 L 29.5,39.5 L 29.5,34.494819 L 35.5,34.494819 z" style="opacity:.4;fill:none;fill-opacity:1;fill-rule:evenodd;stroke:url(#linearGradient2534);stroke-width:1;stroke-linecap:butt;stroke-linejoin:miter;stroke-miterlimit:4;stroke-dasharray:none;stroke-opacity:1;display:inline"/></g></svg>