<svg xmlns="http://www.w3.org/2000/svg" xmlns:svg="http://www.w3.org/2000/svg" xmlns:xlink="http://www.w3.org/1999/xlink" id="svg8376" width="48" height="48"><defs id="defs8378"><linearGradient id="linearGradient3415"><stop style="stop-color:black;stop-opacity:0" id="stop3417" offset="0"/><stop id="stop3423" offset=".5" style="stop-color:black;stop-opacity:1"/><stop style="stop-color:black;stop-opacity:0" id="stop3419" offset="1"/></linearGradient><linearGradient id="linearGradient3434" x1="18" x2="18" y1="46" y2="32.999" gradientUnits="userSpaceOnUse" xlink:href="#linearGradient3415"/><radialGradient id="radialGradient3432" cx="6" cy="39.5" r="3" fx="6" fy="39.5" gradientTransform="matrix(1,0,0,2.166667,-45,-125.0833)" gradientUnits="userSpaceOnUse" xlink:href="#linearGradient3399"/><linearGradient id="linearGradient3399"><stop style="stop-color:black;stop-opacity:1" id="stop3401" offset="0"/><stop style="stop-color:black;stop-opacity:0" id="stop3403" offset="1"/></linearGradient><radialGradient id="radialGradient3430" cx="6" cy="39.5" r="3" fx="6" fy="39.5" gradientTransform="matrix(1,0,0,2.166667,0,-46.08333)" gradientUnits="userSpaceOnUse" xlink:href="#linearGradient3399"/><linearGradient id="linearGradient4099-6-7"><stop id="stop4101-1-8" offset="0" style="stop-color:#ddd;stop-opacity:1"/><stop style="stop-color:#fff;stop-opacity:1" id="stop4107-2-2" offset=".345"/><stop id="stop4109-5-7" offset=".727" style="stop-color:#737373;stop-opacity:1"/><stop id="stop4103-9-2" offset="1" style="stop-color:#bbb;stop-opacity:1"/></linearGradient><linearGradient id="linearGradient649" x1="-158.75" x2="-158.75" y1="115.938" y2="134.25" gradientTransform="matrix(0.1892115,-0.1892253,0.1892115,0.1892253,49.738733,-37.732231)" gradientUnits="userSpaceOnUse" xlink:href="#linearGradient4099-6-7"/><linearGradient id="linearGradient4117-1-0"><stop style="stop-color:#f9a9a9;stop-opacity:1" id="stop4121-0-5" offset="0"/><stop style="stop-color:#ab5f5f;stop-opacity:1" id="stop4119-1-6" offset="1"/></linearGradient><radialGradient id="radialGradient691" cx="-138.837" cy="128.001" r="9.127" fx="-138.837" fy="128.001" gradientTransform="matrix(0.320394,-0.3203948,0.322414,0.3224148,50.518433,-74.157887)" gradientUnits="userSpaceOnUse" xlink:href="#linearGradient4117-1-0"/><linearGradient id="linearGradient6437"><stop id="stop6439" offset="0" style="stop-color:#e9b96e;stop-opacity:1"/><stop id="stop6441" offset="1" style="stop-color:#fff;stop-opacity:1"/></linearGradient><linearGradient id="linearGradient6488" x1="26.379" x2="25.485" y1="34.39" y2="32.714" gradientUnits="userSpaceOnUse" xlink:href="#linearGradient6437"/><linearGradient id="linearGradient2301"><stop style="stop-color:#ce5c00;stop-opacity:1" id="stop2303" offset="0"/><stop style="stop-color:#ce5c00" id="stop2305" offset="1"/></linearGradient><linearGradient id="linearGradient6486" x1="23.448" x2="22.81" y1="21.481" y2="22.119" gradientTransform="translate(6.39225,12.18459)" gradientUnits="userSpaceOnUse" xlink:href="#linearGradient2301"/><linearGradient id="linearGradient6445"><stop id="stop6447" offset="0" style="stop-color:#fcaf3e;stop-opacity:1"/><stop id="stop6449" offset="1" style="stop-color:#ce5c00"/></linearGradient><linearGradient id="linearGradient6484" x1="28.079" x2="30.432" y1="12.338" y2="14.691" gradientTransform="translate(6.39225,12.18459)" gradientUnits="userSpaceOnUse" xlink:href="#linearGradient6445"/><linearGradient id="linearGradient1813"><stop style="stop-color:#000;stop-opacity:1" id="stop1815" offset="0"/><stop style="stop-color:#000;stop-opacity:0" id="stop1817" offset="1"/></linearGradient><linearGradient id="linearGradient6482" x1="18.188" x2="32.938" y1="18.538" y2="18.392" gradientTransform="matrix(1,0,0,0.415008,6.5485,26.7669)" gradientUnits="userSpaceOnUse" xlink:href="#linearGradient1813"/><linearGradient id="linearGradient2791"><stop id="stop2793" offset="0" style="stop-color:#555753;stop-opacity:1"/><stop style="stop-color:#cccdcb;stop-opacity:1" id="stop2799" offset=".5"/><stop id="stop2795" offset="1" style="stop-color:#555753;stop-opacity:1"/></linearGradient><linearGradient id="linearGradient2804"><stop id="stop2806" offset="0" style="stop-color:white;stop-opacity:1"/><stop id="stop2808" offset="1" style="stop-color:#d3d7cf;stop-opacity:1"/></linearGradient><linearGradient id="linearGradient4682"><stop id="stop4684" offset="0" style="stop-color:white;stop-opacity:1"/><stop id="stop4686" offset="1" style="stop-color:white;stop-opacity:0"/></linearGradient><linearGradient id="linearGradient4688" x1="6.793" x2="7.922" y1="32.963" y2="54.449" gradientUnits="userSpaceOnUse" xlink:href="#linearGradient4682"/><linearGradient id="linearGradient2919"><stop id="stop2921" offset="0" style="stop-color:#d3d7cf;stop-opacity:1"/><stop id="stop2923" offset="1" style="stop-color:#d3d7cf;stop-opacity:0"/></linearGradient><linearGradient id="linearGradient2925" x1="11.95" x2="94.364" y1="40.665" y2="47.897" gradientTransform="matrix(1,0,0,1.489708,-2,-22.55226)" gradientUnits="userSpaceOnUse" xlink:href="#linearGradient2919"/><linearGradient id="linearGradient4333"><stop id="stop4335" offset="0" style="stop-color:black;stop-opacity:1"/><stop id="stop4337" offset="1" style="stop-color:black;stop-opacity:0"/></linearGradient><radialGradient id="radialGradient4339" cx="37.375" cy="33.188" r="14.625" fx="37.375" fy="33.188" gradientTransform="matrix(1,0,0,0.226496,0,25.67067)" gradientUnits="userSpaceOnUse" xlink:href="#linearGradient4333"/><linearGradient id="linearGradient4700"><stop style="stop-color:#2e3436;stop-opacity:1" id="stop4702" offset="0"/><stop style="stop-color:#888a85;stop-opacity:1" id="stop4704" offset="1"/></linearGradient><linearGradient id="linearGradient4698" x1="5.657" x2="4" y1="53.321" y2="16.003" gradientUnits="userSpaceOnUse" xlink:href="#linearGradient4700"/><linearGradient id="linearGradient4690"><stop id="stop4692" offset="0" style="stop-color:white;stop-opacity:1"/><stop id="stop4694" offset="1" style="stop-color:#eeeeec;stop-opacity:1"/></linearGradient><radialGradient id="radialGradient4696" cx="29.481" cy="36.777" r="18.5" fx="29.481" fy="36.777" gradientTransform="matrix(2.012905,0,0,1.338879,-28.88714,-12.68199)" gradientUnits="userSpaceOnUse" xlink:href="#linearGradient4690"/><radialGradient id="radialGradient8537" cx="12.322" cy="11.669" r="1.5" fx="12.322" fy="11.669" gradientTransform="matrix(9.835652,1.854444e-6,0,1.136384,-108.6942,-1.914856)" gradientUnits="userSpaceOnUse" xlink:href="#linearGradient2804"/><linearGradient id="linearGradient8539" x1="11.669" x2="11.581" y1="6.728" y2="14.663" gradientUnits="userSpaceOnUse" xlink:href="#linearGradient2791"/><radialGradient id="radialGradient10302" cx="37.375" cy="33.188" r="14.625" fx="37.375" fy="33.188" gradientTransform="matrix(1,0,0,0.226496,0,25.67067)" gradientUnits="userSpaceOnUse" xlink:href="#linearGradient4333"/><linearGradient id="linearGradient10304" x1="18.188" x2="32.938" y1="18.538" y2="18.392" gradientTransform="matrix(1,0,0,0.415008,6.5485,26.7669)" gradientUnits="userSpaceOnUse" xlink:href="#linearGradient1813"/><linearGradient id="linearGradient10306" x1="28.079" x2="30.432" y1="12.338" y2="14.691" gradientTransform="translate(6.39225,12.18459)" gradientUnits="userSpaceOnUse" xlink:href="#linearGradient6445"/><linearGradient id="linearGradient10308" x1="23.448" x2="22.81" y1="21.481" y2="22.119" gradientTransform="translate(6.39225,12.18459)" gradientUnits="userSpaceOnUse" xlink:href="#linearGradient2301"/><linearGradient id="linearGradient10310" x1="26.379" x2="25.485" y1="34.39" y2="32.714" gradientUnits="userSpaceOnUse" xlink:href="#linearGradient6437"/><radialGradient id="radialGradient10312" cx="-138.837" cy="128.001" r="9.127" fx="-138.837" fy="128.001" gradientTransform="matrix(0.320394,-0.3203948,0.322414,0.3224148,50.518433,-74.157887)" gradientUnits="userSpaceOnUse" xlink:href="#linearGradient4117-1-0"/><linearGradient id="linearGradient10314" x1="-158.75" x2="-158.75" y1="115.938" y2="134.25" gradientTransform="matrix(0.1892115,-0.1892253,0.1892115,0.1892253,49.738733,-37.732231)" gradientUnits="userSpaceOnUse" xlink:href="#linearGradient4099-6-7"/></defs><metadata id="metadata8381"/><g id="layer1"><g id="g7666" transform="matrix(1.0512821,0,0,0.4615385,-2.1538463,21.269229)" style="opacity:.5"><rect id="rect3397" width="3" height="13" x="3" y="33" style="opacity:1;fill:url(#radialGradient3430);fill-opacity:1;stroke:none;stroke-width:1.00199997;stroke-linecap:square;stroke-linejoin:miter;stroke-miterlimit:4;stroke-dasharray:none;stroke-dashoffset:1.20000057;stroke-opacity:1"/><rect id="rect3407" width="3" height="13" x="-42" y="-46" transform="scale(-1,-1)" style="opacity:1;fill:url(#radialGradient3432);fill-opacity:1;stroke:none;stroke-width:1.00199997;stroke-linecap:square;stroke-linejoin:miter;stroke-miterlimit:4;stroke-dasharray:none;stroke-dashoffset:1.20000057;stroke-opacity:1"/><rect id="rect3413" width="33" height="13" x="6" y="33" style="opacity:1;fill:url(#linearGradient3434);fill-opacity:1;stroke:none;stroke-width:1.00199997;stroke-linecap:square;stroke-linejoin:miter;stroke-miterlimit:4;stroke-dasharray:none;stroke-dashoffset:1.20000057;stroke-opacity:1"/></g><g style="display:inline;enable-background:new" id="layer1-7" transform="translate(-0.9999986,-3.0000074)"><path id="rect3790" d="M 8.267767,10.523348 L 36.73221,10.523348 C 37.711553,10.523348 38.428998,11.276023 38.499977,12.291115 L 40.437477,40 L 40.5,43.5 L 4.5,43.5 L 4.5,40 L 6.5,12.291115 C 6.570075,11.320264 7.288424,10.523348 8.267767,10.523348 z" style="fill:url(#radialGradient4696);fill-opacity:1;stroke:url(#linearGradient4698);stroke-width:.99999952;stroke-linecap:round;stroke-linejoin:round;stroke-miterlimit:4;stroke-dashoffset:0;stroke-opacity:1"/><g id="g2894" transform="translate(-1.75,-1)"><path style="fill:#fff;fill-opacity:1;stroke:none" id="path2878" d="M 13.999999,15.109375 A 1.7421875,1.578125 0 1 1 10.515624,15.109375 A 1.7421875,1.578125 0 1 1 13.999999,15.109375 z" transform="matrix(1.143498,0,0,1.268986,-1.524595,-5.176204)"/><path style="fill:#fff;fill-opacity:1;stroke:none" id="path2880" d="M 13.999999,15.109375 A 1.7421875,1.578125 0 1 1 10.515624,15.109375 A 1.7421875,1.578125 0 1 1 13.999999,15.109375 z" transform="matrix(1.143498,0,0,1.268986,2.475405,-5.176204)"/><path style="fill:#fff;fill-opacity:1;stroke:none" id="path2882" d="M 13.999999,15.109375 A 1.7421875,1.578125 0 1 1 10.515624,15.109375 A 1.7421875,1.578125 0 1 1 13.999999,15.109375 z" transform="matrix(1.143498,0,0,1.268986,6.475405,-5.176204)"/><path style="fill:#fff;fill-opacity:1;stroke:none" id="path2884" d="M 13.999999,15.109375 A 1.7421875,1.578125 0 1 1 10.515624,15.109375 A 1.7421875,1.578125 0 1 1 13.999999,15.109375 z" transform="matrix(1.143498,0,0,1.268986,10.47541,-5.176204)"/><path style="fill:#fff;fill-opacity:1;stroke:none" id="path2886" d="M 13.999999,15.109375 A 1.7421875,1.578125 0 1 1 10.515624,15.109375 A 1.7421875,1.578125 0 1 1 13.999999,15.109375 z" transform="matrix(1.143498,0,0,1.268986,14.47541,-5.176204)"/><path style="fill:#fff;fill-opacity:1;stroke:none" id="path2888" d="M 13.999999,15.109375 A 1.7421875,1.578125 0 1 1 10.515624,15.109375 A 1.7421875,1.578125 0 1 1 13.999999,15.109375 z" transform="matrix(1.143498,0,0,1.268986,18.47541,-5.176204)"/><path style="fill:#fff;fill-opacity:1;stroke:none" id="path2890" d="M 13.999999,15.109375 A 1.7421875,1.578125 0 1 1 10.515624,15.109375 A 1.7421875,1.578125 0 1 1 13.999999,15.109375 z" transform="matrix(1.143498,0,0,1.268986,22.47541,-5.176204)"/></g><rect id="rect2757" width="35" height="3.01" x="5" y="40" style="fill:url(#linearGradient2925);fill-opacity:1;stroke:none"/><path id="path4680" d="M 8.28125,11.5 C 7.8175892,11.5 7.5065211,11.820452 7.46875,12.34375 L 5.46875,40 L 5.46875,40.0625 L 5.46875,42.53125 L 39.5,42.53125 L 39.46875,40.0625 L 39.46875,40.03125 L 37.53125,12.34375 C 37.490391,11.75941 37.211695,11.5 36.71875,11.5 L 8.28125,11.5 z" style="fill:none;stroke:url(#linearGradient4688);stroke-width:1;stroke-linecap:round;stroke-linejoin:miter;stroke-miterlimit:4;stroke-dasharray:none;stroke-dashoffset:0;stroke-opacity:1"/><path id="path2760" d="M 4.5,43.5 L 40.5,43.5" style="fill:none;stroke:#373a3a;stroke-width:1px;stroke-linecap:square;stroke-linejoin:miter;stroke-opacity:1"/><g id="g2814" transform="translate(-2,-1)"><rect style="fill:url(#radialGradient8537);fill-opacity:1;stroke:url(#linearGradient8539);stroke-width:1.00199974;stroke-linecap:square;stroke-linejoin:miter;stroke-miterlimit:4;stroke-dasharray:none;stroke-dashoffset:1.20000057;stroke-opacity:1" id="rect2776" width="1.998" height="5.044" x="11.501" y="9.501" rx=".999" ry="1.507"/><path style="fill:#fff;fill-opacity:1;stroke:none" id="path2812" d="M 12.71875,11.257812 A 0.59375,0.6484375 0 1 1 11.53125,11.257812 A 0.59375,0.6484375 0 1 1 12.71875,11.257812 z" transform="translate(-0.21875,-0.109374)"/></g><g style="opacity:.6" id="g2953" transform="translate(0,-1)"><rect style="opacity:.8;fill:#888a85;fill-opacity:1;stroke:none" id="rect3297" width="5" height="1" x="31" y="18" rx=".5" ry=".5"/><rect style="opacity:.8;fill:#888a85;fill-opacity:1;stroke:none" id="rect3305" width="2.125" height="1" x="8.875" y="20" rx=".5" ry=".5"/><rect style="opacity:.8;fill:#888a85;fill-opacity:1;stroke:none" id="rect3287" width="4.172" height="1" x="7.828" y="36" rx=".461" ry=".5"/><rect style="opacity:.8;fill:#888a85;fill-opacity:1;stroke:none" id="rect3307" width="8.391" height="1" x="8.609" y="23" rx=".5" ry=".5"/><rect style="opacity:.8;fill:#888a85;fill-opacity:1;stroke:none" id="rect3309" width="3.516" height="1" x="8.484" y="25" rx=".495" ry=".5"/><rect style="opacity:.8;fill:#888a85;fill-opacity:1;stroke:none" id="rect3313" width="4" height="1" x="33" y="33" rx=".5" ry=".5"/><rect style="opacity:.8;fill:#888a85;fill-opacity:1;stroke:none" id="rect2940" width="3" height="1" x="21" y="36" rx=".5" ry=".5"/><rect style="opacity:.8;fill:#888a85;fill-opacity:1;stroke:none" id="rect2915" width="5" height="1" x="30" y="23" rx=".542" ry=".5"/><rect style="opacity:.8;fill:#888a85;fill-opacity:1;stroke:none" id="rect2885" width="2.641" height="1" x="8.359" y="28" rx=".5" ry=".5"/><rect style="opacity:.8;fill:#888a85;fill-opacity:1;stroke:none" id="rect2893" width="6" height="1" x="9" y="18" rx=".5" ry=".5"/><rect style="opacity:.8;fill:#888a85;fill-opacity:1;stroke:none" id="rect2895" width="5" height="1" x="21" y="18" rx=".5" ry=".5"/><rect style="opacity:.8;fill:#888a85;fill-opacity:1;stroke:none" id="rect2897" width="2" height="1" x="28" y="18" rx=".5" ry=".5"/><rect style="opacity:.8;fill:#888a85;fill-opacity:1;stroke:none" id="rect2899" width="2" height="1" x="16" y="18" rx=".5" ry=".5"/><rect style="opacity:.8;fill:#888a85;fill-opacity:1;stroke:none" id="rect2901" width="2" height="1" x="19" y="18" rx=".5" ry=".5"/><rect style="opacity:.8;fill:#888a85;fill-opacity:1;stroke:none" id="rect2903" width="4" height="1" x="12" y="20" rx=".542" ry=".5"/><rect style="opacity:.8;fill:#888a85;fill-opacity:1;stroke:none" id="rect2905" width="2" height="1" x="17" y="20" rx=".542" ry=".5"/><rect style="opacity:.8;fill:#888a85;fill-opacity:1;stroke:none" id="rect2907" width="4" height="1" x="20" y="20" rx=".542" ry=".5"/><rect style="opacity:.8;fill:#888a85;fill-opacity:1;stroke:none" id="rect2909" width="4" height="1" x="19" y="23" rx=".542" ry=".5"/><rect style="opacity:.8;fill:#888a85;fill-opacity:1;stroke:none" id="rect2911" width="2" height="1" x="23" y="23" rx=".542" ry=".5"/><rect style="opacity:.8;fill:#888a85;fill-opacity:1;stroke:none" id="rect2913" width="3" height="1" x="26" y="23" rx=".542" ry=".5"/><rect style="opacity:.8;fill:#888a85;fill-opacity:1;stroke:none" id="rect2919" width="2" height="1" x="13" y="25" rx=".542" ry=".5"/><rect style="opacity:.8;fill:#888a85;fill-opacity:1;stroke:none" id="rect2921" width="4" height="1" x="16" y="25" rx=".542" ry=".5"/><rect style="opacity:.8;fill:#888a85;fill-opacity:1;stroke:none" id="rect2923" width="2" height="1" x="20" y="25" rx=".542" ry=".5"/><rect style="opacity:.8;fill:#888a85;fill-opacity:1;stroke:none" id="rect2925" width="2" height="1" x="24" y="25" rx=".542" ry=".5"/><rect style="opacity:.8;fill:#888a85;fill-opacity:1;stroke:none" id="rect2931" width="2" height="1" x="12" y="28" rx=".542" ry=".5"/><rect style="opacity:.8;fill:#888a85;fill-opacity:1;stroke:none" id="rect2933" width="4" height="1" x="14" y="28" rx=".542" ry=".5"/><rect style="opacity:.8;fill:#888a85;fill-opacity:1;stroke:none" id="rect2935" width="2" height="1" x="19" y="28" rx=".542" ry=".5"/><rect style="opacity:.8;fill:#888a85;fill-opacity:1;stroke:none" id="rect2938" width="6" height="1" x="13" y="36" rx=".542" ry=".5"/><rect style="opacity:.8;fill:#888a85;fill-opacity:1;stroke:none" id="rect2942" width="2" height="1" x="8" y="33" rx=".5" ry=".5"/><rect style="opacity:.8;fill:#888a85;fill-opacity:1;stroke:none" id="rect2945" width="4" height="1" x="11" y="33" rx=".542" ry=".5"/><rect style="opacity:.8;fill:#888a85;fill-opacity:1;stroke:none" id="rect2947" width="5" height="1" x="17" y="33" rx=".542" ry=".5"/><rect style="opacity:.8;fill:#888a85;fill-opacity:1;stroke:none" id="rect2949" width="4" height="1" x="23" y="33" rx=".542" ry=".5"/><rect style="opacity:.8;fill:#888a85;fill-opacity:1;stroke:none" id="rect2951" width="4" height="1" x="28.008" y="33.004" rx=".542" ry=".5"/></g><use id="use4712" width="48" height="48" x="0" y="0" transform="translate(4,0)" xlink:href="#g2814"/><use id="use4714" width="48" height="48" x="0" y="0" transform="translate(8,0)" xlink:href="#g2814"/><use id="use4716" width="48" height="48" x="0" y="0" transform="translate(12,0)" xlink:href="#g2814"/><use id="use4718" width="48" height="48" x="0" y="0" transform="translate(16,0)" xlink:href="#g2814"/><use id="use4720" width="48" height="48" x="0" y="0" transform="translate(20,0)" xlink:href="#g2814"/><use id="use4722" width="48" height="48" x="0" y="0" transform="translate(24,0)" xlink:href="#g2814"/></g><g style="display:inline;enable-background:new" id="g10273" transform="translate(-2.000002,-2.999997)"><path id="path4331" d="M 52,33.1875 A 14.625,3.3125 0 1 1 22.75,33.1875 A 14.625,3.3125 0 1 1 52,33.1875 z" transform="matrix(0.897436,0,0,0.981132,1.333333,1.688679)" style="opacity:.07000002;fill:url(#radialGradient10302);fill-opacity:1;stroke:none"/><g id="g10286"><path style="opacity:.4;fill:url(#linearGradient10304);fill-opacity:1;fill-rule:evenodd;stroke:none;display:inline" id="path2334" d="M 41.07975,28.46584 L 26.07975,32.938753 L 25.95475,33.003593 L 25.861,33.081403 L 23.111,35.934581 L 30.5485,35.091597 L 30.82975,35.065657 L 31.01725,34.987847 L 41.07975,32.304654 L 41.07975,28.465833 L 41.07975,28.46584 L 41.07975,28.46584 z"/><g id="g10289"><g id="g10291"><path id="path2273" d="M 25.89225,30.18459 L 44.89225,11.18459 C 47.067299,11.544551 47.976969,12.916815 48.39225,14.68459 L 29.39225,33.68459 L 24.776133,34.389095 L 25.89225,30.18459 L 25.89225,30.18459 L 25.89225,30.18459 z" style="fill:url(#linearGradient10306);fill-opacity:1;fill-rule:evenodd;stroke:url(#linearGradient10308);stroke-width:1;stroke-linecap:butt;stroke-linejoin:round;stroke-miterlimit:4;stroke-dasharray:none;stroke-opacity:1"/><path id="path2313" d="M 26.792248,30.68459 L 45.289998,12.286842 C 46.379743,12.465277 46.807259,13.274786 47.289998,14.286842 L 28.89225,32.784592 L 25.592247,33.684593 L 26.792248,30.68459 L 26.792248,30.68459 L 26.792248,30.68459 z" style="opacity:.28235294;fill:none;stroke:#fff;stroke-width:1.0000006;stroke-linecap:butt;stroke-linejoin:miter;stroke-miterlimit:4;stroke-dasharray:none;stroke-opacity:1;display:inline"/></g><g id="g10295"><path id="path2298" d="M 24.549577,34.633026 L 26.215899,30.452717 C 26.215899,30.452717 27.415434,30.698077 28.148076,31.427806 C 28.880718,32.157535 29.146467,33.371634 29.146467,33.371634 L 24.549577,34.633026 z" style="fill:url(#linearGradient10310);fill-opacity:1;fill-rule:evenodd;stroke:none"/><path id="path5446" d="M 23,21.5 L 17.5,23 L 19.5,18" transform="translate(6.39225,12.18459)" style="fill:none;stroke:#e9b96e;stroke-width:1;stroke-linecap:round;stroke-linejoin:round;stroke-miterlimit:4;stroke-dasharray:none;stroke-opacity:1"/><path id="path2283" d="M 23.95475,33.68459 L 23.0485,35.93459 L 25.39225,35.27834 C 25.39425,35.2465 25.39225,35.21693 25.39225,35.18459 C 25.39225,34.382465 24.746942,33.724789 23.95475,33.68459 z" style="fill:#000;fill-opacity:1;fill-rule:evenodd;stroke:none;display:inline"/></g></g></g><path style="fill:url(#radialGradient10312);fill-opacity:1;fill-rule:nonzero;stroke:#ef2929;stroke-width:.99999994;marker:none;visibility:visible;display:inline;overflow:visible;enable-background:new" id="path4113-1" d="M 42.821682,13.147263 C 44.655834,12.646732 46.706734,14.798738 46.271593,16.597182 L 48.46699,14.40178 C 49.533501,11.935217 47.334738,9.9920671 44.972276,10.907057 L 42.821682,13.147263 L 42.821682,13.147263 z"/><path id="path4095-8" d="M 40.561976,15.25084 C 42.498424,14.722356 44.663708,16.994546 44.204297,18.893426 L 46.522138,16.575416 C 47.276595,14.97964 44.477505,12.237921 42.832513,12.885525 L 40.561976,15.25084 L 40.561976,15.25084 z" style="fill:url(#linearGradient10314);fill-opacity:1;fill-rule:nonzero;stroke:#888a85;stroke-width:1;marker:none;visibility:visible;display:inline;overflow:visible;enable-background:new"/></g></g></svg>