<svg xmlns="http://www.w3.org/2000/svg" xmlns:svg="http://www.w3.org/2000/svg" xmlns:xlink="http://www.w3.org/1999/xlink" id="svg7232" width="48" height="48"><defs id="defs7234"><radialGradient id="radialGradient5480" cx="29.922" cy="17.728" r="17.986" fx="29.922" fy="17.728" gradientTransform="matrix(0.558489,0,-1.377346e-8,0.563387,14.87134,4.364123)" gradientUnits="userSpaceOnUse" xlink:href="#linearGradient4562"/><radialGradient id="radialGradient5478" cx="31.113" cy="19.009" r="8.662" fx="31.113" fy="19.009" gradientUnits="userSpaceOnUse" xlink:href="#linearGradient3816"/><linearGradient id="linearGradient5476" x1="20.662" x2="22.627" y1="35.818" y2="36.218" gradientTransform="matrix(1.004822,0.185726,-0.185548,1.005788,-9.182192,-11.89716)" gradientUnits="userSpaceOnUse" xlink:href="#linearGradient4356"/><linearGradient id="linearGradient5474" x1="22.687" x2="21.408" y1="36.39" y2="35.74" gradientTransform="matrix(-0.999008,0.214863,0.214657,0.999968,41.63405,-13.05229)" gradientUnits="userSpaceOnUse" xlink:href="#linearGradient4356"/><radialGradient id="radialGradient5472" cx="24.754" cy="26.814" r="17.986" fx="24.754" fy="26.814" gradientTransform="matrix(1.046177,0,-2.580083e-8,1.017815,-9.084376,-6.268494)" gradientUnits="userSpaceOnUse" xlink:href="#linearGradient4562"/><radialGradient id="radialGradient5470" cx="605.714" cy="486.648" r="117.143" fx="605.714" fy="486.648" gradientTransform="matrix(-2.774389,0,0,1.969706,112.7623,-872.8854)" gradientUnits="userSpaceOnUse" xlink:href="#linearGradient5060"/><radialGradient id="radialGradient5468" cx="605.714" cy="486.648" r="117.143" fx="605.714" fy="486.648" gradientTransform="matrix(2.774389,0,0,1.969706,-1891.633,-872.8854)" gradientUnits="userSpaceOnUse" xlink:href="#linearGradient5060"/><linearGradient id="linearGradient5466" x1="302.857" x2="302.857" y1="366.648" y2="609.505" gradientTransform="matrix(2.774389,0,0,1.969706,-1892.179,-872.8854)" gradientUnits="userSpaceOnUse" xlink:href="#linearGradient5048"/><linearGradient id="linearGradient5464" x1="22.687" x2="21.408" y1="36.39" y2="35.74" gradientTransform="matrix(-1.308485,0.281154,0.281154,1.308485,35.90908,-26.21225)" gradientUnits="userSpaceOnUse" xlink:href="#linearGradient4356"/><linearGradient id="linearGradient5462" x1="30.936" x2="30.936" y1="29.553" y2="35.803" gradientTransform="matrix(1.33835,0,0,1.33835,-36.66116,-20.70004)" gradientUnits="userSpaceOnUse" xlink:href="#linearGradient3824"/><radialGradient id="radialGradient5500" cx="29.922" cy="17.728" r="17.986" fx="29.922" fy="17.728" gradientTransform="matrix(0.558489,0,-1.377346e-8,0.563387,14.87134,4.364123)" gradientUnits="userSpaceOnUse" xlink:href="#linearGradient4562"/><linearGradient id="linearGradient3816"><stop style="stop-color:#000;stop-opacity:1" id="stop3818" offset="0"/><stop style="stop-color:#000;stop-opacity:0" id="stop3820" offset="1"/></linearGradient><radialGradient id="radialGradient5498" cx="31.113" cy="19.009" r="8.662" fx="31.113" fy="19.009" gradientUnits="userSpaceOnUse" xlink:href="#linearGradient3816"/><linearGradient id="linearGradient5496" x1="20.662" x2="22.627" y1="35.818" y2="36.218" gradientTransform="matrix(1.004822,0.185726,-0.185548,1.005788,-9.182192,-11.89716)" gradientUnits="userSpaceOnUse" xlink:href="#linearGradient4356"/><linearGradient id="linearGradient5494" x1="22.687" x2="21.408" y1="36.39" y2="35.74" gradientTransform="matrix(-0.999008,0.214863,0.214657,0.999968,41.63405,-13.05229)" gradientUnits="userSpaceOnUse" xlink:href="#linearGradient4356"/><linearGradient id="linearGradient4562"><stop style="stop-color:#fff;stop-opacity:1" id="stop4564" offset="0"/><stop style="stop-color:#d6d6d2;stop-opacity:1" id="stop4566" offset="1"/></linearGradient><radialGradient id="radialGradient5492" cx="24.754" cy="26.814" r="17.986" fx="24.754" fy="26.814" gradientTransform="matrix(1.046177,0,-2.580083e-8,1.017815,-9.084376,-6.268494)" gradientUnits="userSpaceOnUse" xlink:href="#linearGradient4562"/><radialGradient id="radialGradient5490" cx="605.714" cy="486.648" r="117.143" fx="605.714" fy="486.648" gradientTransform="matrix(-2.774389,0,0,1.969706,112.7623,-872.8854)" gradientUnits="userSpaceOnUse" xlink:href="#linearGradient5060"/><linearGradient id="linearGradient5060"><stop style="stop-color:black;stop-opacity:1" id="stop5062" offset="0"/><stop style="stop-color:black;stop-opacity:0" id="stop5064" offset="1"/></linearGradient><radialGradient id="radialGradient5488" cx="605.714" cy="486.648" r="117.143" fx="605.714" fy="486.648" gradientTransform="matrix(2.774389,0,0,1.969706,-1891.633,-872.8854)" gradientUnits="userSpaceOnUse" xlink:href="#linearGradient5060"/><linearGradient id="linearGradient5048"><stop style="stop-color:black;stop-opacity:0" id="stop5050" offset="0"/><stop id="stop5056" offset=".5" style="stop-color:black;stop-opacity:1"/><stop style="stop-color:black;stop-opacity:0" id="stop5052" offset="1"/></linearGradient><linearGradient id="linearGradient5486" x1="302.857" x2="302.857" y1="366.648" y2="609.505" gradientTransform="matrix(2.774389,0,0,1.969706,-1892.179,-872.8854)" gradientUnits="userSpaceOnUse" xlink:href="#linearGradient5048"/><linearGradient id="linearGradient4356"><stop style="stop-color:#000;stop-opacity:1" id="stop4358" offset="0"/><stop style="stop-color:#000;stop-opacity:0" id="stop4360" offset="1"/></linearGradient><linearGradient id="linearGradient5484" x1="22.687" x2="21.408" y1="36.39" y2="35.74" gradientTransform="matrix(-1.308485,0.281154,0.281154,1.308485,35.90908,-26.21225)" gradientUnits="userSpaceOnUse" xlink:href="#linearGradient4356"/><linearGradient id="linearGradient3824"><stop style="stop-color:#fff;stop-opacity:1" id="stop3826" offset="0"/><stop style="stop-color:#c9c9c9;stop-opacity:1" id="stop3828" offset="1"/></linearGradient><linearGradient id="linearGradient5482" x1="30.936" x2="30.936" y1="29.553" y2="35.803" gradientTransform="matrix(1.33835,0,0,1.33835,-36.66116,-20.70004)" gradientUnits="userSpaceOnUse" xlink:href="#linearGradient3824"/></defs><metadata id="metadata7237"/><g id="layer1"><g id="g5419" transform="translate(0.9999708,2.9998707)" style="opacity:.78857141;display:inline"><path id="path4173" d="M 10.183488,24.850231 L 15.861626,24.850231 L 12.54938,21.774572 L 11.839612,22.720929 L 11.129844,22.011162 L 10.183488,24.850231 z" style="opacity:1;fill:url(#linearGradient5482);fill-opacity:1;fill-rule:evenodd;stroke:none;stroke-width:1px;stroke-linecap:round;stroke-linejoin:round;marker:none;marker-start:none;marker-mid:none;marker-end:none;stroke-miterlimit:4;stroke-dasharray:none;stroke-dashoffset:0;stroke-opacity:1;visibility:visible;display:inline;overflow:visible"/><path style="opacity:.22784807;fill:url(#linearGradient5484);fill-opacity:1;fill-rule:evenodd;stroke:none;stroke-width:1px;stroke-linecap:round;stroke-linejoin:round;marker:none;marker-start:none;marker-mid:none;marker-end:none;stroke-miterlimit:4;stroke-dasharray:none;stroke-dashoffset:0;stroke-opacity:1;visibility:visible;display:inline;overflow:visible" id="path4370" d="M 16.700942,32.490544 C 18.348787,31.712992 19.115834,29.810737 19.115834,29.810737 C 17.832196,24.39981 13.794355,20.652646 13.794355,20.652646 C 13.794355,20.652646 17.092843,29.141269 16.700942,32.490544 z"/><g id="g5022" transform="matrix(1.443435e-2,0,0,1.697277e-2,30.00245,30.05774)" style="display:inline"><rect style="opacity:.40206185;fill:url(#linearGradient5486);fill-opacity:1;fill-rule:nonzero;stroke:none;stroke-width:1;stroke-linecap:round;stroke-linejoin:miter;marker:none;marker-start:none;marker-mid:none;marker-end:none;stroke-miterlimit:4;stroke-dasharray:none;stroke-dashoffset:0;stroke-opacity:1;visibility:visible;display:inline;overflow:visible" id="rect4173" width="1339.633" height="478.357" x="-1559.252" y="-150.697"/><path style="opacity:.40206185;fill:url(#radialGradient5488);fill-opacity:1;fill-rule:nonzero;stroke:none;stroke-width:1;stroke-linecap:round;stroke-linejoin:miter;marker:none;marker-start:none;marker-mid:none;marker-end:none;stroke-miterlimit:4;stroke-dasharray:none;stroke-dashoffset:0;stroke-opacity:1;visibility:visible;display:inline;overflow:visible" id="path5058" d="M -219.61876,-150.68038 C -219.61876,-150.68038 -219.61876,327.65041 -219.61876,327.65041 C -76.744594,328.55086 125.78146,220.48075 125.78138,88.454235 C 125.78138,-43.572302 -33.655436,-150.68036 -219.61876,-150.68038 z"/><path id="path5018" d="M -1559.2523,-150.68038 C -1559.2523,-150.68038 -1559.2523,327.65041 -1559.2523,327.65041 C -1702.1265,328.55086 -1904.6525,220.48075 -1904.6525,88.454235 C -1904.6525,-43.572302 -1745.2157,-150.68036 -1559.2523,-150.68038 z" style="opacity:.40206185;fill:url(#radialGradient5490);fill-opacity:1;fill-rule:nonzero;stroke:none;stroke-width:1;stroke-linecap:round;stroke-linejoin:miter;marker:none;marker-start:none;marker-mid:none;marker-end:none;stroke-miterlimit:4;stroke-dasharray:none;stroke-dashoffset:0;stroke-opacity:1;visibility:visible;display:inline;overflow:visible"/></g><path id="path4308" d="M 11.666184,33.499999 L 22.630126,33.499999 C 25.736577,33.499999 28.812096,32.401458 29.939419,29.270409 C 31.00995,26.297106 30.122153,20.634992 23.178323,16.052935 L 10.204323,16.052935 C 3.2604944,20.282525 2.3927351,26.06687 3.9914241,29.446641 C 5.6201015,32.889807 8.3770015,33.499999 11.666184,33.499999 z" style="opacity:1;fill:url(#radialGradient5492);fill-opacity:1;fill-rule:evenodd;stroke:#888a85;stroke-width:.99999928px;stroke-linecap:round;stroke-linejoin:round;marker:none;marker-start:none;marker-mid:none;marker-end:none;stroke-miterlimit:4;stroke-dasharray:none;stroke-dashoffset:0;stroke-opacity:1;visibility:visible;display:inline;overflow:visible"/><path style="opacity:.29120878;fill:url(#linearGradient5494);fill-opacity:1;fill-rule:evenodd;stroke:none;stroke-width:1px;stroke-linecap:round;stroke-linejoin:round;marker:none;marker-start:none;marker-mid:none;marker-end:none;stroke-miterlimit:4;stroke-dasharray:none;stroke-dashoffset:0;stroke-opacity:1;visibility:visible;display:inline;overflow:visible" id="path4364" d="M 26.968941,31.809458 C 28.227045,31.215239 28.812673,29.761502 28.812673,29.761502 C 27.832636,25.626372 24.749806,22.762722 24.749806,22.762722 C 24.749806,22.762722 27.268151,29.249881 26.968941,31.809458 z"/><path id="path4354" d="M 6.7785466,32.51927 C 5.5037298,31.961879 4.9331641,30.618639 4.9331641,30.618639 C 5.7927935,26.456761 8.7342195,23.411829 8.7342195,23.411829 C 8.7342195,23.411829 6.4051874,29.969472 6.7785466,32.51927 z" style="opacity:.54945056;fill:url(#linearGradient5496);fill-opacity:1;fill-rule:evenodd;stroke:none;stroke-width:1px;stroke-linecap:round;stroke-linejoin:round;marker:none;marker-start:none;marker-mid:none;marker-end:none;stroke-miterlimit:4;stroke-dasharray:none;stroke-dashoffset:0;stroke-opacity:1;visibility:visible;display:inline;overflow:visible"/><path style="opacity:.64285715;fill:none;fill-opacity:1;fill-rule:evenodd;stroke:#fff;stroke-width:.99999863px;stroke-linecap:round;stroke-linejoin:round;marker:none;marker-start:none;marker-mid:none;marker-end:none;stroke-miterlimit:4;stroke-dasharray:none;stroke-dashoffset:0;stroke-opacity:1;visibility:visible;display:inline;overflow:visible" id="path4314" d="M 11.614344,32.499985 L 22.544063,32.477728 C 25.293538,32.477728 28.01563,31.502849 29.013408,28.724263 C 29.96092,26.085665 28.914748,21.060936 22.768871,16.994681 L 10.764996,16.749865 C 4.6191173,20.503331 3.429572,25.636533 4.8675621,28.880657 C 6.3055541,32.124781 8.4039325,32.477728 11.614344,32.499985 z"/><path style="opacity:1;fill:url(#radialGradient5498);fill-opacity:1;fill-rule:evenodd;stroke:none;stroke-width:1px;stroke-linecap:round;stroke-linejoin:round;marker:none;marker-start:none;marker-mid:none;marker-end:none;stroke-miterlimit:4;stroke-dasharray:none;stroke-dashoffset:0;stroke-opacity:1;visibility:visible;display:inline;overflow:visible" id="path4318" d="M 39.774755,19.008621 A 8.6620579,8.6620579 0 1 1 22.45064,19.008621 A 8.6620579,8.6620579 0 1 1 39.774755,19.008621 z" transform="matrix(1.021809,0,0,1.022791,-15.11053,-5.36187)"/><path id="path4320" d="M 39.774755,19.008621 A 8.6620579,8.6620579 0 1 1 22.45064,19.008621 A 8.6620579,8.6620579 0 1 1 39.774755,19.008621 z" transform="matrix(0.981291,0,0,0.981291,-13.71259,-7.652994)" style="opacity:1;fill:url(#radialGradient5500);fill-opacity:1;fill-rule:evenodd;stroke:#888a85;stroke-width:1.0190649px;stroke-linecap:round;stroke-linejoin:round;marker:none;marker-start:none;marker-mid:none;marker-end:none;stroke-miterlimit:4;stroke-dasharray:none;stroke-dashoffset:0;stroke-opacity:1;visibility:visible;display:inline;overflow:visible"/><path style="opacity:.52571429;fill:none;fill-opacity:1;fill-rule:evenodd;stroke:#fff;stroke-width:1.15494144px;stroke-linecap:round;stroke-linejoin:round;marker:none;marker-start:none;marker-mid:none;marker-end:none;stroke-miterlimit:4;stroke-dasharray:none;stroke-dashoffset:0;stroke-opacity:1;visibility:visible;display:inline;overflow:visible" id="path4322" d="M 39.774755,19.008621 A 8.6620579,8.6620579 0 1 1 22.45064,19.008621 A 8.6620579,8.6620579 0 1 1 39.774755,19.008621 z" transform="matrix(0.865845,0,0,0.865845,-10.12076,-5.458528)"/></g><g style="display:inline" id="g5434" transform="translate(11.788551,8.9059567)"><path style="opacity:1;fill:url(#linearGradient5462);fill-opacity:1;fill-rule:evenodd;stroke:none;stroke-width:1px;stroke-linecap:round;stroke-linejoin:round;marker:none;marker-start:none;marker-mid:none;marker-end:none;stroke-miterlimit:4;stroke-dasharray:none;stroke-dashoffset:0;stroke-opacity:1;visibility:visible;display:inline;overflow:visible" id="path5436" d="M 10.183488,24.850231 L 15.861626,24.850231 L 12.54938,21.774572 L 11.839612,22.720929 L 11.129844,22.011162 L 10.183488,24.850231 z"/><path id="path5438" d="M 16.700942,32.490544 C 18.348787,31.712992 19.115834,29.810737 19.115834,29.810737 C 17.832196,24.39981 13.794355,20.652646 13.794355,20.652646 C 13.794355,20.652646 17.092843,29.141269 16.700942,32.490544 z" style="opacity:.22784807;fill:url(#linearGradient5464);fill-opacity:1;fill-rule:evenodd;stroke:none;stroke-width:1px;stroke-linecap:round;stroke-linejoin:round;marker:none;marker-start:none;marker-mid:none;marker-end:none;stroke-miterlimit:4;stroke-dasharray:none;stroke-dashoffset:0;stroke-opacity:1;visibility:visible;display:inline;overflow:visible"/><g style="display:inline" id="g5440" transform="matrix(1.443435e-2,0,0,1.697277e-2,30.00245,30.05774)"><rect id="rect5442" width="1339.633" height="478.357" x="-1559.252" y="-150.697" style="opacity:.40206185;fill:url(#linearGradient5466);fill-opacity:1;fill-rule:nonzero;stroke:none;stroke-width:1;stroke-linecap:round;stroke-linejoin:miter;marker:none;marker-start:none;marker-mid:none;marker-end:none;stroke-miterlimit:4;stroke-dasharray:none;stroke-dashoffset:0;stroke-opacity:1;visibility:visible;display:inline;overflow:visible"/><path id="path5444" d="M -219.61876,-150.68038 C -219.61876,-150.68038 -219.61876,327.65041 -219.61876,327.65041 C -76.744594,328.55086 125.78146,220.48075 125.78138,88.454235 C 125.78138,-43.572302 -33.655436,-150.68036 -219.61876,-150.68038 z" style="opacity:.40206185;fill:url(#radialGradient5468);fill-opacity:1;fill-rule:nonzero;stroke:none;stroke-width:1;stroke-linecap:round;stroke-linejoin:miter;marker:none;marker-start:none;marker-mid:none;marker-end:none;stroke-miterlimit:4;stroke-dasharray:none;stroke-dashoffset:0;stroke-opacity:1;visibility:visible;display:inline;overflow:visible"/><path style="opacity:.40206185;fill:url(#radialGradient5470);fill-opacity:1;fill-rule:nonzero;stroke:none;stroke-width:1;stroke-linecap:round;stroke-linejoin:miter;marker:none;marker-start:none;marker-mid:none;marker-end:none;stroke-miterlimit:4;stroke-dasharray:none;stroke-dashoffset:0;stroke-opacity:1;visibility:visible;display:inline;overflow:visible" id="path5446" d="M -1559.2523,-150.68038 C -1559.2523,-150.68038 -1559.2523,327.65041 -1559.2523,327.65041 C -1702.1265,328.55086 -1904.6525,220.48075 -1904.6525,88.454235 C -1904.6525,-43.572302 -1745.2157,-150.68036 -1559.2523,-150.68038 z"/></g><path style="opacity:1;fill:url(#radialGradient5472);fill-opacity:1;fill-rule:evenodd;stroke:#888a85;stroke-width:.99999928px;stroke-linecap:round;stroke-linejoin:round;marker:none;marker-start:none;marker-mid:none;marker-end:none;stroke-miterlimit:4;stroke-dasharray:none;stroke-dashoffset:0;stroke-opacity:1;visibility:visible;display:inline;overflow:visible" id="path5448" d="M 11.666184,33.499999 L 22.630126,33.499999 C 25.736577,33.499999 28.812096,32.401458 29.939419,29.270409 C 31.00995,26.297106 30.122153,20.634992 23.178323,16.052935 L 10.204323,16.052935 C 3.2604944,20.282525 2.3927351,26.06687 3.9914241,29.446641 C 5.6201015,32.889807 8.3770015,33.499999 11.666184,33.499999 z"/><path id="path5450" d="M 26.968941,31.809458 C 28.227045,31.215239 28.812673,29.761502 28.812673,29.761502 C 27.832636,25.626372 24.749806,22.762722 24.749806,22.762722 C 24.749806,22.762722 27.268151,29.249881 26.968941,31.809458 z" style="opacity:.29120878;fill:url(#linearGradient5474);fill-opacity:1;fill-rule:evenodd;stroke:none;stroke-width:1px;stroke-linecap:round;stroke-linejoin:round;marker:none;marker-start:none;marker-mid:none;marker-end:none;stroke-miterlimit:4;stroke-dasharray:none;stroke-dashoffset:0;stroke-opacity:1;visibility:visible;display:inline;overflow:visible"/><path style="opacity:.54945056;fill:url(#linearGradient5476);fill-opacity:1;fill-rule:evenodd;stroke:none;stroke-width:1px;stroke-linecap:round;stroke-linejoin:round;marker:none;marker-start:none;marker-mid:none;marker-end:none;stroke-miterlimit:4;stroke-dasharray:none;stroke-dashoffset:0;stroke-opacity:1;visibility:visible;display:inline;overflow:visible" id="path5452" d="M 6.7785466,32.51927 C 5.5037298,31.961879 4.9331641,30.618639 4.9331641,30.618639 C 5.7927935,26.456761 8.7342195,23.411829 8.7342195,23.411829 C 8.7342195,23.411829 6.4051874,29.969472 6.7785466,32.51927 z"/><path id="path5454" d="M 11.614344,32.499985 L 22.544063,32.477728 C 25.293538,32.477728 28.01563,31.502849 29.013408,28.724263 C 29.96092,26.085665 28.914748,21.060936 22.768871,16.994681 L 10.764996,16.749865 C 4.6191173,20.503331 3.429572,25.636533 4.8675621,28.880657 C 6.3055541,32.124781 8.4039325,32.477728 11.614344,32.499985 z" style="opacity:.64285715;fill:none;fill-opacity:1;fill-rule:evenodd;stroke:#fff;stroke-width:.99999863px;stroke-linecap:round;stroke-linejoin:round;marker:none;marker-start:none;marker-mid:none;marker-end:none;stroke-miterlimit:4;stroke-dasharray:none;stroke-dashoffset:0;stroke-opacity:1;visibility:visible;display:inline;overflow:visible"/><path id="path5456" d="M 39.774755,19.008621 A 8.6620579,8.6620579 0 1 1 22.45064,19.008621 A 8.6620579,8.6620579 0 1 1 39.774755,19.008621 z" transform="matrix(1.021809,0,0,1.022791,-15.11053,-5.36187)" style="opacity:1;fill:url(#radialGradient5478);fill-opacity:1;fill-rule:evenodd;stroke:none;stroke-width:1px;stroke-linecap:round;stroke-linejoin:round;marker:none;marker-start:none;marker-mid:none;marker-end:none;stroke-miterlimit:4;stroke-dasharray:none;stroke-dashoffset:0;stroke-opacity:1;visibility:visible;display:inline;overflow:visible"/><path style="opacity:1;fill:url(#radialGradient5480);fill-opacity:1;fill-rule:evenodd;stroke:#888a85;stroke-width:1.0190649px;stroke-linecap:round;stroke-linejoin:round;marker:none;marker-start:none;marker-mid:none;marker-end:none;stroke-miterlimit:4;stroke-dasharray:none;stroke-dashoffset:0;stroke-opacity:1;visibility:visible;display:inline;overflow:visible" id="path5458" d="M 39.774755,19.008621 A 8.6620579,8.6620579 0 1 1 22.45064,19.008621 A 8.6620579,8.6620579 0 1 1 39.774755,19.008621 z" transform="matrix(0.981291,0,0,0.981291,-13.71259,-7.652994)"/><path id="path5460" d="M 39.774755,19.008621 A 8.6620579,8.6620579 0 1 1 22.45064,19.008621 A 8.6620579,8.6620579 0 1 1 39.774755,19.008621 z" transform="matrix(0.865845,0,0,0.865845,-10.12076,-5.458528)" style="opacity:.52571429;fill:none;fill-opacity:1;fill-rule:evenodd;stroke:#fff;stroke-width:1.15494144px;stroke-linecap:round;stroke-linejoin:round;marker:none;marker-start:none;marker-mid:none;marker-end:none;stroke-miterlimit:4;stroke-dasharray:none;stroke-dashoffset:0;stroke-opacity:1;visibility:visible;display:inline;overflow:visible"/></g></g></svg>