<svg xmlns="http://www.w3.org/2000/svg" xmlns:svg="http://www.w3.org/2000/svg" xmlns:xlink="http://www.w3.org/1999/xlink" id="Layer_1" width="512" height="512" x="0" y="0" enable-background="new 0 0 489.309 494.244" version="1.1" viewBox="0 0 512 512" xml:space="preserve"><metadata id="metadata16"/><defs id="defs3"><linearGradient id="linearGradient1913"><stop style="stop-color:#73d216;stop-opacity:1" id="stop1915" offset="0"/><stop style="stop-color:#8ae234;stop-opacity:1" id="stop1917" offset="1"/></linearGradient><linearGradient id="linearGradient5891"><stop style="stop-color:#fff;stop-opacity:1" id="stop5893" offset="0"/><stop style="stop-color:#fff;stop-opacity:0" id="stop5895" offset="1"/></linearGradient><linearGradient id="linearGradient8662"><stop style="stop-color:#000;stop-opacity:1" id="stop8664" offset="0"/><stop style="stop-color:#000;stop-opacity:0" id="stop8666" offset="1"/></linearGradient><linearGradient id="linearGradient8677"><stop id="stop8679" offset="0" style="stop-color:#fcaf3e;stop-opacity:1"/><stop id="stop8681" offset="1" style="stop-color:#fcaf3e;stop-opacity:0"/></linearGradient><linearGradient id="linearGradient8660"><stop id="stop8662" offset="0" style="stop-color:#ce5c00;stop-opacity:1"/><stop id="stop8665" offset="1" style="stop-color:#ce5c00;stop-opacity:0"/></linearGradient><linearGradient id="linearGradient7798"><stop id="stop7800" offset="0" style="stop-color:#f9f9f9;stop-opacity:1"/><stop id="stop7802" offset="1" style="stop-color:#f9f9f9;stop-opacity:0"/></linearGradient><linearGradient id="linearGradient7534"><stop id="stop7536" offset="0" style="stop-color:#729fcf;stop-opacity:1"/><stop id="stop7538" offset="1" style="stop-color:#3465a4;stop-opacity:1"/></linearGradient><linearGradient id="linearGradient7469"><stop id="stop7471" offset="0" style="stop-color:#555753;stop-opacity:1"/><stop id="stop7473" offset="1" style="stop-color:#888a85;stop-opacity:1"/></linearGradient><linearGradient id="linearGradient7428"><stop id="stop7430" offset="0" style="stop-color:#888a85;stop-opacity:0"/><stop id="stop7432" offset="1" style="stop-color:#babdb6;stop-opacity:1"/></linearGradient><linearGradient id="linearGradient6985"><stop style="stop-color:#888a85;stop-opacity:1" id="stop6987" offset="0"/><stop id="stop6991" offset=".34" style="stop-color:#babdb6;stop-opacity:1"/><stop style="stop-color:#555753;stop-opacity:1" id="stop6989" offset="1"/></linearGradient><linearGradient id="linearGradient6949"><stop id="stop6951" offset="0" style="stop-color:#888a85;stop-opacity:1"/><stop id="stop6953" offset="1" style="stop-color:#555753;stop-opacity:1"/></linearGradient><linearGradient id="linearGradient2591"><stop style="stop-color:#7a7a7a;stop-opacity:1" id="stop2593" offset="0"/><stop style="stop-color:#000;stop-opacity:1" id="stop2595" offset="1"/></linearGradient><linearGradient id="linearGradient2631"><stop id="stop2633" offset="0" style="stop-color:#010101;stop-opacity:1"/><stop id="stop2635" offset="1" style="stop-color:#959595;stop-opacity:1"/></linearGradient><linearGradient id="linearGradient3587" x1="18.25" x2="15.5" y1="13.591" y2="22" gradientUnits="userSpaceOnUse" xlink:href="#linearGradient8677"/><linearGradient id="linearGradient3589" x1="15" x2="13.25" y1="14.875" y2="22" gradientUnits="userSpaceOnUse" xlink:href="#linearGradient8660"/><linearGradient id="linearGradient3591" x1="37.625" x2="37.75" y1="18.875" y2="16.25" gradientUnits="userSpaceOnUse" xlink:href="#linearGradient8677"/><linearGradient id="linearGradient3593" x1="17.819" x2="19.663" y1="29.184" y2="36.954" gradientTransform="matrix(0.7071068,0.7071068,-0.7071068,0.7071068,30.694078,-19.616815)" gradientUnits="userSpaceOnUse" xlink:href="#linearGradient5891"/><linearGradient id="linearGradient3595" x1="18.313" x2="22.313" y1="9.438" y2="11.625" gradientTransform="matrix(-0.7071068,-0.7071068,-0.7071068,0.7071068,55.133457,22.500234)" gradientUnits="userSpaceOnUse" xlink:href="#linearGradient5891"/><radialGradient id="radialGradient3597" cx="10.607" cy="11.195" r="7.778" fx="10.607" fy="11.195" gradientTransform="matrix(1,0,0,0.8210228,0,2.003565)" gradientUnits="userSpaceOnUse" xlink:href="#linearGradient8662"/><radialGradient id="radialGradient3599" cx="10.607" cy="11.195" r="7.778" fx="10.607" fy="11.195" gradientTransform="matrix(1,0,0,0.8210228,0,2.003565)" gradientUnits="userSpaceOnUse" xlink:href="#linearGradient8662"/><linearGradient id="linearGradient3601" x1="6.276" x2="7.564" y1="4.897" y2="4.897" gradientTransform="translate(68,-1)" gradientUnits="userSpaceOnUse" xlink:href="#linearGradient6949"/><linearGradient id="linearGradient3603" x1="6.276" x2="7.564" y1="4.897" y2="4.897" gradientTransform="translate(60,-1)" gradientUnits="userSpaceOnUse" xlink:href="#linearGradient6949"/><linearGradient id="linearGradient3605" x1=".973" x2="5.289" y1="17.531" y2="17.531" gradientTransform="translate(60,-1)" gradientUnits="userSpaceOnUse" xlink:href="#linearGradient6985"/><linearGradient id="linearGradient3607" x1="-.201" x2="6.346" y1="17.428" y2="19.182" gradientUnits="userSpaceOnUse" xlink:href="#linearGradient5891"/><linearGradient id="linearGradient3609" x1=".973" x2="5.289" y1="17.531" y2="17.531" gradientTransform="translate(74,-1)" gradientUnits="userSpaceOnUse" xlink:href="#linearGradient6985"/><linearGradient id="linearGradient3611" x1="-.201" x2="6.346" y1="17.428" y2="19.182" gradientUnits="userSpaceOnUse" xlink:href="#linearGradient5891"/><linearGradient id="linearGradient3613" x1="1.484" x2="8.547" y1="17.453" y2="17.453" gradientTransform="translate(60,-1)" gradientUnits="userSpaceOnUse" xlink:href="#linearGradient5891"/><linearGradient id="linearGradient3615" x1="1.484" x2="8.547" y1="17.453" y2="17.453" gradientTransform="translate(74,-1)" gradientUnits="userSpaceOnUse" xlink:href="#linearGradient5891"/><linearGradient id="linearGradient3617" x1="2.281" x2="6.826" y1="10.531" y2="10.531" gradientTransform="translate(60,-1)" gradientUnits="userSpaceOnUse" xlink:href="#linearGradient6985"/><linearGradient id="linearGradient3619" x1="-6.5" x2="-.781" y1="8.625" y2="15.5" gradientUnits="userSpaceOnUse" xlink:href="#linearGradient5891"/><linearGradient id="linearGradient3621" x1="2.281" x2="6.826" y1="10.531" y2="10.531" gradientTransform="translate(71,-1)" gradientUnits="userSpaceOnUse" xlink:href="#linearGradient6985"/><linearGradient id="linearGradient3623" x1="-6.5" x2="-.781" y1="8.625" y2="15.5" gradientTransform="matrix(-1,0,0,1,-8.96875,0)" gradientUnits="userSpaceOnUse" xlink:href="#linearGradient5891"/><linearGradient id="linearGradient3625" x1="8.516" x2="12.946" y1="9.559" y2="9.559" gradientTransform="matrix(0.6,0,0,1,64.4,-1)" gradientUnits="userSpaceOnUse" xlink:href="#linearGradient6985"/><linearGradient id="linearGradient3627" x1="-19.406" x2="-19" y1="6.375" y2="10.719" gradientUnits="userSpaceOnUse" xlink:href="#linearGradient5891"/><radialGradient id="radialGradient3629" cx="10.607" cy="11.195" r="7.778" fx="10.607" fy="11.195" gradientTransform="matrix(1,0,0,0.8210228,0,2.003565)" gradientUnits="userSpaceOnUse" xlink:href="#linearGradient8662"/><radialGradient id="radialGradient3631" cx="10.607" cy="11.195" r="7.778" fx="10.607" fy="11.195" gradientTransform="matrix(1,0,0,0.8210228,0,2.003565)" gradientUnits="userSpaceOnUse" xlink:href="#linearGradient8662"/><linearGradient id="linearGradient3639" x1="-.201" x2="6.346" y1="17.428" y2="19.182" gradientUnits="userSpaceOnUse" xlink:href="#linearGradient5891"/><linearGradient id="linearGradient3643" x1="-.201" x2="6.346" y1="17.428" y2="19.182" gradientUnits="userSpaceOnUse" xlink:href="#linearGradient5891"/><linearGradient id="linearGradient3645" x1="1.484" x2="8.547" y1="17.453" y2="17.453" gradientTransform="translate(60,-1)" gradientUnits="userSpaceOnUse" xlink:href="#linearGradient5891"/><linearGradient id="linearGradient3647" x1="1.484" x2="8.547" y1="17.453" y2="17.453" gradientTransform="translate(74,-1)" gradientUnits="userSpaceOnUse" xlink:href="#linearGradient5891"/><linearGradient id="linearGradient3651" x1="-6.5" x2="-.781" y1="8.625" y2="15.5" gradientUnits="userSpaceOnUse" xlink:href="#linearGradient5891"/><linearGradient id="linearGradient3655" x1="-6.5" x2="-.781" y1="8.625" y2="15.5" gradientTransform="matrix(-1,0,0,1,-8.96875,0)" gradientUnits="userSpaceOnUse" xlink:href="#linearGradient5891"/><linearGradient id="linearGradient3659" x1="-19.406" x2="-19" y1="6.375" y2="10.719" gradientUnits="userSpaceOnUse" xlink:href="#linearGradient5891"/><linearGradient id="linearGradient3661" x1="16.484" x2="20.43" y1="6.192" y2="6.192" gradientUnits="userSpaceOnUse" xlink:href="#linearGradient6985"/><radialGradient id="radialGradient3663" cx="17.344" cy="5.004" r="2.5" fx="17.344" fy="5.004" gradientTransform="matrix(2.0376534,0,0,2.8527147,-17.996801,-9.8700587)" gradientUnits="userSpaceOnUse" xlink:href="#linearGradient7798"/><linearGradient id="linearGradient3665" x1="3.446" x2="16.234" y1="81.853" y2="81.853" gradientTransform="translate(0,90.28125)" gradientUnits="userSpaceOnUse" xlink:href="#linearGradient6985"/><linearGradient id="linearGradient3667" x1="11.444" x2="17.465" y1="17.796" y2="32.92" gradientUnits="userSpaceOnUse" xlink:href="#linearGradient5891"/><radialGradient id="radialGradient3669" cx="16.037" cy="30.995" r="8.143" fx="16.037" fy="30.995" gradientTransform="matrix(1.4132237,0,0,1.4132237,-7.0492445,-15.818799)" gradientUnits="userSpaceOnUse" xlink:href="#linearGradient7534"/><linearGradient id="linearGradient3671" x1="10.537" x2="12.72" y1="20.32" y2="32.347" gradientUnits="userSpaceOnUse" xlink:href="#linearGradient5891"/><linearGradient id="linearGradient3673" x1="3.446" x2="16.234" y1="81.853" y2="81.853" gradientTransform="translate(29,90.28125)" gradientUnits="userSpaceOnUse" xlink:href="#linearGradient6985"/><linearGradient id="linearGradient3675" x1="11.444" x2="17.465" y1="17.796" y2="32.92" gradientUnits="userSpaceOnUse" xlink:href="#linearGradient5891"/><radialGradient id="radialGradient3677" cx="16.037" cy="30.995" r="8.143" fx="16.037" fy="30.995" gradientTransform="matrix(1.4132237,0,0,1.4132237,-7.0492445,-15.818799)" gradientUnits="userSpaceOnUse" xlink:href="#linearGradient7534"/><linearGradient id="linearGradient3679" x1="10.537" x2="12.72" y1="20.32" y2="32.347" gradientUnits="userSpaceOnUse" xlink:href="#linearGradient5891"/><linearGradient id="linearGradient3727" x1="6.276" x2="7.564" y1="4.897" y2="4.897" gradientTransform="translate(68,-1)" gradientUnits="userSpaceOnUse" xlink:href="#linearGradient6949"/><linearGradient id="linearGradient3729" x1="6.276" x2="7.564" y1="4.897" y2="4.897" gradientTransform="translate(60,-1)" gradientUnits="userSpaceOnUse" xlink:href="#linearGradient6949"/><linearGradient id="linearGradient3731" x1=".973" x2="5.289" y1="17.531" y2="17.531" gradientTransform="translate(60,-1)" gradientUnits="userSpaceOnUse" xlink:href="#linearGradient6985"/><linearGradient id="linearGradient3733" x1=".973" x2="5.289" y1="17.531" y2="17.531" gradientTransform="translate(74,-1)" gradientUnits="userSpaceOnUse" xlink:href="#linearGradient6985"/><linearGradient id="linearGradient3735" x1="2.281" x2="6.826" y1="10.531" y2="10.531" gradientTransform="translate(60,-1)" gradientUnits="userSpaceOnUse" xlink:href="#linearGradient6985"/><linearGradient id="linearGradient3737" x1="2.281" x2="6.826" y1="10.531" y2="10.531" gradientTransform="translate(71,-1)" gradientUnits="userSpaceOnUse" xlink:href="#linearGradient6985"/><linearGradient id="linearGradient3739" x1="8.516" x2="12.946" y1="9.559" y2="9.559" gradientTransform="matrix(0.6,0,0,1,64.4,-1)" gradientUnits="userSpaceOnUse" xlink:href="#linearGradient6985"/><radialGradient id="radialGradient3170" cx="24.837" cy="36.421" r="15.645" fx="24.837" fy="36.421" gradientTransform="matrix(1,0,0,0.536723,0,16.87306)" gradientUnits="userSpaceOnUse" xlink:href="#linearGradient8662"/><linearGradient id="linearGradient3172" x1="13.188" x2="17.938" y1="35.938" y2="38.875" gradientUnits="userSpaceOnUse" xlink:href="#linearGradient1913"/><linearGradient id="linearGradient3174" x1="21.552" x2="18.072" y1="29.205" y2="55.692" gradientUnits="userSpaceOnUse" xlink:href="#linearGradient5891"/><linearGradient id="linearGradient3176" x1="15.457" x2="25.561" y1="8.734" y2="13.526" gradientTransform="matrix(-1.4306351,0,0,1.4301566,50.645952,2.3547655)" gradientUnits="userSpaceOnUse" xlink:href="#linearGradient5891"/></defs><path id="path8" d="M 183.504,53.754001 C 113.754,53.754001 57.008,110.5 57.008,180.25 c 0,69.75 56.746,126.496 126.496,126.496 69.75,0 126.497,-56.746 126.497,-126.496 0,-69.75 -56.747,-126.495999 -126.497,-126.495999 z" style="fill:none"/><path id="path10" d="M 497.368,450.74 390.014,343.387 c -2.964,-2.964 -6.85,-4.446 -10.735,-4.446 -3.885,0 -7.771,1.482 -10.735,4.446 l -0.588,0.587 -53.623,-53.623 c 25.061,-29.749 40.171,-68.158 40.171,-110.101 0,-94.440999 -76.56,-170.9999984 -171,-170.9999984 -94.441,0 -171,76.5589994 -171,170.9999984 0,94.44 76.559,171 171,171 39.527,0 75.917,-13.418 104.877,-35.939 l 54.119,54.119 -0.795,0.795 c -5.929,5.931 -5.929,15.542 0,21.472 L 449.057,499.05 c 2.966,2.964 6.852,4.446 10.737,4.446 3.885,0 7.771,-1.482 10.735,-4.446 l 26.838,-26.838 c 5.93,-5.929 5.93,-15.544 10e-4,-21.472 z M 183.504,315.25 c -74.559,0 -135,-60.441 -135,-135 0,-74.559 60.441,-134.999999 135,-134.999999 74.559,0 135,60.440999 135,134.999999 0,74.559 -60.441,135 -135,135 z"/><path id="path12" d="M 503.379,444.726 396.028,337.374 c -4.473,-4.474 -10.422,-6.938 -16.749,-6.938 -3.676,0 -7.224,0.831 -10.429,2.405 l -43.103,-43.103 c 11.011,-14.273 19.754,-30.017 26.039,-46.899 7.446,-20.004 11.222,-41.063 11.222,-62.59 0,-24.229 -4.747,-47.738 -14.11,-69.874 -9.041,-21.375999 -21.983,-40.571999 -38.466,-57.054999 -16.482,-16.482 -35.679,-29.424 -57.055,-38.465 C 231.242,5.4930016 207.733,0.74600165 183.504,0.74600165 c -24.229,0 -47.738,4.74699995 -69.874,14.10999935 -21.376,9.041 -40.572,21.983 -57.055,38.465 C 40.093,69.804001 27.151,89.000001 18.11,110.376 8.747,132.512 4,156.021 4,180.25 c 0,24.229 4.747,47.738 14.11,69.874 9.041,21.376 21.983,40.573 38.465,57.055 16.483,16.482 35.679,29.424 57.055,38.466 22.135,9.362 45.645,14.109 69.874,14.109 20.294,0 40.214,-3.364 59.207,-10 15.991,-5.587 31.048,-13.389 44.854,-23.233 l 43.742,43.742 c -4.489,8.887 -3.027,20.033 4.385,27.446 l 107.352,107.353 c 4.478,4.475 10.426,6.938 16.751,6.938 6.326,0 12.273,-2.464 16.747,-6.936 l 26.84,-26.84 c 4.473,-4.472 6.938,-10.42 6.938,-16.748 0,-6.328 -2.466,-12.277 -6.941,-16.75 z m -43.584,58.769 c -3.886,0 -7.771,-1.482 -10.737,-4.446 L 341.706,391.696 c -5.929,-5.93 -5.929,-15.541 0,-21.472 l 0.795,-0.795 -54.119,-54.119 c -28.961,22.522 -65.351,35.94 -104.878,35.94 -94.441,0 -171,-76.56 -171,-171 0,-94.440999 76.559,-170.9999984 171,-170.9999984 94.44,0 171,76.5589994 171,170.9999984 0,41.943 -15.11,80.352 -40.172,110.101 l 53.623,53.623 0.588,-0.587 c 2.964,-2.964 6.85,-4.446 10.735,-4.446 3.885,0 7.771,1.482 10.735,4.446 L 497.368,450.74 c 5.93,5.928 5.93,15.543 0,21.471 l -26.838,26.838 c -2.965,2.964 -6.85,4.446 -10.735,4.446 z" style="fill:#b3b3b3"/><path id="path14" d="m 183.504,45.250001 c -74.559,0 -135,60.440999 -135,134.999999 0,74.559 60.441,135 135,135 74.559,0 135,-60.441 135,-135 0,-74.559 -60.441,-134.999999 -135,-134.999999 z m 0,261.495999 C 113.754,306.746 57.008,250 57.008,180.25 c 0,-69.75 56.746,-126.495999 126.496,-126.495999 69.75,0 126.497,56.745999 126.497,126.495999 0,69.75 -56.747,126.496 -126.497,126.496 z" style="fill:#b3b3b3"/><path id="path8-1" d="m -511.02705,225.61084 c -69.75,0 -126.496,56.746 -126.496,126.496 0,69.75 56.746,126.496 126.496,126.496 69.75,0 126.497,-56.746 126.497,-126.496 0,-69.75 -56.747,-126.496 -126.497,-126.496 z" style="fill:none"/><g id="layer1-9" transform="matrix(6.2986806,0,0,7.0807614,207.57444,-4.147522)" style="display:inline"><path style="color:#000;display:block;overflow:visible;visibility:visible;fill:url(#linearGradient3587);fill-opacity:1;fill-rule:nonzero;stroke:url(#linearGradient3589);stroke-width:.99999887;stroke-linecap:butt;stroke-linejoin:miter;stroke-miterlimit:4;stroke-dasharray:none;stroke-dashoffset:0;stroke-opacity:1;marker:none" id="path8615" d="M 13.392155,22.327526 C 7.954579,3.5239586 28.94502,-3.8166903 40.491666,7.9524737 l 5.70387,-5.7038703 1.427968,21.3092336 -21.79374,-0.943462 c 0,0 6.172358,-6.172358 6.172358,-6.172358 -6.943402,-7.5305325 -15.562496,-5.285378 -13.531036,5.367734 0.581417,3.049003 -3.80559,4.921091 -5.078931,0.517775 z"/><path style="color:#000;display:block;overflow:visible;visibility:visible;fill:url(#linearGradient3591);fill-opacity:1;fill-rule:nonzero;stroke:#ce5c00;stroke-width:.99999887;stroke-linecap:butt;stroke-linejoin:miter;stroke-miterlimit:4;stroke-dasharray:none;stroke-dashoffset:0;stroke-opacity:1;marker:none" id="path8642" d="m 40.491666,7.9524737 5.70387,-5.7038703 1.427968,21.3092336 -21.79374,-0.943462 c 0,0 6.172358,-6.172358 6.172358,-6.172358"/><g id="g8634"><path id="path4247-3" d="M 45.366544,4.5132046 41.212292,8.667457 c -0.393991,0.3820647 -1.020223,0.3820647 -1.414214,0 C 34.314383,3.0780853 26.600777,2.090692 20.993457,4.62369 c -5.60732,2.5329981 -9.24116,8.424084 -6.629127,17.456699 0.269698,0.932636 0.671819,1.40117 1.016466,1.635185 0.344648,0.234014 0.682126,0.262012 1.016466,0.176776 0.668681,-0.170473 1.278145,-0.853625 1.082758,-1.878252 -0.533891,-2.799756 -0.394507,-5.133559 0.331456,-6.960583 0.725963,-1.827023 2.073599,-3.119868 3.734408,-3.690213 3.321617,-1.140689 7.555192,0.440814 11.203223,4.39732 0.361849,0.396899 0.352166,1.006902 -0.0221,1.392117 0,0 -2.78183,2.781829 -4.552,4.552 l 18.38478,0.795495 -1.193243,-17.9870294 z" style="color:#000;display:block;overflow:visible;visibility:visible;opacity:.85;fill:none;stroke:url(#linearGradient3593);stroke-width:.99999893;stroke-linecap:butt;stroke-linejoin:miter;stroke-miterlimit:4;stroke-dashoffset:0;stroke-opacity:1;marker:none"/><path id="path4920-6" d="M 46.996348,22.997374 C 36.092697,7.6672233 25.044527,4.0854071 16.427501,7.1868843 25.258634,-1.8617048 37.133916,4.8134958 40.484972,8.7123236 l 5.296839,-5.3189357 1.214537,19.6039861 z" style="opacity:.55;fill:url(#linearGradient3595);fill-opacity:1;fill-rule:evenodd;stroke:none"/></g></g><g id="layer2" transform="matrix(2.8300436,0,0,2.5883641,-524.76561,221.42626)" style="display:none"><g id="g6120" transform="matrix(2,0,0,2,-118,-130.5)"><g style="opacity:.18999999" id="g6080" transform="matrix(1,0,0,1.2221198,60,-3.2887529)"><ellipse style="fill:url(#radialGradient3597);fill-opacity:1;fill-rule:evenodd;stroke:none" id="path6082" cx="10.607" cy="11.195" rx="7.778" ry="6.386" transform="matrix(0.8346681,0,0,0.900399,6.6548132,0.1704617)"/><ellipse style="fill:url(#radialGradient3599);fill-opacity:1;fill-rule:evenodd;stroke:none" id="path6084" cx="10.607" cy="11.195" rx="7.778" ry="6.386" transform="matrix(0.8346681,0,0,0.900399,-2.3451868,0.1704617)"/></g><rect id="rect6086" width="3" height="5.938" x="73.5" y="2.5" rx=".53" ry=".53" style="fill:url(#linearGradient3727);fill-opacity:1;fill-rule:evenodd;stroke:#2e3436;stroke-width:.49999997;stroke-linecap:round;stroke-linejoin:round;stroke-miterlimit:4;stroke-dasharray:none;stroke-dashoffset:.69999993;stroke-opacity:1"/><rect id="rect6088" width="3" height="5.938" x="65.5" y="2.5" rx=".552" ry=".552" style="fill:url(#linearGradient3729);fill-opacity:1;fill-rule:evenodd;stroke:#2e3436;stroke-width:.49999997;stroke-linecap:round;stroke-linejoin:round;stroke-miterlimit:4;stroke-dasharray:none;stroke-dashoffset:.69999993;stroke-opacity:1"/><path id="path6090" d="m 62.5,11.5 -2,5 0,2 7,0 0,-2 -2,-5 -3,0 z" style="fill:url(#linearGradient3731);fill-opacity:1;fill-rule:evenodd;stroke:#2e3436;stroke-width:.49999994;stroke-linecap:round;stroke-linejoin:round;stroke-miterlimit:4;stroke-dashoffset:.69999993;stroke-opacity:1"/><path id="path6092" d="m 3.1875,13.515625 -1.671875,4.179687 0,0.789063 4.96875,0 0,-0.789063 -1.671875,-4.179687 -1.625,0 z" transform="translate(60,-1)" style="opacity:.50757578;fill:none;stroke:url(#linearGradient3607);stroke-width:.5;stroke-linecap:round;stroke-linejoin:miter;stroke-miterlimit:4;stroke-dasharray:none;stroke-dashoffset:.69999993;stroke-opacity:1"/><path id="use6094" d="m 76.5,11.5 -2,5 0,2 7,0 0,-2 -2,-5 -3,0 z" style="fill:url(#linearGradient3733);fill-opacity:1;fill-rule:evenodd;stroke:#2e3436;stroke-width:.49999994;stroke-linecap:round;stroke-linejoin:round;stroke-miterlimit:4;stroke-dashoffset:.69999993;stroke-opacity:1"/><path id="path6096" d="m 3.1875,13.515625 -1.671875,4.179687 0,0.789063 4.96875,0 0,-0.789063 -1.671875,-4.179687 -1.625,0 z" transform="translate(74,-1)" style="opacity:.50757578;fill:none;stroke:url(#linearGradient3611);stroke-width:.5;stroke-linecap:round;stroke-linejoin:miter;stroke-miterlimit:4;stroke-dasharray:none;stroke-dashoffset:.69999993;stroke-opacity:1"/><path id="path6098" d="m 61.5,16.5 5,0" style="opacity:.46969694;fill:none;stroke:url(#linearGradient3613);stroke-width:.5px;stroke-linecap:round;stroke-linejoin:miter;stroke-opacity:1"/><path id="path6100" d="m 75.5,16.5 5,0" style="opacity:.46969694;fill:none;stroke:url(#linearGradient3615);stroke-width:.5px;stroke-linecap:round;stroke-linejoin:miter;stroke-opacity:1"/><g style="opacity:.35" id="g6102" transform="translate(60,-1)"><path style="fill:#000;fill-opacity:1;fill-rule:evenodd;stroke:#000;stroke-width:.5;stroke-linecap:round;stroke-linejoin:round;stroke-miterlimit:4;stroke-dasharray:none;stroke-dashoffset:.69999993;stroke-opacity:1" id="path6104" d="m 2.5,12.5 -0.65625,1.65625 c 0.2286584,0.236287 0.5478662,0.375 0.90625,0.375 l 3.5625,0 L 5.5,12.5 l -3,0 z"/><path style="fill:#000;fill-opacity:1;fill-rule:evenodd;stroke:#000;stroke-width:.5;stroke-linecap:round;stroke-linejoin:round;stroke-miterlimit:4;stroke-dasharray:none;stroke-dashoffset:.69999993;stroke-opacity:1" id="path6106" d="m 19.515625,12.5 0.65625,1.65625 c -0.228658,0.236287 -0.547866,0.375 -0.90625,0.375 l -3.5625,0 0.8125,-2.03125 3,0 z"/></g><path id="path6108" d="m 65.75,4.5 c -1.228048,0 -0.795626,2 -2.25,2 l -0.75,0 c -0.686559,0 -1.25,0.5634405 -1.25,1.25 l 0,3.5625 c 0,0.686559 0.563441,1.21875 1.25,1.21875 l 5.53125,0 c 0.686559,0 1.25,-0.53219 1.25,-1.21875 l 0,-5.5625 c 0,-0.6865593 -0.563441,-1.25 -1.25,-1.25 L 65.75,4.5 Z" style="fill:url(#linearGradient3735);fill-opacity:1;fill-rule:evenodd;stroke:#2e3436;stroke-width:.5;stroke-linecap:round;stroke-linejoin:round;stroke-miterlimit:4;stroke-dasharray:none;stroke-dashoffset:.69999993;stroke-opacity:1"/><path id="path6110" d="m -4.1621094,6.515625 c -0.031899,0.051467 -0.097802,0.1725086 -0.203125,0.4042969 C -4.4854012,7.1843766 -4.6377647,7.5456792 -4.9804688,7.8964844 -5.3231728,8.2472896 -5.9036317,8.515625 -6.5,8.515625 l -0.75,0 c -0.1308955,0 -0.234375,0.1034794 -0.234375,0.234375 l 0,3.5625 c 0,0.130895 0.072661,0.203125 0.234375,0.203125 l 5.53125,0 c 0.1617146,0 0.234375,-0.07223 0.234375,-0.203125 l 0,-5.5625 c 0,-0.1308953 -0.1034797,-0.234375 -0.234375,-0.234375 l -2.4433594,0 z" transform="translate(70,-1)" style="opacity:.3;fill:none;stroke:url(#linearGradient3619);stroke-width:.5;stroke-linecap:round;stroke-linejoin:round;stroke-miterlimit:4;stroke-dasharray:none;stroke-dashoffset:.69999993;stroke-opacity:1"/><path id="path6112" d="m 76.28125,4.5 c 1.228048,0 0.795626,2 2.25,2 l 0.75,0 c 0.686559,0 1.25,0.563441 1.25,1.25 l 0,3.5625 c 0,0.686559 -0.56344,1.21875 -1.25,1.21875 l -5.53125,0 c -0.686559,0 -1.25,-0.53219 -1.25,-1.21875 l 0,-5.5625 c 0,-0.686559 0.563441,-1.25 1.25,-1.25 l 2.53125,0 z" style="fill:url(#linearGradient3737);fill-opacity:1;fill-rule:evenodd;stroke:#2e3436;stroke-width:.5;stroke-linecap:round;stroke-linejoin:round;stroke-miterlimit:4;stroke-dasharray:none;stroke-dashoffset:.69999993;stroke-opacity:1"/><path id="path6114" d="m -4.1621094,6.515625 c -0.031899,0.051467 -0.097802,0.1725086 -0.203125,0.4042969 C -4.4854012,7.1843766 -4.6377647,7.5456792 -4.9804688,7.8964844 -5.3231728,8.2472896 -5.9036317,8.515625 -6.5,8.515625 l -0.75,0 c -0.1308955,0 -0.234375,0.1034794 -0.234375,0.234375 l 0,3.5625 c 0,0.130895 0.072661,0.203125 0.234375,0.203125 l 5.53125,0 c 0.1617146,0 0.234375,-0.07223 0.234375,-0.203125 l 0,-5.5625 c 0,-0.1308953 -0.1034797,-0.234375 -0.234375,-0.234375 l -2.4433594,0 z" transform="matrix(-1,0,0,1,72.03125,-1)" style="opacity:.3;fill:none;stroke:url(#linearGradient3623);stroke-width:.5;stroke-linecap:round;stroke-linejoin:round;stroke-miterlimit:4;stroke-dasharray:none;stroke-dashoffset:.69999993;stroke-opacity:1"/><path id="path6116" d="m 69.5,5.5 3,0 1,1.5 0,2 -1,1.5 -3,0 -1,-1.5 0,-2 1,-1.5 z" style="fill:url(#linearGradient3739);fill-opacity:1;fill-rule:evenodd;stroke:#2e3436;stroke-width:.49999997;stroke-linecap:round;stroke-linejoin:round;stroke-miterlimit:4;stroke-dashoffset:.69999993;stroke-opacity:1"/><path id="path6118" d="M -19.964844,6.5 -20.5,7.3027344 -20.5,8.6972656 -19.964844,9.5 -18.035156,9.5 -17.5,8.6972656 -17.5,7.3027344 -18.035156,6.5 l -1.929688,0 z" transform="translate(90,0)" style="opacity:.24621211;fill:none;stroke:url(#linearGradient3627);stroke-width:.5;stroke-linecap:round;stroke-linejoin:miter;stroke-miterlimit:4;stroke-dasharray:none;stroke-dashoffset:.69999993;stroke-opacity:1"/></g><g id="g6296" transform="matrix(2,0,0,1.2923077,-278,9.769231)"><g style="opacity:.18999999" id="g6298" transform="matrix(1,0,0,1.2221198,60,-3.2887529)"><ellipse style="fill:url(#radialGradient3629);fill-opacity:1;fill-rule:evenodd;stroke:none" id="path6300" cx="10.607" cy="11.195" rx="7.778" ry="6.386" transform="matrix(0.8346681,0,0,0.900399,6.6548132,0.1704617)"/><ellipse style="fill:url(#radialGradient3631);fill-opacity:1;fill-rule:evenodd;stroke:none" id="path6302" cx="10.607" cy="11.195" rx="7.778" ry="6.386" transform="matrix(0.8346681,0,0,0.900399,-2.3451868,0.1704617)"/></g><rect id="rect6304" width="3" height="5.938" x="73.5" y="2.5" rx=".53" ry=".53" style="fill:url(#linearGradient3601);fill-opacity:1;fill-rule:evenodd;stroke:#2e3436;stroke-width:.62201667;stroke-linecap:round;stroke-linejoin:round;stroke-miterlimit:4;stroke-dasharray:none;stroke-dashoffset:.69999993;stroke-opacity:1"/><rect id="rect6306" width="3" height="5.938" x="65.5" y="2.5" rx=".552" ry=".552" style="fill:url(#linearGradient3603);fill-opacity:1;fill-rule:evenodd;stroke:#2e3436;stroke-width:.62201667;stroke-linecap:round;stroke-linejoin:round;stroke-miterlimit:4;stroke-dasharray:none;stroke-dashoffset:.69999993;stroke-opacity:1"/><path id="path6308" d="m 62.5,11.5 -2,5 0,2 7,0 0,-2 -2,-5 -3,0 z" style="fill:url(#linearGradient3605);fill-opacity:1;fill-rule:evenodd;stroke:#2e3436;stroke-width:.62201661;stroke-linecap:round;stroke-linejoin:round;stroke-miterlimit:4;stroke-dashoffset:.69999993;stroke-opacity:1"/><path id="path6310" d="m 3.1875,13.515625 -1.671875,4.179687 0,0.789063 4.96875,0 0,-0.789063 -1.671875,-4.179687 -1.625,0 z" transform="translate(60,-1)" style="opacity:.50757578;fill:none;stroke:url(#linearGradient3639);stroke-width:.62201667;stroke-linecap:round;stroke-linejoin:miter;stroke-miterlimit:4;stroke-dasharray:none;stroke-dashoffset:.69999993;stroke-opacity:1"/><path id="path6312" d="m 76.5,11.5 -2,5 0,2 7,0 0,-2 -2,-5 -3,0 z" style="fill:url(#linearGradient3609);fill-opacity:1;fill-rule:evenodd;stroke:#2e3436;stroke-width:.62201661;stroke-linecap:round;stroke-linejoin:round;stroke-miterlimit:4;stroke-dashoffset:.69999993;stroke-opacity:1"/><path id="path6314" d="m 3.1875,13.515625 -1.671875,4.179687 0,0.789063 4.96875,0 0,-0.789063 -1.671875,-4.179687 -1.625,0 z" transform="translate(74,-1)" style="opacity:.50757578;fill:none;stroke:url(#linearGradient3643);stroke-width:.62201667;stroke-linecap:round;stroke-linejoin:miter;stroke-miterlimit:4;stroke-dasharray:none;stroke-dashoffset:.69999993;stroke-opacity:1"/><path id="path6316" d="m 61.5,16.5 5,0" style="opacity:.46969694;fill:none;stroke:url(#linearGradient3645);stroke-width:.62201667px;stroke-linecap:round;stroke-linejoin:miter;stroke-opacity:1"/><path id="path6318" d="m 75.5,16.5 5,0" style="opacity:.46969694;fill:none;stroke:url(#linearGradient3647);stroke-width:.62201667px;stroke-linecap:round;stroke-linejoin:miter;stroke-opacity:1"/><g style="opacity:.35" id="g6320" transform="translate(60,-1)"><path style="fill:#000;fill-opacity:1;fill-rule:evenodd;stroke:#000;stroke-width:.62201667;stroke-linecap:round;stroke-linejoin:round;stroke-miterlimit:4;stroke-dasharray:none;stroke-dashoffset:.69999993;stroke-opacity:1" id="path6322" d="m 2.5,12.5 -0.65625,1.65625 c 0.2286584,0.236287 0.5478662,0.375 0.90625,0.375 l 3.5625,0 L 5.5,12.5 l -3,0 z"/><path style="fill:#000;fill-opacity:1;fill-rule:evenodd;stroke:#000;stroke-width:.62201667;stroke-linecap:round;stroke-linejoin:round;stroke-miterlimit:4;stroke-dasharray:none;stroke-dashoffset:.69999993;stroke-opacity:1" id="path6324" d="m 19.515625,12.5 0.65625,1.65625 c -0.228658,0.236287 -0.547866,0.375 -0.90625,0.375 l -3.5625,0 0.8125,-2.03125 3,0 z"/></g><path id="path6326" d="m 65.75,4.5 c -1.228048,0 -0.795626,2 -2.25,2 l -0.75,0 c -0.686559,0 -1.25,0.5634405 -1.25,1.25 l 0,3.5625 c 0,0.686559 0.563441,1.21875 1.25,1.21875 l 5.53125,0 c 0.686559,0 1.25,-0.53219 1.25,-1.21875 l 0,-5.5625 c 0,-0.6865593 -0.563441,-1.25 -1.25,-1.25 L 65.75,4.5 Z" style="fill:url(#linearGradient3617);fill-opacity:1;fill-rule:evenodd;stroke:#2e3436;stroke-width:.62201667;stroke-linecap:round;stroke-linejoin:round;stroke-miterlimit:4;stroke-dasharray:none;stroke-dashoffset:.69999993;stroke-opacity:1"/><path id="path6328" d="m -4.1621094,6.515625 c -0.031899,0.051467 -0.097802,0.1725086 -0.203125,0.4042969 C -4.4854012,7.1843766 -4.6377647,7.5456792 -4.9804688,7.8964844 -5.3231728,8.2472896 -5.9036317,8.515625 -6.5,8.515625 l -0.75,0 c -0.1308955,0 -0.234375,0.1034794 -0.234375,0.234375 l 0,3.5625 c 0,0.130895 0.072661,0.203125 0.234375,0.203125 l 5.53125,0 c 0.1617146,0 0.234375,-0.07223 0.234375,-0.203125 l 0,-5.5625 c 0,-0.1308953 -0.1034797,-0.234375 -0.234375,-0.234375 l -2.4433594,0 z" transform="translate(70,-1)" style="opacity:.3;fill:none;stroke:url(#linearGradient3651);stroke-width:.62201667;stroke-linecap:round;stroke-linejoin:round;stroke-miterlimit:4;stroke-dasharray:none;stroke-dashoffset:.69999993;stroke-opacity:1"/><path id="path6330" d="m 76.28125,4.5 c 1.228048,0 0.795626,2 2.25,2 l 0.75,0 c 0.686559,0 1.25,0.563441 1.25,1.25 l 0,3.5625 c 0,0.686559 -0.56344,1.21875 -1.25,1.21875 l -5.53125,0 c -0.686559,0 -1.25,-0.53219 -1.25,-1.21875 l 0,-5.5625 c 0,-0.686559 0.563441,-1.25 1.25,-1.25 l 2.53125,0 z" style="fill:url(#linearGradient3621);fill-opacity:1;fill-rule:evenodd;stroke:#2e3436;stroke-width:.62201667;stroke-linecap:round;stroke-linejoin:round;stroke-miterlimit:4;stroke-dasharray:none;stroke-dashoffset:.69999993;stroke-opacity:1"/><path id="path6332" d="m -4.1621094,6.515625 c -0.031899,0.051467 -0.097802,0.1725086 -0.203125,0.4042969 C -4.4854012,7.1843766 -4.6377647,7.5456792 -4.9804688,7.8964844 -5.3231728,8.2472896 -5.9036317,8.515625 -6.5,8.515625 l -0.75,0 c -0.1308955,0 -0.234375,0.1034794 -0.234375,0.234375 l 0,3.5625 c 0,0.130895 0.072661,0.203125 0.234375,0.203125 l 5.53125,0 c 0.1617146,0 0.234375,-0.07223 0.234375,-0.203125 l 0,-5.5625 c 0,-0.1308953 -0.1034797,-0.234375 -0.234375,-0.234375 l -2.4433594,0 z" transform="matrix(-1,0,0,1,72.03125,-1)" style="opacity:.3;fill:none;stroke:url(#linearGradient3655);stroke-width:.62201667;stroke-linecap:round;stroke-linejoin:round;stroke-miterlimit:4;stroke-dasharray:none;stroke-dashoffset:.69999993;stroke-opacity:1"/><path id="path6334" d="m 69.5,5.5 3,0 1,1.5 0,2 -1,1.5 -3,0 -1,-1.5 0,-2 1,-1.5 z" style="fill:url(#linearGradient3625);fill-opacity:1;fill-rule:evenodd;stroke:#2e3436;stroke-width:.62201667;stroke-linecap:round;stroke-linejoin:round;stroke-miterlimit:4;stroke-dashoffset:.69999993;stroke-opacity:1"/><path id="path6336" d="M -19.964844,6.5 -20.5,7.3027344 -20.5,8.6972656 -19.964844,9.5 -18.035156,9.5 -17.5,8.6972656 -17.5,7.3027344 -18.035156,6.5 l -1.929688,0 z" transform="translate(90,0)" style="opacity:.24621211;fill:none;stroke:url(#linearGradient3659);stroke-width:.62201667;stroke-linecap:round;stroke-linejoin:miter;stroke-miterlimit:4;stroke-dasharray:none;stroke-dashoffset:.69999993;stroke-opacity:1"/></g><rect style="opacity:.18999999;fill:#fff;fill-opacity:1;fill-rule:evenodd;stroke:#000;stroke-width:.99999988;stroke-linecap:butt;stroke-linejoin:miter;stroke-miterlimit:4;stroke-dasharray:none;stroke-dashoffset:.69999993;stroke-opacity:1" id="rect6370" width="16.063" height="10.938" x="4.5" y="-94.438"/><rect style="opacity:.18999999;fill:#fff;fill-opacity:1;fill-rule:evenodd;stroke:#000;stroke-width:.99999988;stroke-linecap:butt;stroke-linejoin:miter;stroke-miterlimit:4;stroke-dasharray:none;stroke-dashoffset:.69999993;stroke-opacity:1" id="rect6372" width="16.063" height="10.938" x="27.5" y="-94.438"/><path style="opacity:.18999999;fill:#fff;fill-opacity:1;fill-rule:evenodd;stroke:#000;stroke-width:.99999988;stroke-linecap:butt;stroke-linejoin:miter;stroke-miterlimit:4;stroke-dashoffset:.69999993;stroke-opacity:1" id="path6377" d="M 90.6875,74.497268 87.0625,74.5 c -1.5,0.0011 -3.000001,-1.998127 -4.5,-2 L 80.375,72.4973 c -1.59275,0 -2.875,1.289897 -2.875,2.892147 l 0,4.218439 C 77.5,81.210103 78.78225,82.5 80.375,82.5 l 10.3125,0 c 1.59275,0 2.875,-1.289897 2.875,-2.892146 l 0,-2.218439 c 0,-1.60225 -1.28225,-2.892147 -2.875,-2.892147 z"/><path style="opacity:.18999999;fill:#fff;fill-opacity:1;fill-rule:evenodd;stroke:#000;stroke-width:.99999976;stroke-linecap:butt;stroke-linejoin:miter;stroke-miterlimit:4;stroke-dashoffset:.69999993;stroke-opacity:1" id="path6379" d="m 88.004692,70.29951 -3.146258,0.0025 c -1.301901,0.001 -2.603802,-1.797823 -3.905701,-1.799509 l -1.898604,-0.0025 c -1.382401,0 -2.495309,1.16059 -2.495309,2.602221 l 0,3.795559 c 0,1.44163 1.112908,2.60222 2.495309,2.60222 l 8.950563,0 c 1.382401,0 2.495308,-1.16059 2.495308,-2.60222 l 0,-1.99605 C 90.5,71.4601 89.387093,70.29951 88.004692,70.29951 Z"/><path style="fill:#555753;fill-opacity:1;fill-rule:evenodd;stroke:#2e3436;stroke-width:.99999988;stroke-linecap:butt;stroke-linejoin:miter;stroke-miterlimit:4;stroke-dashoffset:.69999993;stroke-opacity:1" id="path6381" d="m 79.0625,68.5 c -1.382403,-10e-7 -2.5,1.152119 -2.5,2.59375 l 0,3.8125 c 0,0.151836 0.0077,0.293287 0.03125,0.4375 0.380208,1.800979 0.750398,3.604087 1.125,5.40625 0.441002,1.029567 1.47114,1.75 2.65625,1.75 l 10.3125,0 c 1.59275,0 2.875,-1.304001 2.875,-2.90625 l 0,-2.21875 c 0,-0.522396 -0.13607,-1.017849 -0.375,-1.4375 l -3,-4.28125 C 90.077265,71.447971 89.940218,71.261757 89.78125,71.09375 89.327709,70.614423 88.700417,70.3125 88,70.3125 l -3.15625,0 C 83.541846,70.3135 82.239399,68.501686 80.9375,68.5 l -1.875,0 z"/><path style="opacity:.18999999;fill:#fff;fill-opacity:1;fill-rule:evenodd;stroke:#000;stroke-width:1;stroke-linecap:butt;stroke-linejoin:miter;stroke-miterlimit:4;stroke-dasharray:none;stroke-dashoffset:.69999993;stroke-opacity:1" id="path6294" d="m 38,193.21875 c -4.135271,0 -7.5,3.36473 -7.5,7.5 l 0,2 c 0,4.13527 3.364729,7.5 7.5,7.5 4.135271,0 7.5,-3.36473 7.5,-7.5 l 0,-2 c 0,-4.13527 -3.364729,-7.5 -7.5,-7.5 z"/><circle style="fill:#555753;fill-opacity:1;fill-rule:evenodd;stroke:#2e3436;stroke-width:1;stroke-linecap:butt;stroke-linejoin:miter;stroke-miterlimit:4;stroke-dasharray:none;stroke-dashoffset:.69999993;stroke-opacity:1" id="path7777" cx="16.5" cy="-32.5" r="3" transform="translate(13,18)"/><g id="g7810" transform="translate(21,-20)"><path id="path7812" d="m 18.5,2.5 c -1.656,0 -3,1.344 -3,3 l 0,2 c 0,1.656 1.344,3 3,3 1.656,0 3,-1.344 3,-3 l 0,-2 c 0,-1.656 -1.344,-3 -3,-3 z" style="fill:url(#linearGradient3661);fill-opacity:1;fill-rule:evenodd;stroke:#2e3436;stroke-width:1;stroke-linecap:butt;stroke-linejoin:miter;stroke-miterlimit:4;stroke-dasharray:none;stroke-dashoffset:.69999993;stroke-opacity:1"/><path id="path7814" d="m 18.5,3.5058594 c -1.112006,0 -1.994141,0.8821346 -1.994141,1.9941406 l 0,2 c 0,1.112006 0.882135,1.9941406 1.994141,1.9941406 1.112006,0 1.994141,-0.8821346 1.994141,-1.9941406 l 0,-2 c 0,-1.112006 -0.882135,-1.9941406 -1.994141,-1.9941406 z" style="opacity:.31818183;fill:none;stroke:url(#radialGradient3663);stroke-width:1;stroke-linecap:butt;stroke-linejoin:miter;stroke-miterlimit:4;stroke-dasharray:none;stroke-dashoffset:.69999993;stroke-opacity:1"/></g><circle style="opacity:.18999999;fill:#fff;fill-opacity:1;fill-rule:evenodd;stroke:#000;stroke-width:.99640042;stroke-linecap:butt;stroke-linejoin:miter;stroke-miterlimit:4;stroke-dasharray:none;stroke-dashoffset:.69999993;stroke-opacity:1" id="path6078" cx="14.536" cy="24.882" r="7.464" transform="matrix(1.0036126,0,0,1.0036126,-134.58804,55.74248)"/><circle style="opacity:.18999999;fill:#fff;fill-opacity:1;fill-rule:evenodd;stroke:#000;stroke-width:.875;stroke-linecap:butt;stroke-linejoin:miter;stroke-miterlimit:4;stroke-dasharray:none;stroke-dashoffset:.69999993;stroke-opacity:1" id="path6394" cx="23.5" cy="26.5" r="3.5" transform="matrix(1.1428571,0,0,1.1428571,-3.357142,-66.785713)"/><circle style="opacity:.18999999;fill:#fff;fill-opacity:1;fill-rule:evenodd;stroke:#000;stroke-width:1;stroke-linecap:butt;stroke-linejoin:miter;stroke-miterlimit:4;stroke-dasharray:none;stroke-dashoffset:.69999993;stroke-opacity:1" id="path6396" cx="23.5" cy="26.5" r="3.5" transform="translate(0,-65.5)"/><circle style="opacity:.18999999;fill:#fff;fill-opacity:1;fill-rule:evenodd;stroke:#000;stroke-width:1;stroke-linecap:butt;stroke-linejoin:miter;stroke-miterlimit:4;stroke-dasharray:none;stroke-dashoffset:.69999993;stroke-opacity:1" id="path6440" cx="16.5" cy="-32.5" r="3" transform="translate(1,-4)"/><circle style="opacity:.18999999;fill:#fff;fill-opacity:1;fill-rule:evenodd;stroke:#000;stroke-width:1;stroke-linecap:butt;stroke-linejoin:miter;stroke-miterlimit:4;stroke-dasharray:none;stroke-dashoffset:.69999993;stroke-opacity:1" id="path6442" cx="16.5" cy="-32.5" r="3" transform="translate(14,-4)"/><circle style="opacity:.18999999;fill:#fff;fill-opacity:1;fill-rule:evenodd;stroke:#000;stroke-width:1;stroke-linecap:butt;stroke-linejoin:miter;stroke-miterlimit:4;stroke-dasharray:none;stroke-dashoffset:.69999993;stroke-opacity:1" id="path6446" cx="16.5" cy="-32.5" r="3" transform="translate(14,-8)"/><circle style="opacity:.18999999;fill:#fff;fill-opacity:1;fill-rule:evenodd;stroke:#000;stroke-width:.99640042;stroke-linecap:butt;stroke-linejoin:miter;stroke-miterlimit:4;stroke-dasharray:none;stroke-dashoffset:.69999993;stroke-opacity:1" id="path6450" cx="14.536" cy="24.882" r="7.464" transform="matrix(1.0036126,0,0,1.0036126,-134.58804,57.74248)"/><circle style="opacity:.18999999;fill:#fff;fill-opacity:1;fill-rule:evenodd;stroke:#000;stroke-width:.99640042;stroke-linecap:butt;stroke-linejoin:miter;stroke-miterlimit:4;stroke-dasharray:none;stroke-dashoffset:.69999993;stroke-opacity:1" id="path6455" cx="14.536" cy="24.882" r="7.464" transform="matrix(1.0036126,0,0,1.0036126,-4.588045,167.74248)"/><path style="fill:url(#linearGradient3665);fill-opacity:1;fill-rule:evenodd;stroke:#2e3436;stroke-width:1;stroke-linecap:butt;stroke-linejoin:miter;stroke-miterlimit:4;stroke-dasharray:none;stroke-dashoffset:.69999993;stroke-opacity:1" id="path6453" d="m 10,163.5 c -4.135271,0 -7.5,3.36473 -7.5,7.5 l 0,2 c 0,4.13527 3.364729,7.5 7.5,7.5 4.135271,0 7.5,-3.36473 7.5,-7.5 l 0,-2 c 0,-4.13527 -3.364729,-7.5 -7.5,-7.5 z"/><circle style="opacity:.45833333;fill:none;stroke:url(#linearGradient3667);stroke-width:1.14686775;stroke-linecap:butt;stroke-linejoin:miter;stroke-miterlimit:4;stroke-dasharray:none;stroke-dashoffset:.69999993;stroke-opacity:1" id="path7488" cx="14.536" cy="24.882" r="7.464" transform="matrix(0.8719402,0,0,0.8719402,-2.665548,151.29573)"/><g id="g7570" transform="translate(0,70)"><circle id="path7486" cx="14.536" cy="24.882" r="7.464" transform="matrix(0.7368243,0,0,0.7368243,-0.7101346,84.661982)" style="fill:url(#radialGradient3669);fill-opacity:1;fill-rule:evenodd;stroke:#204a87;stroke-width:1.35717571;stroke-linecap:butt;stroke-linejoin:miter;stroke-miterlimit:4;stroke-dasharray:none;stroke-dashoffset:.69999993;stroke-opacity:1"/><circle style="opacity:.7;fill:url(#linearGradient3671);fill-opacity:1;fill-rule:evenodd;stroke:none" id="path7542" cx="14.536" cy="24.882" r="7.464" transform="matrix(0.4060691,-0.2344441,0.1676036,0.2902979,-0.8238312,97.883656)"/></g><path style="fill:url(#linearGradient3673);fill-opacity:1;fill-rule:evenodd;stroke:#2e3436;stroke-width:1;stroke-linecap:butt;stroke-linejoin:miter;stroke-miterlimit:4;stroke-dasharray:none;stroke-dashoffset:.69999993;stroke-opacity:1" id="path7510" d="m 39,163.5 c -4.135271,0 -7.5,3.36473 -7.5,7.5 l 0,2 c 0,4.13527 3.364729,7.5 7.5,7.5 4.135271,0 7.5,-3.36473 7.5,-7.5 l 0,-2 c 0,-4.13527 -3.364729,-7.5 -7.5,-7.5 z"/><circle style="opacity:.45833333;fill:none;stroke:url(#linearGradient3675);stroke-width:1.14686775;stroke-linecap:butt;stroke-linejoin:miter;stroke-miterlimit:4;stroke-dasharray:none;stroke-dashoffset:.69999993;stroke-opacity:1" id="path7514" cx="14.536" cy="24.882" r="7.464" transform="matrix(0.8719402,0,0,0.8719402,26.334452,151.29573)"/><g id="g7574" transform="translate(29,70)"><circle id="path7576" cx="14.536" cy="24.882" r="7.464" transform="matrix(0.7368243,0,0,0.7368243,-0.7101346,84.661982)" style="fill:url(#radialGradient3677);fill-opacity:1;fill-rule:evenodd;stroke:#204a87;stroke-width:1.35717571;stroke-linecap:butt;stroke-linejoin:miter;stroke-miterlimit:4;stroke-dasharray:none;stroke-dashoffset:.69999993;stroke-opacity:1"/><circle style="opacity:.7;fill:url(#linearGradient3679);fill-opacity:1;fill-rule:evenodd;stroke:none" id="path7578" cx="14.536" cy="24.882" r="7.464" transform="matrix(0.4060691,-0.2344441,0.1676036,0.2902979,-0.8238312,97.883656)"/></g><path style="fill:#555753;fill-opacity:1;fill-rule:evenodd;stroke:#2e3436;stroke-width:.99999988;stroke-linecap:butt;stroke-linejoin:miter;stroke-miterlimit:4;stroke-dasharray:none;stroke-dashoffset:.69999993;stroke-opacity:1" id="path7717" d="m 24.0625,147.49499 c -1.383517,0 -2.556946,0.80272 -3.125,1.96875 -0.383103,1.34314 -0.620357,2.72447 -0.875,4.09375 0.03356,2.1791 1.812952,3.9375 4,3.9375 2.197524,0 3.983107,-1.77518 4,-3.96875 -0.21734,-1.37858 -0.554027,-2.73603 -0.875,-4.09375 -0.572927,-1.15245 -1.751436,-1.9375 -3.125,-1.9375 z"/><circle style="opacity:.18999999;fill:#fff;fill-opacity:1;fill-rule:evenodd;stroke:#000;stroke-width:.875;stroke-linecap:butt;stroke-linejoin:miter;stroke-miterlimit:4;stroke-dasharray:none;stroke-dashoffset:.69999993;stroke-opacity:1" id="path7732" cx="23.5" cy="26.5" r="3.5" transform="matrix(1.1428571,0,0,1.1428571,-2.8571417,-66.785713)"/></g><g id="layer1" transform="matrix(7.1518422,0,0,8.8608142,-45.571615,118.34876)"><ellipse style="color:#000;display:inline;overflow:visible;visibility:visible;opacity:.12999998;fill:url(#radialGradient3170);fill-opacity:1;fill-rule:evenodd;stroke:none;stroke-width:1;marker:none" id="path8660" cx="24.837" cy="36.421" rx="15.645" ry="8.397" transform="matrix(1.47967,0,0,-0.872353,-13.55145,72.5668)"/><path id="path1432" d="M 17.424821,41.893434 C 0.283744,32.442251 9.935604,12.409146 26.422371,12.56649 l 0,-8.0664906 L 42.5,18.558177 26.422371,33.301549 c 0,0 0,-8.729032 0,-8.729032 -10.234617,-0.415164 -14.741673,7.26702 -5.772326,13.363448 2.567094,1.744847 0.788778,6.170696 -3.225224,3.957469 z" style="color:#000;display:block;overflow:visible;visibility:visible;fill:url(#linearGradient3172);fill-opacity:1;fill-rule:nonzero;stroke:#4e9a06;stroke-width:.99999887;stroke-linecap:butt;stroke-linejoin:miter;stroke-miterlimit:4;stroke-dasharray:none;stroke-dashoffset:0;stroke-opacity:1;marker:none"/><path id="path4247" d="m 27.4375,6.6875 0,5.875 c -0.0084,0.548754 -0.451246,0.991567 -1,1 C 18.60766,13.487775 12.455124,18.243926 10.28125,24 8.1073762,29.756074 9.7034903,36.491213 17.9375,41.03125 c 0.850178,0.468768 1.465824,0.515729 1.875,0.4375 0.409176,-0.07823 0.667607,-0.297065 0.84375,-0.59375 0.352286,-0.593371 0.30018,-1.507389 -0.5625,-2.09375 -2.357244,-1.602209 -3.908933,-3.351016 -4.6875,-5.15625 -0.778567,-1.805234 -0.739824,-3.672336 0.03125,-5.25 1.542149,-3.155327 5.65403,-5.030625 11.03125,-4.8125 0.536516,0.02478 0.961006,0.462968 0.96875,1 0,0 0,3.934101 0,6.4375 L 41,18.5625 27.4375,6.6875 Z" style="color:#000;display:block;overflow:visible;visibility:visible;opacity:.61797755;fill:none;stroke:url(#linearGradient3174);stroke-width:.99999893;stroke-linecap:butt;stroke-linejoin:miter;stroke-miterlimit:4;stroke-dashoffset:0;stroke-opacity:1;marker:none"/><path id="path4920" d="M 41.660227,18.605336 C 23.110128,15.475328 12.765166,20.754837 8.865084,29.04107 8.711319,16.398198 21.828491,12.721185 26.954933,13.108518 L 26.939308,5.6020321 41.660227,18.605336 Z" style="opacity:.45;fill:url(#linearGradient3176);fill-opacity:1;fill-rule:evenodd;stroke:none"/></g></svg>