<svg xmlns="http://www.w3.org/2000/svg" xmlns:xlink="http://www.w3.org/1999/xlink" id="svg3258" width="48" height="48" version="1.0"><defs id="defs3260"><radialGradient id="radialGradient3254" cx="62.625" cy="4.625" r="10.625" gradientTransform="matrix(2.1647 0 0 .75294 -111.56 36.518)" gradientUnits="userSpaceOnUse"><stop id="stop8840" offset="0"/><stop id="stop8842" offset="1" style="stop-opacity:0"/></radialGradient><linearGradient id="linearGradient3251" x1="18.379" x2="18.379" y1="44.98" y2="3.082" gradientTransform="matrix(.95844 0 0 .95844 .99752 1.9975)" gradientUnits="userSpaceOnUse"><stop id="stop2492" offset="0" style="stop-color:#791235"/><stop id="stop2494" offset="1" style="stop-color:#dd3b27"/></linearGradient><radialGradient id="radialGradient3249" cx="23.896" cy="3.99" r="20.397" gradientTransform="matrix(0 2.2875 -3.0194 0 36.047 -50.63)" gradientUnits="userSpaceOnUse"><stop id="stop3244" offset="0" style="stop-color:#f8b17e"/><stop id="stop3246" offset=".262" style="stop-color:#e35d4f"/><stop id="stop3248" offset=".661" style="stop-color:#c6262e"/><stop id="stop3250" offset="1" style="stop-color:#690b54"/></radialGradient><linearGradient id="linearGradient3246" x1="63.397" x2="63.397" y1="-12.489" y2="5.468" gradientTransform="matrix(2.1154 0 0 2.1153 -107.58 32.427)" gradientUnits="userSpaceOnUse"><stop id="stop4875" offset="0" style="stop-color:#fff"/><stop id="stop4877" offset="1" style="stop-color:#fff;stop-opacity:0"/></linearGradient></defs><g id="layer1"><path id="path8836" d="m47 40c0 4.4183-10.297 8-23 8s-23-3.5817-23-8 10.297-8 23-8 23 3.5817 23 8z" style="fill-rule:evenodd;fill:url(#radialGradient3254);opacity:.3"/><path id="path2555" d="m24 5.5018c-10.758 0-19.498 8.7398-19.498 19.498s8.7398 19.498 19.498 19.498c10.758 0 19.498-8.7398 19.498-19.498 0-10.758-8.7398-19.498-19.498-19.498z" style="fill:url(#radialGradient3249);stroke-linecap:round;stroke-linejoin:round;stroke-width:1.0037;stroke:url(#linearGradient3251)"/><path id="path8655" d="m42.5 24.999c0 10.218-8.2833 18.501-18.5 18.501-10.217 0-18.5-8.2832-18.5-18.501 0-10.217 8.2829-18.499 18.5-18.499 10.216 0 18.5 8.2822 18.5 18.499z" style="fill:none;opacity:.4;stroke:url(#linearGradient3246)"/><path id="path3243" d="m-33.281 16.312-2.9688 2.9688 6.125 6.0938c0.18817 0.19054 0.18817 0.49696 0 0.6875l-6.125 6.0938 2.9688 2.9688 6.0938-6.0938c0.19054-0.18817 0.49696-0.18817 0.6875 0l6.0938 6.0938 2.9688-2.9688-6.0938-6.0938c-0.18817-0.19054-0.18817-0.49696 0-0.6875l6.0938-6.0938-2.9688-2.9688-6.0938 6.0938c-0.19054 0.18817-0.49696 0.18817-0.6875 0l-6.0938-6.0938z" transform="translate(50.844 -2.125)" style="fill-rule:evenodd;opacity:.2"/><path id="path3256" d="m-33.281 16.312-2.9688 2.9688 6.125 6.0938c0.18817 0.19054 0.18817 0.49696 0 0.6875l-6.125 6.0938 2.9688 2.9688 6.0938-6.0938c0.19054-0.18817 0.49696-0.18817 0.6875 0l6.0938 6.0938 2.9688-2.9688-6.0938-6.0938c-0.18817-0.19054-0.18817-0.49696 0-0.6875l6.0938-6.0938-2.9688-2.9688-6.0938 6.0938c-0.19054 0.18817-0.49696 0.18817-0.6875 0l-6.0938-6.0938z" transform="translate(50.844 -1.125)" style="fill-rule:evenodd;fill:#fff"/></g></svg>