<svg xmlns="http://www.w3.org/2000/svg" xmlns:svg="http://www.w3.org/2000/svg" xmlns:xlink="http://www.w3.org/1999/xlink" id="svg7189" width="48" height="48"><defs id="defs7191"><linearGradient id="linearGradient7950"><stop style="stop-color:#fff;stop-opacity:1" id="stop7952" offset="0"/><stop style="stop-color:#fff;stop-opacity:0" id="stop7954" offset="1"/></linearGradient><linearGradient id="linearGradient7956" x1="11" x2="11" y1="-7.062" y2="20.587" gradientUnits="userSpaceOnUse" xlink:href="#linearGradient7950"/><linearGradient id="linearGradient7948"><stop style="stop-color:#c4a000;stop-opacity:1" id="stop7950" offset="0"/><stop style="stop-color:#ce5c00;stop-opacity:1" id="stop7953" offset="1"/></linearGradient><linearGradient id="linearGradient7955" x1="11.001" x2="11.001" y1="-7.577" y2="21.047" gradientUnits="userSpaceOnUse" xlink:href="#linearGradient7948"/><linearGradient id="linearGradient2760"><stop style="stop-color:#fff6aa;stop-opacity:1" id="stop2762" offset="0"/><stop id="stop1884" offset=".564" style="stop-color:#fce94f;stop-opacity:1"/><stop style="stop-color:#fcaf3e;stop-opacity:1" id="stop2764" offset="1"/></linearGradient><radialGradient id="radialGradient2766" cx="6.484" cy="-3.123" r="15.177" fx="6.484" fy="-3.123" gradientTransform="matrix(-0.9906918,0.9838734,-0.9873672,-0.9911854,14.34067,-13.780844)" gradientUnits="userSpaceOnUse" xlink:href="#linearGradient2760"/><linearGradient id="linearGradient3383"><stop style="stop-color:#000;stop-opacity:1" id="stop3385" offset="0"/><stop style="stop-color:#000;stop-opacity:0" id="stop3387" offset="1"/></linearGradient><radialGradient id="radialGradient8567" cx="11.026" cy="15.747" r="10.982" fx="11.026" fy="15.747" gradientTransform="matrix(1,0,0,0.4889336,0,8.0475196)" gradientUnits="userSpaceOnUse" xlink:href="#linearGradient3383"/></defs><metadata id="metadata7194"/><g id="layer1"><path style="opacity:.2;fill:url(#radialGradient8567);fill-opacity:1;stroke:none;stroke-width:1;stroke-linecap:round;stroke-linejoin:miter;stroke-miterlimit:4;stroke-dasharray:none;stroke-dashoffset:0;stroke-opacity:1" id="path3428" d="M 22.008698,15.746525 A 10.982252,5.3695922 0 1 1 0.044194221,15.746525 A 10.982252,5.3695922 0 1 1 22.008698,15.746525 z" transform="matrix(1.9121761,0,0,1.8623388,2.9154929,8.674636)"/><path style="opacity:1;fill:url(#radialGradient2766);fill-opacity:1;stroke:url(#linearGradient7955);stroke-width:.65102839;stroke-linecap:butt;stroke-linejoin:miter;stroke-miterlimit:4;stroke-dasharray:none;stroke-dashoffset:0;stroke-opacity:1" id="path1869" d="M 11,-7.2520323 C 12.772557,-7.2603808 14.778116,-0.16232338 16.21216,0.87957124 C 17.657835,1.9299171 25.06423,1.6763614 25.624427,3.3732361 C 26.180117,5.0564575 20.049215,9.1572782 19.501458,10.843098 C 18.949258,12.542592 21.479106,19.508138 20.038392,20.565281 C 18.609271,21.613917 12.814606,17.050306 11.04203,17.050306 C 9.2550764,17.050305 3.4122139,21.608805 1.9616069,20.56528 C 0.52267162,19.530152 3.0722734,12.608865 2.5245181,10.923044 C 1.9723197,9.2235499 -4.1686154,5.0753115 -3.6244266,3.3732353 C -3.0846165,1.6848543 4.2857892,1.9708743 5.7198337,0.92898096 C 7.1655103,-0.12136361 9.2130662,-7.2436161 11,-7.2520323 z" transform="matrix(1.5348722,0,0,1.5372119,7.1163768,12.647913)"/><path style="opacity:1;fill:none;fill-opacity:1;stroke:url(#linearGradient7956);stroke-width:.62848389;stroke-linecap:butt;stroke-linejoin:round;stroke-miterlimit:4;stroke-dasharray:none;stroke-dashoffset:0;stroke-opacity:1" id="path2758" d="M 11,-6.09375 C 10.884957,-5.988318 10.718187,-5.8098367 10.53125,-5.53125 C 10.134891,-4.9405696 9.6629041,-4.0373537 9.21875,-3.09375 C 8.7745959,-2.1501463 8.3448542,-1.1389059 7.90625,-0.28125 C 7.4676458,0.57640587 7.1401874,1.2792634 6.40625,1.8125 C 5.6722678,2.3457692 4.8892811,2.4412409 3.9375,2.59375 C 2.9857189,2.7462591 1.9105283,2.837398 0.875,2.96875 C -0.1605283,3.100102 -1.1587412,3.2739182 -1.84375,3.46875 C -2.1733403,3.5624928 -2.397236,3.6725925 -2.53125,3.75 C -2.4640794,3.8932548 -2.3252465,4.1188778 -2.125,4.375 C -1.6871619,4.9350099 -0.97667447,5.6289777 -0.21875,6.34375 C 0.53917447,7.0585223 1.3529479,7.7860176 2.03125,8.46875 C 2.7095521,9.1514824 3.2827502,9.6702687 3.5625,10.53125 C 3.8419788,11.391397 3.6777444,12.173938 3.53125,13.125 C 3.3847556,14.076062 3.1606027,15.132349 2.96875,16.15625 C 2.7768973,17.180151 2.6180293,18.164383 2.59375,18.875 C 2.5820928,19.216186 2.6237262,19.473342 2.65625,19.625 C 2.8131119,19.605535 3.0694939,19.548645 3.375,19.4375 C 4.0424589,19.194675 4.9302768,18.749191 5.84375,18.25 C 6.7572232,17.750809 7.7039582,17.21479 8.5625,16.78125 C 9.4210418,16.34771 10.095319,15.96875 11,15.96875 C 11.904681,15.96875 12.578958,16.347711 13.4375,16.78125 C 14.296042,17.214789 15.242777,17.750809 16.15625,18.25 C 17.069723,18.749191 17.957541,19.194675 18.625,19.4375 C 18.930506,19.548645 19.186888,19.605535 19.34375,19.625 C 19.376274,19.473342 19.417907,19.216186 19.40625,18.875 C 19.381971,18.164383 19.223103,17.180151 19.03125,16.15625 C 18.839397,15.132349 18.615244,14.076062 18.46875,13.125 C 18.322256,12.173938 18.158021,11.391397 18.4375,10.53125 C 18.71725,9.670269 19.290448,9.1514824 19.96875,8.46875 C 20.647052,7.7860176 21.460826,7.0585223 22.21875,6.34375 C 22.976674,5.6289777 23.687162,4.9350099 24.125,4.375 C 24.325247,4.1188778 24.464079,3.8932549 24.53125,3.75 C 24.397236,3.6725925 24.17334,3.5624928 23.84375,3.46875 C 23.158741,3.2739182 22.160528,3.100102 21.125,2.96875 C 20.089472,2.837398 19.014281,2.7462591 18.0625,2.59375 C 17.110719,2.4412409 16.327732,2.3457692 15.59375,1.8125 C 14.859813,1.2792634 14.532354,0.57640587 14.09375,-0.28125 C 13.655146,-1.1389059 13.225404,-2.1501463 12.78125,-3.09375 C 12.337096,-4.0373537 11.865109,-4.9405696 11.46875,-5.53125 C 11.281813,-5.8098367 11.115043,-5.988318 11,-6.09375 z" transform="matrix(1.5889053,0,0,1.5941579,6.5220128,12.214526)"/></g></svg>