<svg xmlns="http://www.w3.org/2000/svg" xmlns:svg="http://www.w3.org/2000/svg" xmlns:xlink="http://www.w3.org/1999/xlink" id="svg1" x="0" y="0" version="1.0" viewBox="0 0 60 60"><defs id="defs12"><radialGradient id="radialGradient3722" cx="38.659" cy="9.341" r="8.342" fx="38.659" fy="9.341" gradientUnits="userSpaceOnUse" xlink:href="#linearGradient2378"/><linearGradient id="linearGradient2378"><stop id="stop2380" offset="0" style="stop-color:#fff;stop-opacity:1"/><stop style="stop-color:#fefede;stop-opacity:.91836733" id="stop4146" offset=".25"/><stop style="stop-color:#f5f328;stop-opacity:1" id="stop2386" offset=".5"/><stop id="stop2382" offset="1" style="stop-color:#f5f32d;stop-opacity:.12234043"/></linearGradient></defs><g id="g3340" transform="matrix(1.2488696,0,0,1.5794486,-15.946389,-7.7637258)"><rect style="fill:#ccc;fill-rule:evenodd" id="rect831" width="36.425" height="26.289" x="18.676" y="11.336" rx="1.893"/><path style="fill:none;stroke:#333;stroke-width:1.875;stroke-linecap:round;stroke-linejoin:round" id="path832" d="m 18.881,20.182 36.053,0"/><path style="fill:none;stroke:#333;stroke-width:1.875;stroke-linecap:round;stroke-linejoin:round" id="path833" d="m 36.721,11.712 0,25.692"/><path style="fill:none;stroke:#333;stroke-width:1.875;stroke-linecap:round;stroke-linejoin:round" id="path834" d="m 18.881,28.798 36.053,0"/><rect style="fill:none;stroke:#333;stroke-width:2.5;stroke-linecap:round;stroke-linejoin:round" id="rect837" width="36.425" height="26.289" x="18.676" y="11.336" rx="1.988"/></g><metadata id="metadata10"/><g id="g14103" transform="matrix(1.4499463,0,0,1.4487606,-7.4200759,-1.3306501)"><circle style="fill:url(#radialGradient3722);fill-opacity:1;fill-rule:evenodd;stroke:none" id="path2388" cx="38.659" cy="9.341" r="8.342" transform="matrix(1.14985,0,0,1.14985,-7.595328,0.490895)"/><path style="color:#000;display:inline;overflow:visible;visibility:visible;fill:#fff;fill-opacity:1;fill-rule:evenodd;stroke:none;stroke-width:.5;marker:none" id="path1345" d="m 44.520054,15.50279 c -0.507171,0.878446 -4.594703,-0.160823 -5.521351,0.251748 -0.926648,0.41257 -2.889414,4.145604 -3.88159,3.934711 -0.992177,-0.210894 -1.266891,-4.419519 -1.945618,-5.173323 -0.678728,-0.753803 -4.835582,-1.466933 -4.94161,-2.475719 -0.106028,-1.008786 3.811722,-2.5705906 4.318893,-3.4490369 0.507171,-0.8784463 -0.09914,-5.0522193 0.827507,-5.4647895 0.926648,-0.4125703 3.622664,2.8308064 4.614841,3.0417001 0.992176,0.2108936 4.77431,-1.6555099 5.453037,-0.9017066 0.678728,0.7538034 -1.572792,4.3201254 -1.466764,5.3289109 0.106027,1.008786 3.049826,4.029058 2.542655,4.907505 z" transform="matrix(0.674116,0.299577,-0.299577,0.674116,15.46413,-7.192469)"/></g></svg>