<svg xmlns="http://www.w3.org/2000/svg" xmlns:svg="http://www.w3.org/2000/svg" xmlns:xlink="http://www.w3.org/1999/xlink" id="svg7425" width="48" height="48"><defs id="defs7427"><linearGradient id="linearGradient9690-0"><stop style="stop-color:#fff;stop-opacity:1" id="stop9692-4" offset="0"/><stop style="stop-color:#fff;stop-opacity:0" id="stop9694-1" offset="1"/></linearGradient><linearGradient id="linearGradient10629" x1="132.25" x2="34" y1="93" y2="207" gradientTransform="matrix(0.182877,0,0,0.182877,-2.233974,-5.1275515)" gradientUnits="userSpaceOnUse" xlink:href="#linearGradient9690-0"/><linearGradient id="linearGradient5202-3"><stop id="stop5204-6" offset="0" style="stop-color:#fff;stop-opacity:1"/><stop id="stop5206-05" offset="1" style="stop-color:#fff;stop-opacity:0"/></linearGradient><linearGradient id="linearGradient10627" x1="22.109" x2="22.109" y1="11.344" y2="49.613" gradientUnits="userSpaceOnUse" xlink:href="#linearGradient5202-3"/><linearGradient id="linearGradient8933"><stop style="stop-color:#a40000;stop-opacity:1" id="stop8935" offset="0"/><stop style="stop-color:#7c0000;stop-opacity:1" id="stop8937" offset="1"/></linearGradient><linearGradient id="linearGradient10625" x1="22.097" x2="22.097" y1="19.875" y2="39.53" gradientUnits="userSpaceOnUse" xlink:href="#linearGradient8933"/><linearGradient id="linearGradient8082"><stop id="stop8084" offset="0" style="stop-color:#ef2929;stop-opacity:1"/><stop style="stop-color:#c00;stop-opacity:1" id="stop8086" offset=".644"/><stop id="stop8088" offset="1" style="stop-color:#ef2929;stop-opacity:1"/></linearGradient><linearGradient id="linearGradient10623" x1="22.097" x2="24.238" y1="8.008" y2="38.437" gradientUnits="userSpaceOnUse" xlink:href="#linearGradient8082"/><filter id="filter5186-4" width="1.335" height="1.67" x="-.168" y="-.335"><feGaussianBlur id="feGaussianBlur5188-3" stdDeviation="1.815"/></filter><linearGradient id="linearGradient5130-4"><stop id="stop5132-3" offset="0" style="stop-color:#000;stop-opacity:1"/><stop id="stop5134-51" offset="1" style="stop-color:#000;stop-opacity:0"/></linearGradient><radialGradient id="radialGradient10621" cx="22" cy="38.5" r="13" fx="22" fy="38.5" gradientTransform="matrix(1,0,0,0.5,0,19.25)" gradientUnits="userSpaceOnUse" xlink:href="#linearGradient5130-4"/></defs><metadata id="metadata7430"/><g id="layer1"><g style="display:inline;enable-background:new" id="g10575" transform="translate(-0.4507394,-0.9610005)"><path id="path10577" d="M 35,38.5 A 13,6.5 0 1 1 9,38.5 A 13,6.5 0 1 1 35,38.5 z" transform="matrix(1.3257204,0,0,1.3060079,-3.6937336,-12.797355)" style="opacity:.43373497;fill:url(#radialGradient10621);fill-opacity:1;fill-rule:nonzero;stroke:none;stroke-width:1;marker:none;visibility:visible;display:inline;overflow:visible;filter:url(#filter5186-4);enable-background:accumulate"/><path id="path10579" d="M 35.099492,35.723338 L 26.703003,33.840596 L 22.097088,41.10911 L 17.491173,33.840597 L 9.094684,35.723338 L 10.977425,27.32685 L 3.7089119,22.720934 L 10.977425,18.115019 L 9.0946839,9.71853 L 17.491172,11.601271 L 22.097088,4.3327579 L 26.703002,11.601271 L 35.099492,9.71853 L 33.21675,18.115018 L 40.485264,22.720934 L 33.216751,27.326849 L 35.099492,35.723338 z" transform="matrix(1.1209343,0,0,1.1042669,-0.1974224,-1.3744715)" style="fill:url(#linearGradient10623);fill-opacity:1;fill-rule:nonzero;stroke:url(#linearGradient10625);stroke-width:1.00000012;stroke-linecap:butt;stroke-linejoin:miter;marker:none;stroke-miterlimit:4;stroke-dasharray:none;stroke-dashoffset:0;stroke-opacity:1;visibility:visible;display:inline;overflow:visible;enable-background:accumulate"/><path id="path10581" d="M 22.09375,6.28125 L 18.375,12.15625 C 18.144232,12.525755 17.707972,12.712723 17.28125,12.625 L 10.46875,11.09375 L 12,17.90625 C 12.087723,18.332972 11.900755,18.769232 11.53125,19 L 5.65625,22.71875 L 11.53125,26.4375 C 11.900755,26.668268 12.087723,27.104528 12,27.53125 L 10.46875,34.34375 L 17.28125,32.8125 C 17.707972,32.724777 18.144232,32.911745 18.375,33.28125 L 22.09375,39.15625 L 25.8125,33.28125 C 26.043268,32.911745 26.479528,32.724777 26.90625,32.8125 L 33.71875,34.34375 L 32.1875,27.53125 C 32.099777,27.104528 32.286745,26.668268 32.65625,26.4375 L 38.5625,22.71875 L 32.65625,19 C 32.286745,18.769232 32.099777,18.332972 32.1875,17.90625 L 33.71875,11.09375 L 26.90625,12.625 C 26.479528,12.712723 26.043268,12.525755 25.8125,12.15625 L 22.09375,6.28125 z" transform="matrix(1.1263736,0,0,1.1263736,-0.2940419,-1.8085508)" xlink:href="#path4547-2" style="opacity:.33734939;fill:none;stroke:url(#linearGradient10627);stroke-width:1;stroke-linecap:butt;stroke-linejoin:miter;marker:none;stroke-miterlimit:4;stroke-dasharray:none;stroke-dashoffset:0;stroke-opacity:1;visibility:visible;display:inline;overflow:visible;enable-background:accumulate"/><path style="fill:#eeeeec;fill-opacity:1;fill-rule:nonzero;stroke:none;stroke-width:.98018837;stroke-miterlimit:4;display:inline;enable-background:new" id="path11163" d="M 719.03921,80.378562 C 717.89509,80.378562 717.015,79.484224 717.015,78.321584 C 717.015,77.069511 717.80708,76.264606 719.03921,76.264606 C 720.27133,76.264606 720.9754,77.069511 721.06341,78.321584 C 721.06341,79.484224 720.27133,80.378562 719.03921,80.378562 L 719.03921,80.378562 z M 718.39465,73.730727 L 717.27903,64.817079 L 720.79938,64.817079 L 719.68376,75.199913 L 718.39465,73.730727 z" transform="translate(-694.54926,-49.039009)"/><path style="opacity:.25;fill:url(#linearGradient10629);fill-opacity:1;fill-rule:nonzero;stroke:none;stroke-width:2;marker:none;visibility:visible;display:inline;overflow:visible;enable-background:accumulate" id="path10585" d="M 12.579065,29.893399 C 19.998861,24.564906 28.499973,21.716979 36.35308,18.555024 L 38.456162,10.325557 L 29.403749,12.062889 L 24.64895,4.747808 L 19.802706,11.880014 L 10.933173,10.051242 L 13.127695,18.829339 L 5.4468617,23.767018 L 12.862214,28.370356 L 12.579065,29.893399 L 12.579065,29.893399 z"/></g></g></svg>