<svg xmlns="http://www.w3.org/2000/svg" xmlns:svg="http://www.w3.org/2000/svg" xmlns:xlink="http://www.w3.org/1999/xlink" id="svg7516" width="48" height="48"><defs id="defs7518"><filter id="filter6328" width="1.17" height="1.827" x="-.085" y="-.414"><feGaussianBlur id="feGaussianBlur6330" stdDeviation=".425"/></filter><linearGradient id="linearGradient6057"><stop style="stop-color:#fff;stop-opacity:1" id="stop6059" offset="0"/><stop style="stop-color:#fff;stop-opacity:0" id="stop6061" offset="1"/></linearGradient><radialGradient id="radialGradient6071" cx="18.031" cy="6.281" r="3.182" fx="18.031" fy="6.281" gradientUnits="userSpaceOnUse" xlink:href="#linearGradient6057"/><filter id="filter5246"><feGaussianBlur id="feGaussianBlur5248" stdDeviation=".528"/></filter><filter id="filter6251" width="1.485" height="1.095" x="-.242" y="-.048"><feGaussianBlur id="feGaussianBlur6253" stdDeviation=".244"/></filter><linearGradient id="linearGradient6227"><stop style="stop-color:#000;stop-opacity:1" id="stop6229" offset="0"/><stop style="stop-color:#000;stop-opacity:0" id="stop6231" offset="1"/></linearGradient><linearGradient id="linearGradient6233" x1="33.95" x2="39.619" y1="14.007" y2="9.522" gradientTransform="translate(1.6824037,1.125)" gradientUnits="userSpaceOnUse" xlink:href="#linearGradient6227"/><filter id="filter5306" width="1.987" height="1.228" x="-.493" y="-.114"><feGaussianBlur id="feGaussianBlur5308" stdDeviation=".689"/></filter><linearGradient id="linearGradient5310"><stop id="stop5312" offset="0" style="stop-color:#000;stop-opacity:.59770115"/><stop id="stop5314" offset="1" style="stop-color:#000;stop-opacity:0"/></linearGradient><linearGradient id="linearGradient6334" x1="35.005" x2="30.28" y1="24.3" y2="9.13" gradientTransform="translate(-19.532826,1.7437184)" gradientUnits="userSpaceOnUse" xlink:href="#linearGradient5310"/><linearGradient id="linearGradient10591"><stop id="stop10593" offset="0" style="stop-color:#cad0c6;stop-opacity:1"/><stop style="stop-color:#eaece9;stop-opacity:1" id="stop10599" offset=".5"/><stop id="stop10595" offset="1" style="stop-color:#c5cbc0;stop-opacity:1"/></linearGradient><linearGradient id="linearGradient1392" x1="10.651" x2="27.192" y1="2.914" y2="17.47" gradientTransform="translate(0,-1.926279)" gradientUnits="userSpaceOnUse" xlink:href="#linearGradient10591"/><linearGradient id="linearGradient5753"><stop style="stop-color:#000;stop-opacity:1" id="stop5755" offset="0"/><stop style="stop-color:#000;stop-opacity:0" id="stop5757" offset="1"/></linearGradient><linearGradient id="linearGradient5759" x1="31.375" x2="38.25" y1="20.438" y2="20.438" gradientUnits="userSpaceOnUse" xlink:href="#linearGradient5753"/><filter id="filter6171" width="1.283" height="4.044" x="-.141" y="-1.522"><feGaussianBlur id="feGaussianBlur6173" stdDeviation="1.189"/></filter><linearGradient id="linearGradient6089"><stop style="stop-color:#000;stop-opacity:1" id="stop6091" offset="0"/><stop id="stop6097" offset=".5" style="stop-color:#000;stop-opacity:.17171717"/><stop style="stop-color:#000;stop-opacity:1" id="stop6093" offset="1"/></linearGradient><linearGradient id="linearGradient6095" x1="17.188" x2="34" y1="20.094" y2="20.094" gradientTransform="translate(0,-0.5)" gradientUnits="userSpaceOnUse" xlink:href="#linearGradient6089"/><linearGradient id="linearGradient6075"><stop style="stop-color:#000;stop-opacity:1" id="stop6077" offset="0"/><stop style="stop-color:#000;stop-opacity:0" id="stop6079" offset="1"/></linearGradient><radialGradient id="radialGradient6085" cx="15.938" cy="20.313" r="3.313" fx="15.938" fy="20.313" gradientTransform="matrix(1,0,0,0.5849057,0,8.4316038)" gradientUnits="userSpaceOnUse" xlink:href="#linearGradient6075"/><filter id="filter5957" width="1.988" height="1.165" x="-.494" y="-.082"><feGaussianBlur id="feGaussianBlur5959" stdDeviation=".699"/></filter><linearGradient id="linearGradient12071"><stop id="stop12073" offset="0" style="stop-color:#fff;stop-opacity:1"/><stop id="stop12075" offset="1" style="stop-color:#fff;stop-opacity:0"/></linearGradient><linearGradient id="linearGradient1387" x1="21.942" x2="21.942" y1="21.551" y2="18.038" gradientTransform="matrix(0.9697914,0,0,0.951923,-2.7734351,2.0339473)" gradientUnits="userSpaceOnUse" xlink:href="#linearGradient12071"/><linearGradient id="linearGradient5881"><stop id="stop5883" offset="0" style="stop-color:#fffac7;stop-opacity:1"/><stop style="stop-color:#fff8b2;stop-opacity:1" id="stop5885" offset="1"/></linearGradient><linearGradient id="linearGradient1591" x1="24.875" x2="24.75" y1="21" y2="17" gradientTransform="matrix(0.9706798,0,0,1.5,-2.7947591,-9.4998767)" gradientUnits="userSpaceOnUse" xlink:href="#linearGradient5881"/><linearGradient id="linearGradient9845"><stop id="stop9847" offset="0" style="stop-color:#fff;stop-opacity:1"/><stop id="stop9849" offset="1" style="stop-color:#fff;stop-opacity:.49484536"/></linearGradient><linearGradient id="linearGradient1575" x1="10.907" x2="30.875" y1="25.002" y2="36.127" gradientTransform="matrix(0.968931,0,0,1.1176137,-2.7381201,-6.0948884)" gradientUnits="userSpaceOnUse" xlink:href="#linearGradient9845"/><linearGradient id="linearGradient6215"><stop id="stop6217" offset="0" style="stop-color:#ead200;stop-opacity:1"/><stop style="stop-color:#fff16a;stop-opacity:1" id="stop6219" offset=".21"/><stop id="stop6221" offset=".84" style="stop-color:#b5a300;stop-opacity:1"/><stop id="stop6223" offset="1" style="stop-color:#e8d000;stop-opacity:1"/></linearGradient><linearGradient id="linearGradient6225" x1="6.727" x2="40.938" y1="32.162" y2="32.162" gradientTransform="matrix(0.9715125,0,0,1.1298556,-2.8148311,-7.9390138)" gradientUnits="userSpaceOnUse" xlink:href="#linearGradient6215"/><filter id="filter6051" width="1.15" height="1.944" x="-.075" y="-.472"><feGaussianBlur id="feGaussianBlur6053" stdDeviation="1.415"/></filter></defs><metadata id="metadata7521"/><g id="layer1"><rect style="opacity:.45882353;fill:#000;fill-opacity:1;fill-rule:evenodd;stroke:none;stroke-width:1;stroke-linecap:round;stroke-linejoin:miter;marker:none;marker-start:none;marker-mid:none;marker-end:none;stroke-miterlimit:4;stroke-dasharray:none;stroke-dashoffset:0;stroke-opacity:1;visibility:visible;display:inline;overflow:visible;filter:url(#filter6051);enable-background:accumulate" id="rect5961" width="37.75" height="6" x="6.25" y="39.75" rx="3.171" ry="1.975" transform="matrix(1.0264901,0,0,1,-5.1655631,-1.9998777)"/><path style="fill:url(#linearGradient6225);fill-opacity:1;fill-rule:evenodd;stroke:#7d6400;stroke-width:.99999952;stroke-linecap:round;stroke-linejoin:round;stroke-miterlimit:4;stroke-dashoffset:0;stroke-opacity:1" id="rect1314" d="M 5.6713057,15.500122 C 15.465852,14.056723 25.364615,14.280806 35.325581,15.500122 C 36.528485,15.500122 37.496887,16.543692 37.496887,17.839966 L 37.496887,41.160278 C 37.496887,42.456552 36.465985,43.312622 35.325581,43.500122 C 24.998398,44.708725 16.143531,44.699184 5.6713057,43.500122 C 4.2809017,43.062622 3.4999997,42.456552 3.4999997,41.160278 L 3.4999997,17.839966 C 3.4999997,16.543692 4.4684017,15.500122 5.6713057,15.500122 z"/><g id="g4695" transform="translate(-5.0000001,-1.9998777)"><path id="path6193" d="M 41.940271,24.444505 C 41.542065,25.774817 37.406119,26.114917 36.638195,26.217936 C 36.638195,26.217936 20.32932,26.698408 20.32932,26.698408 C 20.32932,26.698408 36.59256,26.857542 36.59256,26.857542 C 37.418473,26.760419 41.811211,26.960931 42.02866,25.151612 L 41.940271,24.444505 z" style="opacity:.14117647;fill:#000;fill-opacity:1;fill-rule:evenodd;stroke:none;stroke-width:1;stroke-linecap:round;stroke-linejoin:miter;marker:none;marker-start:none;marker-mid:none;marker-end:none;stroke-miterlimit:4;stroke-dasharray:none;stroke-dashoffset:0;stroke-opacity:1;visibility:visible;display:inline;overflow:visible;enable-background:accumulate"/><path style="opacity:.14117647;fill:#000;fill-opacity:1;fill-rule:evenodd;stroke:none;stroke-width:1;stroke-linecap:round;stroke-linejoin:miter;marker:none;marker-start:none;marker-mid:none;marker-end:none;stroke-miterlimit:4;stroke-dasharray:none;stroke-dashoffset:0;stroke-opacity:1;visibility:visible;display:inline;overflow:visible;enable-background:accumulate" id="path4678" d="M 41.940271,26.444505 C 41.542065,27.774817 37.406119,28.114917 36.638195,28.217936 C 36.638195,28.217936 17.57932,28.698408 17.57932,28.698408 C 17.57932,28.698408 36.59256,28.857542 36.59256,28.857542 C 37.418473,28.760419 41.811211,28.960931 42.02866,27.151612 L 41.940271,26.444505 z"/><path id="path4680" d="M 41.940271,28.444505 C 41.542065,29.774817 37.406119,30.114917 36.638195,30.217936 C 36.638195,30.217936 20.32932,30.698408 20.32932,30.698408 C 20.32932,30.698408 36.59256,30.857542 36.59256,30.857542 C 37.418473,30.760419 41.811211,30.960931 42.02866,29.151612 L 41.940271,28.444505 z" style="opacity:.14117647;fill:#000;fill-opacity:1;fill-rule:evenodd;stroke:none;stroke-width:1;stroke-linecap:round;stroke-linejoin:miter;marker:none;marker-start:none;marker-mid:none;marker-end:none;stroke-miterlimit:4;stroke-dasharray:none;stroke-dashoffset:0;stroke-opacity:1;visibility:visible;display:inline;overflow:visible;enable-background:accumulate"/><path style="opacity:.14117647;fill:#000;fill-opacity:1;fill-rule:evenodd;stroke:none;stroke-width:1;stroke-linecap:round;stroke-linejoin:miter;marker:none;marker-start:none;marker-mid:none;marker-end:none;stroke-miterlimit:4;stroke-dasharray:none;stroke-dashoffset:0;stroke-opacity:1;visibility:visible;display:inline;overflow:visible;enable-background:accumulate" id="path4682" d="M 41.940271,30.444505 C 41.542065,31.774817 37.406119,32.114917 36.638195,32.217936 C 36.638195,32.217936 25.57932,32.698408 25.57932,32.698408 C 25.57932,32.698408 36.59256,32.857542 36.59256,32.857542 C 37.418473,32.760419 41.811211,32.960931 42.02866,31.151612 L 41.940271,30.444505 z"/><path id="path4684" d="M 41.940271,32.444505 C 41.542065,33.774817 37.406119,34.114917 36.638195,34.217936 C 36.638195,34.217936 20.32932,34.698408 20.32932,34.698408 C 20.32932,34.698408 36.59256,34.857542 36.59256,34.857542 C 37.418473,34.760419 41.811211,34.960931 42.02866,33.151612 L 41.940271,32.444505 z" style="opacity:.14117647;fill:#000;fill-opacity:1;fill-rule:evenodd;stroke:none;stroke-width:1;stroke-linecap:round;stroke-linejoin:miter;marker:none;marker-start:none;marker-mid:none;marker-end:none;stroke-miterlimit:4;stroke-dasharray:none;stroke-dashoffset:0;stroke-opacity:1;visibility:visible;display:inline;overflow:visible;enable-background:accumulate"/><path style="opacity:.14117647;fill:#000;fill-opacity:1;fill-rule:evenodd;stroke:none;stroke-width:1;stroke-linecap:round;stroke-linejoin:miter;marker:none;marker-start:none;marker-mid:none;marker-end:none;stroke-miterlimit:4;stroke-dasharray:none;stroke-dashoffset:0;stroke-opacity:1;visibility:visible;display:inline;overflow:visible;enable-background:accumulate" id="path4686" d="M 41.940271,34.444505 C 41.542065,35.774817 37.406119,36.114917 36.638195,36.217936 C 36.638195,36.217936 17.89182,36.698408 17.89182,36.698408 C 17.89182,36.698408 36.59256,36.857542 36.59256,36.857542 C 37.418473,36.760419 41.811211,36.960931 42.02866,35.151612 L 41.940271,34.444505 z"/><path id="path4688" d="M 41.940271,36.444505 C 41.542065,37.774817 37.406119,38.114917 36.638195,38.217936 C 36.638195,38.217936 22.64182,38.698408 22.64182,38.698408 C 22.64182,38.698408 36.59256,38.857542 36.59256,38.857542 C 37.418473,38.760419 41.811211,38.960931 42.02866,37.151612 L 41.940271,36.444505 z" style="opacity:.14117647;fill:#000;fill-opacity:1;fill-rule:evenodd;stroke:none;stroke-width:1;stroke-linecap:round;stroke-linejoin:miter;marker:none;marker-start:none;marker-mid:none;marker-end:none;stroke-miterlimit:4;stroke-dasharray:none;stroke-dashoffset:0;stroke-opacity:1;visibility:visible;display:inline;overflow:visible;enable-background:accumulate"/><path style="opacity:.14117647;fill:#000;fill-opacity:1;fill-rule:evenodd;stroke:none;stroke-width:1;stroke-linecap:round;stroke-linejoin:miter;marker:none;marker-start:none;marker-mid:none;marker-end:none;stroke-miterlimit:4;stroke-dasharray:none;stroke-dashoffset:0;stroke-opacity:1;visibility:visible;display:inline;overflow:visible;enable-background:accumulate" id="path4690" d="M 41.940271,38.444505 C 41.542065,39.774817 37.406119,40.114917 36.638195,40.217936 C 36.638195,40.217936 28.20432,40.698408 28.20432,40.698408 C 28.20432,40.698408 36.59256,40.857542 36.59256,40.857542 C 37.418473,40.760419 41.811211,40.960931 42.02866,39.151612 L 41.940271,38.444505 z"/><path id="path4692" d="M 41.940271,40.444505 C 41.542065,41.774817 37.406119,42.114917 36.638195,42.217936 C 36.638195,42.217936 20.32932,42.698408 20.32932,42.698408 C 20.32932,42.698408 36.59256,42.857542 36.59256,42.857542 C 37.418473,42.760419 41.811211,42.960931 42.02866,41.151612 L 41.940271,40.444505 z" style="opacity:.14117647;fill:#000;fill-opacity:1;fill-rule:evenodd;stroke:none;stroke-width:1;stroke-linecap:round;stroke-linejoin:miter;marker:none;marker-start:none;marker-mid:none;marker-end:none;stroke-miterlimit:4;stroke-dasharray:none;stroke-dashoffset:0;stroke-opacity:1;visibility:visible;display:inline;overflow:visible;enable-background:accumulate"/></g><path style="fill:none;fill-opacity:1;fill-rule:evenodd;stroke:url(#linearGradient1575);stroke-width:1.00000024;stroke-linecap:round;stroke-linejoin:round;stroke-miterlimit:4;stroke-dashoffset:0;stroke-opacity:.60109289" id="rect6903" d="M 5.7495877,16.995483 L 35.254433,16.995483 C 35.946704,16.995483 36.504021,17.581598 36.504021,18.309642 L 36.504021,41.185963 C 36.504021,41.914007 36.009204,42.250122 35.254433,42.500122 C 25.606985,43.703735 16.084536,43.700943 5.7495877,42.500122 C 5.0573157,42.250122 4.4999997,41.914007 4.4999997,41.185963 L 4.4999997,18.309642 C 4.4999997,17.581598 5.0573157,16.995483 5.7495877,16.995483 z"/><path style="fill:url(#linearGradient1591);fill-opacity:1;fill-rule:evenodd;stroke:none;stroke-width:2;stroke-linecap:round;stroke-linejoin:round;marker:none;marker-start:none;marker-mid:none;marker-end:none;stroke-miterlimit:4;stroke-dashoffset:0;stroke-opacity:1;visibility:visible;display:inline;overflow:visible" id="rect1460" d="M 5.6077247,16.000122 C 15.536946,14.539375 25.466166,14.799553 35.395387,16.000122 C 36.286067,16.000122 37.003113,16.717168 37.003113,17.607847 L 37.003113,20.392397 C 37.003113,21.283076 36.286067,22.000122 35.395387,22.000122 C 25.033658,22.690222 15.499962,22.443932 5.6077247,22.000122 C 4.7170447,22.000122 3.9999997,21.283076 3.9999997,20.392397 L 3.9999997,17.607847 C 3.9999997,16.717168 4.7170447,16.000122 5.6077247,16.000122 z"/><path style="fill:none;fill-opacity:1;fill-rule:evenodd;stroke:url(#linearGradient1387);stroke-width:1;stroke-linecap:round;stroke-linejoin:round;marker:none;marker-start:none;marker-mid:none;marker-end:none;stroke-miterlimit:4;stroke-dashoffset:0;stroke-opacity:1;visibility:visible;display:inline;overflow:visible" id="rect1593" d="M 5.6639377,18.692602 L 35.339179,18.692602 C 35.984,18.692602 36.503117,19.181796 36.503117,19.78945 L 36.503117,20.451524 C 36.503117,21.059178 35.984,21.548372 35.339179,21.548372 C 25.539745,22.748444 15.629609,22.821884 5.6639377,21.548372 C 5.0191157,21.548372 4.4999997,21.059178 4.4999997,20.451524 L 4.4999997,19.78945 C 4.4999997,19.181796 5.0191157,18.692602 5.6639377,18.692602 z"/><rect style="opacity:.29411765;fill:#fff;fill-opacity:1;fill-rule:evenodd;stroke:none;stroke-width:1;stroke-linecap:round;stroke-linejoin:miter;marker:none;marker-start:none;marker-mid:none;marker-end:none;stroke-miterlimit:4;stroke-dasharray:none;stroke-dashoffset:0;stroke-opacity:1;visibility:visible;display:inline;overflow:visible;filter:url(#filter5957);enable-background:accumulate" id="rect5887" width="2.828" height="16.971" x="14.594" y="23.226" rx="1.608" ry="1.608" transform="matrix(1.9722718,0,0,1.2416619,-20.56437,-7.8388872)"/><path id="path6083" d="M 19.25,20.3125 A 3.3125,1.9375 0 1 1 12.625,20.3125 A 3.3125,1.9375 0 1 1 19.25,20.3125 z" transform="matrix(1.7556483,1.8684597e-2,-0.2566879,1.4540468,6.67711,-11.231529)" style="opacity:.62643678;fill:url(#radialGradient6085);fill-opacity:1;fill-rule:evenodd;stroke:none;stroke-width:1;stroke-linecap:round;stroke-linejoin:miter;marker:none;marker-start:none;marker-mid:none;marker-end:none;stroke-miterlimit:4;stroke-dasharray:none;stroke-dashoffset:0;stroke-opacity:1;visibility:visible;display:inline;overflow:visible;enable-background:accumulate"/><rect style="opacity:.48235294;fill:url(#linearGradient6095);fill-opacity:1;fill-rule:evenodd;stroke:none;stroke-width:1;stroke-linecap:round;stroke-linejoin:miter;marker:none;marker-start:none;marker-mid:none;marker-end:none;stroke-miterlimit:4;stroke-dasharray:none;stroke-dashoffset:0;stroke-opacity:1;visibility:visible;display:inline;overflow:visible;filter:url(#filter6171);enable-background:accumulate" id="rect6087" width="16.813" height="1.563" x="17.188" y="18.813" rx=".781" ry=".781" transform="matrix(-1,-0.1942467,0,1,63.818732,3.4534123)"/><path style="opacity:.54705882;fill:url(#linearGradient5759);fill-opacity:1;fill-rule:evenodd;stroke:none;stroke-width:2;stroke-linecap:round;stroke-linejoin:miter;marker:none;marker-start:none;marker-mid:none;marker-end:none;stroke-miterlimit:4;stroke-dasharray:none;stroke-dashoffset:0;stroke-opacity:1;visibility:visible;display:inline;overflow:visible;enable-background:accumulate" id="path5751" d="M 38.25,20.4375 A 3.4375,1.5625 0 1 1 31.375,20.4375 A 3.4375,1.5625 0 1 1 38.25,20.4375 z" transform="translate(-24.125,-1.9998777)"/><g id="g1387" transform="matrix(-0.8575185,-0.1731867,0,1,58.479607,2.1760963)"><path id="path2086" d="M 12.743205,25.823932 L 12.743205,24.193353 L 13.794707,23.750459 L 12.673105,22.306213 L 12.743205,20.089086 C 12.743205,5.6408774 16.806669,3.7152321 24.020027,3.0776805 C 31.167919,2.4459151 37.354231,6.5120329 37.354231,14.474755 L 37.354231,22.459601 C 37.354231,24.41383 30.260065,23.447353 30.260065,21.244402 L 30.260065,15.259556 C 30.260065,11.490752 29.659869,8.710042 25.465153,8.9756217 C 19.67247,9.3423733 19.586426,15.511882 19.586426,23.287142 L 19.586426,27.06364 C 19.586426,29.41826 12.743205,28.202219 12.743205,25.823932 z" style="fill:url(#linearGradient1392);fill-opacity:1;fill-rule:evenodd;stroke:#888a85;stroke-width:1.07988632;stroke-linecap:butt;stroke-linejoin:miter;stroke-miterlimit:4;stroke-dasharray:none;stroke-opacity:1"/><path id="path6332" d="M 12.122089,14.371007 L 12.493808,14.540202 C 15.234525,14.91845 15.471857,26.162899 15.471857,26.162899 C 15.409357,27.287899 13.440607,29.87613 13.471857,29.34488 C 13.471857,29.34488 14.065946,16.620674 12.122089,14.371007 z" transform="matrix(-1,0,0,1,28.762476,-5.6647124)" style="opacity:.62643678;fill:url(#linearGradient6334);fill-opacity:1;fill-rule:evenodd;stroke:none;stroke-width:1;stroke-linecap:round;stroke-linejoin:round;stroke-miterlimit:4;stroke-dashoffset:0;stroke-opacity:1;filter:url(#filter5306)"/><path style="opacity:.10344831;fill:url(#linearGradient6233);fill-opacity:1;fill-rule:evenodd;stroke:none;stroke-width:1;stroke-linecap:round;stroke-linejoin:round;stroke-miterlimit:4;stroke-dashoffset:0;stroke-opacity:1;filter:url(#filter6251)" id="rect1345" d="M 43.423941,11.814335 C 38.103497,9.9100511 36.795,11.892458 36.566172,14.801975 C 36.566172,14.801975 36.687087,22.472482 36.687087,22.472482 C 36.659989,23.60464 34.655837,23.003732 34.687087,22.472482 C 34.687087,22.472482 34.630467,14.508742 34.630467,14.508742 C 34.678721,11.551858 36.71871,8.1994403 43.423941,11.814335 z" transform="matrix(-1,-0.3463734,0,1,67.435126,11.502092)"/></g><path style="opacity:1;fill:none;fill-opacity:1;fill-rule:evenodd;stroke:#fff;stroke-width:2;stroke-linecap:round;stroke-linejoin:miter;marker:none;marker-start:none;marker-mid:none;marker-end:none;stroke-miterlimit:4;stroke-dasharray:none;stroke-dashoffset:0;stroke-opacity:1;visibility:visible;display:inline;overflow:visible;filter:url(#filter5246);enable-background:accumulate" id="path5675" d="M 18.5,27.169521 L 19.25,11.915925 C 19.25,3.852052 34.1875,2.6985997 34.1875,14.25 L 34.1875,21.875" transform="matrix(-1,-0.1942467,0,1,62.318732,2.5784123)"/><g id="g6067" transform="matrix(-1,-1.3719228e-2,0,1,50.629257,-3.9259803)"><path id="path6055" d="M 21.213204,6.2806997 A 3.1819806,3.1819806 0 1 1 14.849243,6.2806997 A 3.1819806,3.1819806 0 1 1 21.213204,6.2806997 z" style="opacity:1;fill:url(#radialGradient6071);fill-opacity:1;fill-rule:evenodd;stroke:none;stroke-width:1;stroke-linecap:round;stroke-linejoin:miter;marker:none;marker-start:none;marker-mid:none;marker-end:none;stroke-miterlimit:4;stroke-dasharray:none;stroke-dashoffset:0;stroke-opacity:1;visibility:visible;display:inline;overflow:visible;enable-background:accumulate"/><path style="opacity:1;fill:#fff;fill-opacity:1;fill-rule:evenodd;stroke:none;stroke-width:1;stroke-linecap:round;stroke-linejoin:miter;marker:none;marker-start:none;marker-mid:none;marker-end:none;stroke-miterlimit:4;stroke-dasharray:none;stroke-dashoffset:0;stroke-opacity:1;visibility:visible;display:inline;overflow:visible;enable-background:accumulate" id="path6065" d="M 21.213204,6.2806997 A 3.1819806,3.1819806 0 1 1 14.849243,6.2806997 A 3.1819806,3.1819806 0 1 1 21.213204,6.2806997 z" transform="matrix(0.4343344,0,0,0.4343344,10.199642,3.5527756)"/></g><path style="opacity:1;fill:#fff;fill-opacity:1;fill-rule:evenodd;stroke:none;stroke-width:1;stroke-linecap:round;stroke-linejoin:miter;marker:none;marker-start:none;marker-mid:none;marker-end:none;stroke-miterlimit:4;stroke-dashoffset:0;stroke-opacity:1;visibility:visible;display:inline;overflow:visible;filter:url(#filter6328);enable-background:accumulate" id="rect6257" d="M 21.715689,3.956218 C 24.043434,2.9041432 26.831304,2.6526319 29.328581,3.956218 C 30.934482,4.7945032 30.56197,5.8453552 29.328581,5.4997159 C 26.795999,4.7899971 24.232097,4.9797662 21.715689,5.4997159 C 19.936529,5.8673328 20.2141,4.6348935 21.715689,3.956218 z" transform="matrix(-1,-0.1942467,0,1,61.251892,3.4098353)"/><path style="opacity:1;fill:#999b97;fill-opacity:1;fill-rule:evenodd;stroke:none;stroke-width:2;stroke-linecap:round;stroke-linejoin:miter;marker:none;marker-start:none;marker-mid:none;marker-end:none;stroke-miterlimit:4;stroke-dasharray:none;stroke-dashoffset:0;stroke-opacity:1;visibility:visible;display:inline;overflow:visible;enable-background:accumulate" id="path5749" d="M 47.288402,24.325755 L 44.288402,25.325755 C 44.288402,25.325755 45.663402,23.638255 46.413402,23.388255 C 47.163402,23.138255 47.288402,24.325755 47.288402,24.325755 z"/></g></svg>